<?xml version="1.0" encoding="UTF-8" standalone="no"?>
<!-- Created with Inkscape (http://www.inkscape.org/) -->

<svg
   xmlns:dc="http://purl.org/dc/elements/1.1/"
   xmlns:cc="http://creativecommons.org/ns#"
   xmlns:rdf="http://www.w3.org/1999/02/22-rdf-syntax-ns#"
   xmlns:svg="http://www.w3.org/2000/svg"
   xmlns="http://www.w3.org/2000/svg"
   xmlns:xlink="http://www.w3.org/1999/xlink"
   xmlns:sodipodi="http://sodipodi.sourceforge.net/DTD/sodipodi-0.dtd"
   xmlns:inkscape="http://www.inkscape.org/namespaces/inkscape"
   width="1800"
   height="540"
   id="svg2"
   version="1.1"
   inkscape:version="0.48.4 r9939"
   sodipodi:docname="New document 1">
  <defs
     id="defs4" />
  <sodipodi:namedview
     id="base"
     pagecolor="#ffffff"
     bordercolor="#666666"
     borderopacity="1.0"
     inkscape:pageopacity="0.0"
     inkscape:pageshadow="2"
     inkscape:zoom="0.70710678"
     inkscape:cx="878.60461"
     inkscape:cy="382.83465"
     inkscape:document-units="in"
     inkscape:current-layer="layer1"
     showgrid="true"
     units="in"
     inkscape:window-width="1920"
     inkscape:window-height="1018"
     inkscape:window-x="-8"
     inkscape:window-y="-8"
     inkscape:window-maximized="1">
    <inkscape:grid
       type="xygrid"
       id="grid2985"
       empspacing="8"
       visible="true"
       enabled="true"
       snapvisiblegridlinesonly="true"
       spacingx="0.0625in"
       spacingy="0.0625in"
       units="in" />
  </sodipodi:namedview>
  <metadata
     id="metadata7">
    <rdf:RDF>
      <cc:Work
         rdf:about="">
        <dc:format>image/svg+xml</dc:format>
        <dc:type
           rdf:resource="http://purl.org/dc/dcmitype/StillImage" />
        <dc:title></dc:title>
      </cc:Work>
    </rdf:RDF>
  </metadata>
  <g
     inkscape:label="Layer 1"
     inkscape:groupmode="layer"
     id="layer1"
     transform="translate(0,-512.35975)">
    <path
       sodipodi:type="arc"
       style="fill:#56413e;fill-rule:evenodd;stroke:#000000;stroke-width:1px;stroke-linecap:butt;stroke-linejoin:miter;stroke-opacity:1;fill-opacity:1"
       id="path2987"
       sodipodi:cx="67.5"
       sodipodi:cy="472.5"
       sodipodi:rx="22.5"
       sodipodi:ry="22.5"
       d="m 90,472.5 a 22.5,22.5 0 1 1 -45,0 22.5,22.5 0 1 1 45,0 z"
       transform="matrix(0.97826087,0,0,0.97826087,239.32454,522.63149)" />
    <use
       x="0"
       y="0"
       xlink:href="#path2987"
       id="use2989"
       transform="translate(-237.85715,0)"
       width="1800"
       height="540" />
    <use
       x="0"
       y="0"
       xlink:href="#use2989"
       id="use2993"
       transform="translate(475.7143,0)"
       width="1800"
       height="540" />
    <use
       x="0"
       y="0"
       xlink:href="#use2989"
       id="use2995"
       transform="translate(713.57144,0)"
       width="1800"
       height="540" />
    <use
       x="0"
       y="0"
       xlink:href="#use2989"
       id="use2997"
       transform="translate(951.42862,0)"
       width="1800"
       height="540" />
    <use
       x="0"
       y="0"
       xlink:href="#use2989"
       id="use2999"
       transform="translate(1189.2857,0)"
       width="1800"
       height="540" />
    <use
       x="0"
       y="0"
       xlink:href="#use2989"
       id="use3001"
       transform="translate(1427.1429,0)"
       width="1800"
       height="540" />
    <use
       x="0"
       y="0"
       xlink:href="#use2989"
       id="use3005"
       transform="translate(1665.0001,0)"
       width="1800"
       height="540" />
    <use
       x="0"
       y="0"
       xlink:href="#use2989"
       id="use3007"
       transform="translate(1.285e-6,-270)"
       width="1800"
       height="540" />
    <use
       x="0"
       y="0"
       xlink:href="#use2989"
       id="use3009"
       transform="translate(237.85715,-270)"
       width="1800"
       height="540" />
    <use
       x="0"
       y="0"
       xlink:href="#use2989"
       id="use3011"
       transform="translate(475.7143,-270)"
       width="1800"
       height="540" />
    <use
       x="0"
       y="0"
       xlink:href="#use2989"
       id="use3013"
       transform="translate(713.57144,-270)"
       width="1800"
       height="540" />
    <use
       x="0"
       y="0"
       xlink:href="#use2989"
       id="use3015"
       transform="translate(951.42862,-270)"
       width="1800"
       height="540" />
    <use
       x="0"
       y="0"
       xlink:href="#use2989"
       id="use3017"
       transform="translate(1189.2857,-270)"
       width="1800"
       height="540" />
    <use
       x="0"
       y="0"
       xlink:href="#use2989"
       id="use3019"
       transform="translate(1427.1429,-270)"
       width="1800"
       height="540" />
    <use
       x="0"
       y="0"
       xlink:href="#use2989"
       id="use3021"
       transform="translate(1665.0001,-270)"
       width="1800"
       height="540" />
    <path
       sodipodi:type="arc"
       style="fill:#c5c500;fill-rule:evenodd;stroke:#000000;stroke-width:1px;stroke-linecap:butt;stroke-linejoin:miter;stroke-opacity:1;fill-opacity:1"
       id="path3023"
       sodipodi:cx="67.5"
       sodipodi:cy="157.5"
       sodipodi:rx="11.25"
       sodipodi:ry="11.25"
       d="m 78.75,157.5 a 11.25,11.25 0 1 1 -22.5,0 11.25,11.25 0 1 1 22.5,0 z"
       transform="matrix(0.95744681,0,0,0.95744685,2.8723404,507.81187)" />
    <use
       x="0"
       y="0"
       xlink:href="#path3023"
       id="use3793"
       transform="translate(237.85715,0)"
       width="1800"
       height="540" />
    <use
       x="0"
       y="0"
       xlink:href="#path3023"
       id="use3795"
       transform="translate(475.71429,0)"
       width="1800"
       height="540" />
    <use
       x="0"
       y="0"
       xlink:href="#path3023"
       id="use3797"
       transform="translate(713.57144,0)"
       width="1800"
       height="540" />
    <use
       x="0"
       y="0"
       xlink:href="#path3023"
       id="use3799"
       transform="translate(951.42862,0)"
       width="1800"
       height="540" />
    <use
       x="0"
       y="0"
       xlink:href="#path3023"
       id="use3801"
       transform="translate(1189.2857,0)"
       width="1800"
       height="540" />
    <use
       x="0"
       y="0"
       xlink:href="#path3023"
       id="use3807"
       transform="translate(0,270)"
       width="1800"
       height="540" />
    <use
       x="0"
       y="0"
       xlink:href="#use3793"
       id="use3809"
       transform="translate(0,270)"
       width="1800"
       height="540" />
    <use
       x="0"
       y="0"
       xlink:href="#use3795"
       id="use3811"
       transform="translate(0,270)"
       width="1800"
       height="540" />
    <use
       x="0"
       y="0"
       xlink:href="#use3797"
       id="use3813"
       transform="translate(0,270)"
       width="1800"
       height="540" />
    <use
       x="0"
       y="0"
       xlink:href="#use3799"
       id="use3815"
       transform="translate(0,270)"
       width="1800"
       height="540" />
    <use
       x="0"
       y="0"
       xlink:href="#use3801"
       id="use3817"
       transform="translate(0,270)"
       width="1800"
       height="540" />
  </g>
</svg>
