G75*
%MOIN*%
%OFA0B0*%
%FSLAX24Y24*%
%IPPOS*%
%LPD*%
%AMOC8*
5,1,8,0,0,1.08239X$1,22.5*
%
%ADD10C,0.0000*%
%ADD11C,0.0060*%
%ADD12C,0.0050*%
%ADD13R,0.0240X0.0340*%
%ADD14C,0.0070*%
%ADD15C,0.0120*%
%ADD16C,0.0040*%
%ADD17C,0.0002*%
%ADD18R,0.0340X0.0240*%
%ADD19R,0.0200X0.1000*%
%ADD20R,0.0750X0.0300*%
%ADD21R,0.0200X0.0600*%
%ADD22R,0.0100X0.0250*%
%ADD23R,0.0050X0.0100*%
%ADD24C,0.0020*%
%ADD25C,0.0080*%
%ADD26C,0.0100*%
%ADD27C,0.0010*%
D10*
X001180Y001180D02*
X001180Y032180D01*
X040180Y032180D01*
X040180Y001180D01*
X001180Y001180D01*
X001629Y002180D02*
X001631Y002227D01*
X001637Y002273D01*
X001647Y002319D01*
X001660Y002364D01*
X001678Y002407D01*
X001699Y002449D01*
X001723Y002489D01*
X001751Y002526D01*
X001782Y002561D01*
X001816Y002594D01*
X001852Y002623D01*
X001891Y002649D01*
X001932Y002672D01*
X001975Y002691D01*
X002019Y002707D01*
X002064Y002719D01*
X002110Y002727D01*
X002157Y002731D01*
X002203Y002731D01*
X002250Y002727D01*
X002296Y002719D01*
X002341Y002707D01*
X002385Y002691D01*
X002428Y002672D01*
X002469Y002649D01*
X002508Y002623D01*
X002544Y002594D01*
X002578Y002561D01*
X002609Y002526D01*
X002637Y002489D01*
X002661Y002449D01*
X002682Y002407D01*
X002700Y002364D01*
X002713Y002319D01*
X002723Y002273D01*
X002729Y002227D01*
X002731Y002180D01*
X002729Y002133D01*
X002723Y002087D01*
X002713Y002041D01*
X002700Y001996D01*
X002682Y001953D01*
X002661Y001911D01*
X002637Y001871D01*
X002609Y001834D01*
X002578Y001799D01*
X002544Y001766D01*
X002508Y001737D01*
X002469Y001711D01*
X002428Y001688D01*
X002385Y001669D01*
X002341Y001653D01*
X002296Y001641D01*
X002250Y001633D01*
X002203Y001629D01*
X002157Y001629D01*
X002110Y001633D01*
X002064Y001641D01*
X002019Y001653D01*
X001975Y001669D01*
X001932Y001688D01*
X001891Y001711D01*
X001852Y001737D01*
X001816Y001766D01*
X001782Y001799D01*
X001751Y001834D01*
X001723Y001871D01*
X001699Y001911D01*
X001678Y001953D01*
X001660Y001996D01*
X001647Y002041D01*
X001637Y002087D01*
X001631Y002133D01*
X001629Y002180D01*
X001629Y031180D02*
X001631Y031227D01*
X001637Y031273D01*
X001647Y031319D01*
X001660Y031364D01*
X001678Y031407D01*
X001699Y031449D01*
X001723Y031489D01*
X001751Y031526D01*
X001782Y031561D01*
X001816Y031594D01*
X001852Y031623D01*
X001891Y031649D01*
X001932Y031672D01*
X001975Y031691D01*
X002019Y031707D01*
X002064Y031719D01*
X002110Y031727D01*
X002157Y031731D01*
X002203Y031731D01*
X002250Y031727D01*
X002296Y031719D01*
X002341Y031707D01*
X002385Y031691D01*
X002428Y031672D01*
X002469Y031649D01*
X002508Y031623D01*
X002544Y031594D01*
X002578Y031561D01*
X002609Y031526D01*
X002637Y031489D01*
X002661Y031449D01*
X002682Y031407D01*
X002700Y031364D01*
X002713Y031319D01*
X002723Y031273D01*
X002729Y031227D01*
X002731Y031180D01*
X002729Y031133D01*
X002723Y031087D01*
X002713Y031041D01*
X002700Y030996D01*
X002682Y030953D01*
X002661Y030911D01*
X002637Y030871D01*
X002609Y030834D01*
X002578Y030799D01*
X002544Y030766D01*
X002508Y030737D01*
X002469Y030711D01*
X002428Y030688D01*
X002385Y030669D01*
X002341Y030653D01*
X002296Y030641D01*
X002250Y030633D01*
X002203Y030629D01*
X002157Y030629D01*
X002110Y030633D01*
X002064Y030641D01*
X002019Y030653D01*
X001975Y030669D01*
X001932Y030688D01*
X001891Y030711D01*
X001852Y030737D01*
X001816Y030766D01*
X001782Y030799D01*
X001751Y030834D01*
X001723Y030871D01*
X001699Y030911D01*
X001678Y030953D01*
X001660Y030996D01*
X001647Y031041D01*
X001637Y031087D01*
X001631Y031133D01*
X001629Y031180D01*
X038629Y031180D02*
X038631Y031227D01*
X038637Y031273D01*
X038647Y031319D01*
X038660Y031364D01*
X038678Y031407D01*
X038699Y031449D01*
X038723Y031489D01*
X038751Y031526D01*
X038782Y031561D01*
X038816Y031594D01*
X038852Y031623D01*
X038891Y031649D01*
X038932Y031672D01*
X038975Y031691D01*
X039019Y031707D01*
X039064Y031719D01*
X039110Y031727D01*
X039157Y031731D01*
X039203Y031731D01*
X039250Y031727D01*
X039296Y031719D01*
X039341Y031707D01*
X039385Y031691D01*
X039428Y031672D01*
X039469Y031649D01*
X039508Y031623D01*
X039544Y031594D01*
X039578Y031561D01*
X039609Y031526D01*
X039637Y031489D01*
X039661Y031449D01*
X039682Y031407D01*
X039700Y031364D01*
X039713Y031319D01*
X039723Y031273D01*
X039729Y031227D01*
X039731Y031180D01*
X039729Y031133D01*
X039723Y031087D01*
X039713Y031041D01*
X039700Y030996D01*
X039682Y030953D01*
X039661Y030911D01*
X039637Y030871D01*
X039609Y030834D01*
X039578Y030799D01*
X039544Y030766D01*
X039508Y030737D01*
X039469Y030711D01*
X039428Y030688D01*
X039385Y030669D01*
X039341Y030653D01*
X039296Y030641D01*
X039250Y030633D01*
X039203Y030629D01*
X039157Y030629D01*
X039110Y030633D01*
X039064Y030641D01*
X039019Y030653D01*
X038975Y030669D01*
X038932Y030688D01*
X038891Y030711D01*
X038852Y030737D01*
X038816Y030766D01*
X038782Y030799D01*
X038751Y030834D01*
X038723Y030871D01*
X038699Y030911D01*
X038678Y030953D01*
X038660Y030996D01*
X038647Y031041D01*
X038637Y031087D01*
X038631Y031133D01*
X038629Y031180D01*
X038629Y002180D02*
X038631Y002227D01*
X038637Y002273D01*
X038647Y002319D01*
X038660Y002364D01*
X038678Y002407D01*
X038699Y002449D01*
X038723Y002489D01*
X038751Y002526D01*
X038782Y002561D01*
X038816Y002594D01*
X038852Y002623D01*
X038891Y002649D01*
X038932Y002672D01*
X038975Y002691D01*
X039019Y002707D01*
X039064Y002719D01*
X039110Y002727D01*
X039157Y002731D01*
X039203Y002731D01*
X039250Y002727D01*
X039296Y002719D01*
X039341Y002707D01*
X039385Y002691D01*
X039428Y002672D01*
X039469Y002649D01*
X039508Y002623D01*
X039544Y002594D01*
X039578Y002561D01*
X039609Y002526D01*
X039637Y002489D01*
X039661Y002449D01*
X039682Y002407D01*
X039700Y002364D01*
X039713Y002319D01*
X039723Y002273D01*
X039729Y002227D01*
X039731Y002180D01*
X039729Y002133D01*
X039723Y002087D01*
X039713Y002041D01*
X039700Y001996D01*
X039682Y001953D01*
X039661Y001911D01*
X039637Y001871D01*
X039609Y001834D01*
X039578Y001799D01*
X039544Y001766D01*
X039508Y001737D01*
X039469Y001711D01*
X039428Y001688D01*
X039385Y001669D01*
X039341Y001653D01*
X039296Y001641D01*
X039250Y001633D01*
X039203Y001629D01*
X039157Y001629D01*
X039110Y001633D01*
X039064Y001641D01*
X039019Y001653D01*
X038975Y001669D01*
X038932Y001688D01*
X038891Y001711D01*
X038852Y001737D01*
X038816Y001766D01*
X038782Y001799D01*
X038751Y001834D01*
X038723Y001871D01*
X038699Y001911D01*
X038678Y001953D01*
X038660Y001996D01*
X038647Y002041D01*
X038637Y002087D01*
X038631Y002133D01*
X038629Y002180D01*
D11*
X036580Y002180D02*
X036280Y002180D01*
X036280Y002130D01*
X036080Y002130D01*
X036080Y002180D01*
X035780Y002180D01*
X035780Y002230D01*
X035580Y002230D01*
X035580Y002180D01*
X035280Y002180D01*
X035280Y002130D01*
X035080Y002130D01*
X035080Y002180D01*
X034780Y002180D01*
X034780Y002480D01*
X034780Y003780D01*
X034780Y003880D01*
X034930Y003880D01*
X034930Y003780D01*
X034930Y003680D01*
X035430Y003680D01*
X035430Y003780D01*
X035580Y003780D01*
X035780Y003780D01*
X035780Y002530D01*
X035680Y002630D01*
X035580Y002530D01*
X035580Y003780D01*
X035430Y003780D02*
X035430Y003880D01*
X035930Y003880D01*
X035930Y003780D01*
X035780Y003780D01*
X035930Y003780D02*
X035930Y003680D01*
X036430Y003680D01*
X036430Y003780D01*
X036580Y003780D01*
X036580Y003880D01*
X036430Y003880D01*
X036430Y003780D01*
X036580Y003780D02*
X036580Y002480D01*
X035830Y002480D01*
X035780Y002530D01*
X035580Y002530D02*
X035530Y002480D01*
X034780Y002480D01*
X034780Y003780D02*
X034930Y003780D01*
X034780Y003880D02*
X034780Y004080D01*
X035580Y004080D01*
X035580Y004030D01*
X035780Y004030D01*
X035780Y004080D01*
X036580Y004080D01*
X036580Y003880D01*
X036580Y002480D02*
X036580Y002180D01*
X032980Y002680D02*
X032980Y003680D01*
X031380Y003680D01*
X031380Y002680D01*
X032980Y002680D01*
X032580Y002930D02*
X032180Y003180D01*
X032180Y002930D01*
X032180Y003180D02*
X032180Y003430D01*
X032180Y003180D02*
X032580Y003430D01*
X032580Y002930D01*
X032780Y003180D02*
X032180Y003180D01*
X031930Y003180D01*
X031630Y005180D02*
X031630Y025180D01*
X029680Y025180D01*
X029678Y025136D01*
X029672Y025093D01*
X029663Y025051D01*
X029650Y025009D01*
X029633Y024969D01*
X029613Y024930D01*
X029590Y024893D01*
X029563Y024859D01*
X029534Y024826D01*
X029501Y024797D01*
X029467Y024770D01*
X029430Y024747D01*
X029391Y024727D01*
X029351Y024710D01*
X029309Y024697D01*
X029267Y024688D01*
X029224Y024682D01*
X029180Y024680D01*
X029136Y024682D01*
X029093Y024688D01*
X029051Y024697D01*
X029009Y024710D01*
X028969Y024727D01*
X028930Y024747D01*
X028893Y024770D01*
X028859Y024797D01*
X028826Y024826D01*
X028797Y024859D01*
X028770Y024893D01*
X028747Y024930D01*
X028727Y024969D01*
X028710Y025009D01*
X028697Y025051D01*
X028688Y025093D01*
X028682Y025136D01*
X028680Y025180D01*
X026730Y025180D01*
X026730Y005180D01*
X031630Y005180D01*
X029580Y004080D02*
X029580Y003880D01*
X029580Y003780D01*
X029430Y003780D01*
X029430Y003680D01*
X028930Y003680D01*
X028930Y003780D01*
X028780Y003780D01*
X028780Y002530D01*
X028680Y002630D01*
X028580Y002530D01*
X028580Y003780D01*
X028780Y003780D01*
X028930Y003780D02*
X028930Y003880D01*
X028430Y003880D01*
X028430Y003780D01*
X028580Y003780D01*
X028430Y003780D02*
X028430Y003680D01*
X027930Y003680D01*
X027930Y003780D01*
X027780Y003780D01*
X027780Y003880D01*
X027930Y003880D01*
X027930Y003780D01*
X027780Y003780D02*
X027780Y002480D01*
X027780Y002180D01*
X028080Y002180D01*
X028080Y002130D01*
X028280Y002130D01*
X028280Y002180D01*
X028580Y002180D01*
X028580Y002230D01*
X028780Y002230D01*
X028780Y002180D01*
X029080Y002180D01*
X029080Y002130D01*
X029280Y002130D01*
X029280Y002180D01*
X029580Y002180D01*
X029580Y002480D01*
X029580Y003780D01*
X029580Y003880D02*
X029430Y003880D01*
X029430Y003780D01*
X029580Y004080D02*
X028780Y004080D01*
X028780Y004030D01*
X028580Y004030D01*
X028580Y004080D01*
X027780Y004080D01*
X027780Y003880D01*
X027780Y002480D02*
X028530Y002480D01*
X028580Y002530D01*
X028780Y002530D02*
X028830Y002480D01*
X029580Y002480D01*
X025080Y003180D02*
X025082Y003246D01*
X025088Y003311D01*
X025098Y003376D01*
X025111Y003441D01*
X025129Y003504D01*
X025150Y003567D01*
X025175Y003627D01*
X025204Y003687D01*
X025236Y003744D01*
X025271Y003800D01*
X025310Y003853D01*
X025352Y003904D01*
X025396Y003952D01*
X025444Y003997D01*
X025494Y004040D01*
X025547Y004079D01*
X025602Y004116D01*
X025659Y004149D01*
X025718Y004178D01*
X025778Y004204D01*
X025840Y004226D01*
X025903Y004245D01*
X025967Y004259D01*
X026032Y004270D01*
X026098Y004277D01*
X026164Y004280D01*
X026229Y004279D01*
X026295Y004274D01*
X026360Y004265D01*
X026425Y004252D01*
X026488Y004236D01*
X026551Y004216D01*
X026612Y004191D01*
X026672Y004164D01*
X026730Y004133D01*
X026786Y004098D01*
X026840Y004060D01*
X026891Y004019D01*
X026940Y003975D01*
X026986Y003928D01*
X027030Y003879D01*
X027070Y003827D01*
X027107Y003772D01*
X027141Y003716D01*
X027171Y003657D01*
X027198Y003597D01*
X027221Y003536D01*
X027240Y003473D01*
X027256Y003409D01*
X027268Y003344D01*
X027276Y003279D01*
X027280Y003213D01*
X027280Y003147D01*
X027276Y003081D01*
X027268Y003016D01*
X027256Y002951D01*
X027240Y002887D01*
X027221Y002824D01*
X027198Y002763D01*
X027171Y002703D01*
X027141Y002644D01*
X027107Y002588D01*
X027070Y002533D01*
X027030Y002481D01*
X026986Y002432D01*
X026940Y002385D01*
X026891Y002341D01*
X026840Y002300D01*
X026786Y002262D01*
X026730Y002227D01*
X026672Y002196D01*
X026612Y002169D01*
X026551Y002144D01*
X026488Y002124D01*
X026425Y002108D01*
X026360Y002095D01*
X026295Y002086D01*
X026229Y002081D01*
X026164Y002080D01*
X026098Y002083D01*
X026032Y002090D01*
X025967Y002101D01*
X025903Y002115D01*
X025840Y002134D01*
X025778Y002156D01*
X025718Y002182D01*
X025659Y002211D01*
X025602Y002244D01*
X025547Y002281D01*
X025494Y002320D01*
X025444Y002363D01*
X025396Y002408D01*
X025352Y002456D01*
X025310Y002507D01*
X025271Y002560D01*
X025236Y002616D01*
X025204Y002673D01*
X025175Y002733D01*
X025150Y002793D01*
X025129Y002856D01*
X025111Y002919D01*
X025098Y002984D01*
X025088Y003049D01*
X025082Y003114D01*
X025080Y003180D01*
X025680Y002680D02*
X025680Y002530D01*
X025530Y002530D01*
X025680Y002530D02*
X025830Y002530D01*
X025680Y002530D02*
X025680Y002380D01*
X025080Y005230D02*
X024280Y005230D01*
X024263Y005232D01*
X024246Y005236D01*
X024230Y005243D01*
X024216Y005253D01*
X024203Y005266D01*
X024193Y005280D01*
X024186Y005296D01*
X024182Y005313D01*
X024180Y005330D01*
X024180Y008030D01*
X024182Y008047D01*
X024186Y008064D01*
X024193Y008080D01*
X024203Y008094D01*
X024216Y008107D01*
X024230Y008117D01*
X024246Y008124D01*
X024263Y008128D01*
X024280Y008130D01*
X025080Y008130D01*
X025097Y008128D01*
X025114Y008124D01*
X025130Y008117D01*
X025144Y008107D01*
X025157Y008094D01*
X025167Y008080D01*
X025174Y008064D01*
X025178Y008047D01*
X025180Y008030D01*
X025180Y005330D01*
X025178Y005313D01*
X025174Y005296D01*
X025167Y005280D01*
X025157Y005266D01*
X025144Y005253D01*
X025130Y005243D01*
X025114Y005236D01*
X025097Y005232D01*
X025080Y005230D01*
X024680Y006080D02*
X024680Y006550D01*
X024680Y006800D02*
X024680Y007280D01*
X023180Y008030D02*
X023180Y005330D01*
X023178Y005313D01*
X023174Y005296D01*
X023167Y005280D01*
X023157Y005266D01*
X023144Y005253D01*
X023130Y005243D01*
X023114Y005236D01*
X023097Y005232D01*
X023080Y005230D01*
X022280Y005230D01*
X022263Y005232D01*
X022246Y005236D01*
X022230Y005243D01*
X022216Y005253D01*
X022203Y005266D01*
X022193Y005280D01*
X022186Y005296D01*
X022182Y005313D01*
X022180Y005330D01*
X022180Y008030D01*
X022182Y008047D01*
X022186Y008064D01*
X022193Y008080D01*
X022203Y008094D01*
X022216Y008107D01*
X022230Y008117D01*
X022246Y008124D01*
X022263Y008128D01*
X022280Y008130D01*
X023080Y008130D01*
X023097Y008128D01*
X023114Y008124D01*
X023130Y008117D01*
X023144Y008107D01*
X023157Y008094D01*
X023167Y008080D01*
X023174Y008064D01*
X023178Y008047D01*
X023180Y008030D01*
X022680Y007280D02*
X022680Y006800D01*
X022680Y006550D02*
X022680Y006080D01*
X021680Y005330D02*
X021680Y008030D01*
X021678Y008047D01*
X021674Y008064D01*
X021667Y008080D01*
X021657Y008094D01*
X021644Y008107D01*
X021630Y008117D01*
X021614Y008124D01*
X021597Y008128D01*
X021580Y008130D01*
X020780Y008130D01*
X020763Y008128D01*
X020746Y008124D01*
X020730Y008117D01*
X020716Y008107D01*
X020703Y008094D01*
X020693Y008080D01*
X020686Y008064D01*
X020682Y008047D01*
X020680Y008030D01*
X020680Y005330D01*
X020682Y005313D01*
X020686Y005296D01*
X020693Y005280D01*
X020703Y005266D01*
X020716Y005253D01*
X020730Y005243D01*
X020746Y005236D01*
X020763Y005232D01*
X020780Y005230D01*
X021580Y005230D01*
X021597Y005232D01*
X021614Y005236D01*
X021630Y005243D01*
X021644Y005253D01*
X021657Y005266D01*
X021667Y005280D01*
X021674Y005296D01*
X021678Y005313D01*
X021680Y005330D01*
X021180Y006080D02*
X021180Y006550D01*
X021180Y006800D02*
X021180Y007280D01*
X022780Y009330D02*
X022780Y012030D01*
X022782Y012089D01*
X022788Y012147D01*
X022797Y012206D01*
X022811Y012263D01*
X022828Y012319D01*
X022849Y012374D01*
X022873Y012428D01*
X022901Y012480D01*
X022932Y012530D01*
X022966Y012578D01*
X023003Y012623D01*
X023044Y012666D01*
X023087Y012707D01*
X023132Y012744D01*
X023180Y012778D01*
X023230Y012809D01*
X023282Y012837D01*
X023336Y012861D01*
X023391Y012882D01*
X023447Y012899D01*
X023504Y012913D01*
X023563Y012922D01*
X023621Y012928D01*
X023680Y012930D01*
X023739Y012928D01*
X023797Y012922D01*
X023856Y012913D01*
X023913Y012899D01*
X023969Y012882D01*
X024024Y012861D01*
X024078Y012837D01*
X024130Y012809D01*
X024180Y012778D01*
X024228Y012744D01*
X024273Y012707D01*
X024316Y012666D01*
X024357Y012623D01*
X024394Y012578D01*
X024428Y012530D01*
X024459Y012480D01*
X024487Y012428D01*
X024511Y012374D01*
X024532Y012319D01*
X024549Y012263D01*
X024563Y012206D01*
X024572Y012147D01*
X024578Y012089D01*
X024580Y012030D01*
X024580Y009330D01*
X024578Y009271D01*
X024572Y009213D01*
X024563Y009154D01*
X024549Y009097D01*
X024532Y009041D01*
X024511Y008986D01*
X024487Y008932D01*
X024459Y008880D01*
X024428Y008830D01*
X024394Y008782D01*
X024357Y008737D01*
X024316Y008694D01*
X024273Y008653D01*
X024228Y008616D01*
X024180Y008582D01*
X024130Y008551D01*
X024078Y008523D01*
X024024Y008499D01*
X023969Y008478D01*
X023913Y008461D01*
X023856Y008447D01*
X023797Y008438D01*
X023739Y008432D01*
X023680Y008430D01*
X023621Y008432D01*
X023563Y008438D01*
X023504Y008447D01*
X023447Y008461D01*
X023391Y008478D01*
X023336Y008499D01*
X023282Y008523D01*
X023230Y008551D01*
X023180Y008582D01*
X023132Y008616D01*
X023087Y008653D01*
X023044Y008694D01*
X023003Y008737D01*
X022966Y008782D01*
X022932Y008830D01*
X022901Y008880D01*
X022873Y008932D01*
X022849Y008986D01*
X022828Y009041D01*
X022811Y009097D01*
X022797Y009154D01*
X022788Y009213D01*
X022782Y009271D01*
X022780Y009330D01*
X019580Y013180D02*
X019582Y013246D01*
X019588Y013311D01*
X019598Y013376D01*
X019611Y013441D01*
X019629Y013504D01*
X019650Y013567D01*
X019675Y013627D01*
X019704Y013687D01*
X019736Y013744D01*
X019771Y013800D01*
X019810Y013853D01*
X019852Y013904D01*
X019896Y013952D01*
X019944Y013997D01*
X019994Y014040D01*
X020047Y014079D01*
X020102Y014116D01*
X020159Y014149D01*
X020218Y014178D01*
X020278Y014204D01*
X020340Y014226D01*
X020403Y014245D01*
X020467Y014259D01*
X020532Y014270D01*
X020598Y014277D01*
X020664Y014280D01*
X020729Y014279D01*
X020795Y014274D01*
X020860Y014265D01*
X020925Y014252D01*
X020988Y014236D01*
X021051Y014216D01*
X021112Y014191D01*
X021172Y014164D01*
X021230Y014133D01*
X021286Y014098D01*
X021340Y014060D01*
X021391Y014019D01*
X021440Y013975D01*
X021486Y013928D01*
X021530Y013879D01*
X021570Y013827D01*
X021607Y013772D01*
X021641Y013716D01*
X021671Y013657D01*
X021698Y013597D01*
X021721Y013536D01*
X021740Y013473D01*
X021756Y013409D01*
X021768Y013344D01*
X021776Y013279D01*
X021780Y013213D01*
X021780Y013147D01*
X021776Y013081D01*
X021768Y013016D01*
X021756Y012951D01*
X021740Y012887D01*
X021721Y012824D01*
X021698Y012763D01*
X021671Y012703D01*
X021641Y012644D01*
X021607Y012588D01*
X021570Y012533D01*
X021530Y012481D01*
X021486Y012432D01*
X021440Y012385D01*
X021391Y012341D01*
X021340Y012300D01*
X021286Y012262D01*
X021230Y012227D01*
X021172Y012196D01*
X021112Y012169D01*
X021051Y012144D01*
X020988Y012124D01*
X020925Y012108D01*
X020860Y012095D01*
X020795Y012086D01*
X020729Y012081D01*
X020664Y012080D01*
X020598Y012083D01*
X020532Y012090D01*
X020467Y012101D01*
X020403Y012115D01*
X020340Y012134D01*
X020278Y012156D01*
X020218Y012182D01*
X020159Y012211D01*
X020102Y012244D01*
X020047Y012281D01*
X019994Y012320D01*
X019944Y012363D01*
X019896Y012408D01*
X019852Y012456D01*
X019810Y012507D01*
X019771Y012560D01*
X019736Y012616D01*
X019704Y012673D01*
X019675Y012733D01*
X019650Y012793D01*
X019629Y012856D01*
X019611Y012919D01*
X019598Y012984D01*
X019588Y013049D01*
X019582Y013114D01*
X019580Y013180D01*
X019130Y013280D02*
X019130Y014080D01*
X019128Y014097D01*
X019124Y014114D01*
X019117Y014130D01*
X019107Y014144D01*
X019094Y014157D01*
X019080Y014167D01*
X019064Y014174D01*
X019047Y014178D01*
X019030Y014180D01*
X016330Y014180D01*
X016313Y014178D01*
X016296Y014174D01*
X016280Y014167D01*
X016266Y014157D01*
X016253Y014144D01*
X016243Y014130D01*
X016236Y014114D01*
X016232Y014097D01*
X016230Y014080D01*
X016230Y013280D01*
X016232Y013263D01*
X016236Y013246D01*
X016243Y013230D01*
X016253Y013216D01*
X016266Y013203D01*
X016280Y013193D01*
X016296Y013186D01*
X016313Y013182D01*
X016330Y013180D01*
X019030Y013180D01*
X019047Y013182D01*
X019064Y013186D01*
X019080Y013193D01*
X019094Y013203D01*
X019107Y013216D01*
X019117Y013230D01*
X019124Y013246D01*
X019128Y013263D01*
X019130Y013280D01*
X018280Y013680D02*
X017800Y013680D01*
X017550Y013680D02*
X017080Y013680D01*
X020230Y016030D02*
X020230Y016180D01*
X020280Y016230D01*
X020280Y018130D01*
X020230Y018180D01*
X020230Y018330D01*
X020232Y018347D01*
X020236Y018364D01*
X020243Y018380D01*
X020253Y018394D01*
X020266Y018407D01*
X020280Y018417D01*
X020296Y018424D01*
X020313Y018428D01*
X020330Y018430D01*
X021030Y018430D01*
X021047Y018428D01*
X021064Y018424D01*
X021080Y018417D01*
X021094Y018407D01*
X021107Y018394D01*
X021117Y018380D01*
X021124Y018364D01*
X021128Y018347D01*
X021130Y018330D01*
X021130Y018180D01*
X021080Y018130D01*
X021080Y016230D01*
X021130Y016180D01*
X021130Y016030D01*
X021128Y016013D01*
X021124Y015996D01*
X021117Y015980D01*
X021107Y015966D01*
X021094Y015953D01*
X021080Y015943D01*
X021064Y015936D01*
X021047Y015932D01*
X021030Y015930D01*
X020330Y015930D01*
X020313Y015932D01*
X020296Y015936D01*
X020280Y015943D01*
X020266Y015953D01*
X020253Y015966D01*
X020243Y015980D01*
X020236Y015996D01*
X020232Y016013D01*
X020230Y016030D01*
X022230Y015080D02*
X022230Y014280D01*
X022232Y014263D01*
X022236Y014246D01*
X022243Y014230D01*
X022253Y014216D01*
X022266Y014203D01*
X022280Y014193D01*
X022296Y014186D01*
X022313Y014182D01*
X022330Y014180D01*
X025030Y014180D01*
X025047Y014182D01*
X025064Y014186D01*
X025080Y014193D01*
X025094Y014203D01*
X025107Y014216D01*
X025117Y014230D01*
X025124Y014246D01*
X025128Y014263D01*
X025130Y014280D01*
X025130Y015080D01*
X025128Y015097D01*
X025124Y015114D01*
X025117Y015130D01*
X025107Y015144D01*
X025094Y015157D01*
X025080Y015167D01*
X025064Y015174D01*
X025047Y015178D01*
X025030Y015180D01*
X022330Y015180D01*
X022313Y015178D01*
X022296Y015174D01*
X022280Y015167D01*
X022266Y015157D01*
X022253Y015144D01*
X022243Y015130D01*
X022236Y015114D01*
X022232Y015097D01*
X022230Y015080D01*
X023080Y014680D02*
X023550Y014680D01*
X023800Y014680D02*
X024280Y014680D01*
X021330Y013830D02*
X021180Y013830D01*
X021180Y013680D01*
X021180Y013830D02*
X021030Y013830D01*
X021180Y013830D02*
X021180Y013980D01*
X016930Y016830D02*
X016930Y017530D01*
X016928Y017547D01*
X016924Y017564D01*
X016917Y017580D01*
X016907Y017594D01*
X016894Y017607D01*
X016880Y017617D01*
X016864Y017624D01*
X016847Y017628D01*
X016830Y017630D01*
X016680Y017630D01*
X016630Y017580D01*
X014730Y017580D01*
X014680Y017630D01*
X014530Y017630D01*
X014513Y017628D01*
X014496Y017624D01*
X014480Y017617D01*
X014466Y017607D01*
X014453Y017594D01*
X014443Y017580D01*
X014436Y017564D01*
X014432Y017547D01*
X014430Y017530D01*
X014430Y016830D01*
X014432Y016813D01*
X014436Y016796D01*
X014443Y016780D01*
X014453Y016766D01*
X014466Y016753D01*
X014480Y016743D01*
X014496Y016736D01*
X014513Y016732D01*
X014530Y016730D01*
X014680Y016730D01*
X014730Y016780D01*
X016630Y016780D01*
X016680Y016730D01*
X016830Y016730D01*
X016847Y016732D01*
X016864Y016736D01*
X016880Y016743D01*
X016894Y016753D01*
X016907Y016766D01*
X016917Y016780D01*
X016924Y016796D01*
X016928Y016813D01*
X016930Y016830D01*
X015130Y018280D02*
X015130Y019080D01*
X015128Y019097D01*
X015124Y019114D01*
X015117Y019130D01*
X015107Y019144D01*
X015094Y019157D01*
X015080Y019167D01*
X015064Y019174D01*
X015047Y019178D01*
X015030Y019180D01*
X012330Y019180D01*
X012313Y019178D01*
X012296Y019174D01*
X012280Y019167D01*
X012266Y019157D01*
X012253Y019144D01*
X012243Y019130D01*
X012236Y019114D01*
X012232Y019097D01*
X012230Y019080D01*
X012230Y018280D01*
X012232Y018263D01*
X012236Y018246D01*
X012243Y018230D01*
X012253Y018216D01*
X012266Y018203D01*
X012280Y018193D01*
X012296Y018186D01*
X012313Y018182D01*
X012330Y018180D01*
X015030Y018180D01*
X015047Y018182D01*
X015064Y018186D01*
X015080Y018193D01*
X015094Y018203D01*
X015107Y018216D01*
X015117Y018230D01*
X015124Y018246D01*
X015128Y018263D01*
X015130Y018280D01*
X014280Y018680D02*
X013800Y018680D01*
X013550Y018680D02*
X013080Y018680D01*
X011630Y017830D02*
X011630Y017680D01*
X011580Y017630D01*
X011580Y015730D01*
X011630Y015680D01*
X011630Y015530D01*
X011628Y015513D01*
X011624Y015496D01*
X011617Y015480D01*
X011607Y015466D01*
X011594Y015453D01*
X011580Y015443D01*
X011564Y015436D01*
X011547Y015432D01*
X011530Y015430D01*
X010830Y015430D01*
X010813Y015432D01*
X010796Y015436D01*
X010780Y015443D01*
X010766Y015453D01*
X010753Y015466D01*
X010743Y015480D01*
X010736Y015496D01*
X010732Y015513D01*
X010730Y015530D01*
X010730Y015680D01*
X010780Y015730D01*
X010780Y017630D01*
X010730Y017680D01*
X010730Y017830D01*
X010732Y017847D01*
X010736Y017864D01*
X010743Y017880D01*
X010753Y017894D01*
X010766Y017907D01*
X010780Y017917D01*
X010796Y017924D01*
X010813Y017928D01*
X010830Y017930D01*
X011530Y017930D01*
X011547Y017928D01*
X011564Y017924D01*
X011580Y017917D01*
X011594Y017907D01*
X011607Y017894D01*
X011617Y017880D01*
X011624Y017864D01*
X011628Y017847D01*
X011630Y017830D01*
X011680Y021030D02*
X011680Y023330D01*
X001680Y023330D01*
X001680Y022580D01*
X001719Y022578D01*
X001758Y022572D01*
X001796Y022563D01*
X001833Y022550D01*
X001869Y022533D01*
X001902Y022513D01*
X001934Y022489D01*
X001963Y022463D01*
X001989Y022434D01*
X002013Y022402D01*
X002033Y022369D01*
X002050Y022333D01*
X002063Y022296D01*
X002072Y022258D01*
X002078Y022219D01*
X002080Y022180D01*
X002078Y022141D01*
X002072Y022102D01*
X002063Y022064D01*
X002050Y022027D01*
X002033Y021991D01*
X002013Y021958D01*
X001989Y021926D01*
X001963Y021897D01*
X001934Y021871D01*
X001902Y021847D01*
X001869Y021827D01*
X001833Y021810D01*
X001796Y021797D01*
X001758Y021788D01*
X001719Y021782D01*
X001680Y021780D01*
X001680Y021030D01*
X011680Y021030D01*
X013180Y021030D02*
X013180Y021780D01*
X013219Y021782D01*
X013258Y021788D01*
X013296Y021797D01*
X013333Y021810D01*
X013369Y021827D01*
X013402Y021847D01*
X013434Y021871D01*
X013463Y021897D01*
X013489Y021926D01*
X013513Y021958D01*
X013533Y021991D01*
X013550Y022027D01*
X013563Y022064D01*
X013572Y022102D01*
X013578Y022141D01*
X013580Y022180D01*
X013578Y022219D01*
X013572Y022258D01*
X013563Y022296D01*
X013550Y022333D01*
X013533Y022369D01*
X013513Y022402D01*
X013489Y022434D01*
X013463Y022463D01*
X013434Y022489D01*
X013402Y022513D01*
X013369Y022533D01*
X013333Y022550D01*
X013296Y022563D01*
X013258Y022572D01*
X013219Y022578D01*
X013180Y022580D01*
X013180Y023330D01*
X023180Y023330D01*
X023180Y021030D01*
X013180Y021030D01*
X012530Y025430D02*
X011830Y025430D01*
X011813Y025432D01*
X011796Y025436D01*
X011780Y025443D01*
X011766Y025453D01*
X011753Y025466D01*
X011743Y025480D01*
X011736Y025496D01*
X011732Y025513D01*
X011730Y025530D01*
X011730Y025680D01*
X011780Y025730D01*
X011780Y027630D01*
X011730Y027680D01*
X011730Y027830D01*
X011732Y027847D01*
X011736Y027864D01*
X011743Y027880D01*
X011753Y027894D01*
X011766Y027907D01*
X011780Y027917D01*
X011796Y027924D01*
X011813Y027928D01*
X011830Y027930D01*
X012530Y027930D01*
X012547Y027928D01*
X012564Y027924D01*
X012580Y027917D01*
X012594Y027907D01*
X012607Y027894D01*
X012617Y027880D01*
X012624Y027864D01*
X012628Y027847D01*
X012630Y027830D01*
X012630Y027680D01*
X012580Y027630D01*
X012580Y025730D01*
X012630Y025680D01*
X012630Y025530D01*
X012628Y025513D01*
X012624Y025496D01*
X012617Y025480D01*
X012607Y025466D01*
X012594Y025453D01*
X012580Y025443D01*
X012564Y025436D01*
X012547Y025432D01*
X012530Y025430D01*
X011630Y025530D02*
X011630Y025680D01*
X011580Y025730D01*
X011580Y027630D01*
X011630Y027680D01*
X011630Y027830D01*
X011628Y027847D01*
X011624Y027864D01*
X011617Y027880D01*
X011607Y027894D01*
X011594Y027907D01*
X011580Y027917D01*
X011564Y027924D01*
X011547Y027928D01*
X011530Y027930D01*
X010830Y027930D01*
X010813Y027928D01*
X010796Y027924D01*
X010780Y027917D01*
X010766Y027907D01*
X010753Y027894D01*
X010743Y027880D01*
X010736Y027864D01*
X010732Y027847D01*
X010730Y027830D01*
X010730Y027680D01*
X010780Y027630D01*
X010780Y025730D01*
X010730Y025680D01*
X010730Y025530D01*
X010630Y025530D02*
X010630Y025680D01*
X010580Y025730D01*
X010580Y027630D01*
X010630Y027680D01*
X010630Y027830D01*
X010628Y027847D01*
X010624Y027864D01*
X010617Y027880D01*
X010607Y027894D01*
X010594Y027907D01*
X010580Y027917D01*
X010564Y027924D01*
X010547Y027928D01*
X010530Y027930D01*
X009830Y027930D01*
X009813Y027928D01*
X009796Y027924D01*
X009780Y027917D01*
X009766Y027907D01*
X009753Y027894D01*
X009743Y027880D01*
X009736Y027864D01*
X009732Y027847D01*
X009730Y027830D01*
X009730Y027680D01*
X009780Y027630D01*
X009780Y025730D01*
X009730Y025680D01*
X009730Y025530D01*
X009732Y025513D01*
X009736Y025496D01*
X009743Y025480D01*
X009753Y025466D01*
X009766Y025453D01*
X009780Y025443D01*
X009796Y025436D01*
X009813Y025432D01*
X009830Y025430D01*
X010530Y025430D01*
X010547Y025432D01*
X010564Y025436D01*
X010580Y025443D01*
X010594Y025453D01*
X010607Y025466D01*
X010617Y025480D01*
X010624Y025496D01*
X010628Y025513D01*
X010630Y025530D01*
X010730Y025530D02*
X010732Y025513D01*
X010736Y025496D01*
X010743Y025480D01*
X010753Y025466D01*
X010766Y025453D01*
X010780Y025443D01*
X010796Y025436D01*
X010813Y025432D01*
X010830Y025430D01*
X011530Y025430D01*
X011547Y025432D01*
X011564Y025436D01*
X011580Y025443D01*
X011594Y025453D01*
X011607Y025466D01*
X011617Y025480D01*
X011624Y025496D01*
X011628Y025513D01*
X011630Y025530D01*
X009630Y025530D02*
X009630Y025680D01*
X009580Y025730D01*
X009580Y027630D01*
X009630Y027680D01*
X009630Y027830D01*
X009628Y027847D01*
X009624Y027864D01*
X009617Y027880D01*
X009607Y027894D01*
X009594Y027907D01*
X009580Y027917D01*
X009564Y027924D01*
X009547Y027928D01*
X009530Y027930D01*
X008830Y027930D01*
X008813Y027928D01*
X008796Y027924D01*
X008780Y027917D01*
X008766Y027907D01*
X008753Y027894D01*
X008743Y027880D01*
X008736Y027864D01*
X008732Y027847D01*
X008730Y027830D01*
X008730Y027680D01*
X008780Y027630D01*
X008780Y025730D01*
X008730Y025680D01*
X008730Y025530D01*
X008732Y025513D01*
X008736Y025496D01*
X008743Y025480D01*
X008753Y025466D01*
X008766Y025453D01*
X008780Y025443D01*
X008796Y025436D01*
X008813Y025432D01*
X008830Y025430D01*
X009530Y025430D01*
X009547Y025432D01*
X009564Y025436D01*
X009580Y025443D01*
X009594Y025453D01*
X009607Y025466D01*
X009617Y025480D01*
X009624Y025496D01*
X009628Y025513D01*
X009630Y025530D01*
X008630Y025530D02*
X008630Y025680D01*
X008580Y025730D01*
X008580Y027630D01*
X008630Y027680D01*
X008630Y027830D01*
X008628Y027847D01*
X008624Y027864D01*
X008617Y027880D01*
X008607Y027894D01*
X008594Y027907D01*
X008580Y027917D01*
X008564Y027924D01*
X008547Y027928D01*
X008530Y027930D01*
X007830Y027930D01*
X007813Y027928D01*
X007796Y027924D01*
X007780Y027917D01*
X007766Y027907D01*
X007753Y027894D01*
X007743Y027880D01*
X007736Y027864D01*
X007732Y027847D01*
X007730Y027830D01*
X007730Y027680D01*
X007780Y027630D01*
X007780Y025730D01*
X007730Y025680D01*
X007730Y025530D01*
X007732Y025513D01*
X007736Y025496D01*
X007743Y025480D01*
X007753Y025466D01*
X007766Y025453D01*
X007780Y025443D01*
X007796Y025436D01*
X007813Y025432D01*
X007830Y025430D01*
X008530Y025430D01*
X008547Y025432D01*
X008564Y025436D01*
X008580Y025443D01*
X008594Y025453D01*
X008607Y025466D01*
X008617Y025480D01*
X008624Y025496D01*
X008628Y025513D01*
X008630Y025530D01*
X007630Y025530D02*
X007630Y025680D01*
X007580Y025730D01*
X007580Y027630D01*
X007630Y027680D01*
X007630Y027830D01*
X007628Y027847D01*
X007624Y027864D01*
X007617Y027880D01*
X007607Y027894D01*
X007594Y027907D01*
X007580Y027917D01*
X007564Y027924D01*
X007547Y027928D01*
X007530Y027930D01*
X006830Y027930D01*
X006813Y027928D01*
X006796Y027924D01*
X006780Y027917D01*
X006766Y027907D01*
X006753Y027894D01*
X006743Y027880D01*
X006736Y027864D01*
X006732Y027847D01*
X006730Y027830D01*
X006730Y027680D01*
X006780Y027630D01*
X006780Y025730D01*
X006730Y025680D01*
X006730Y025530D01*
X006732Y025513D01*
X006736Y025496D01*
X006743Y025480D01*
X006753Y025466D01*
X006766Y025453D01*
X006780Y025443D01*
X006796Y025436D01*
X006813Y025432D01*
X006830Y025430D01*
X007530Y025430D01*
X007547Y025432D01*
X007564Y025436D01*
X007580Y025443D01*
X007594Y025453D01*
X007607Y025466D01*
X007617Y025480D01*
X007624Y025496D01*
X007628Y025513D01*
X007630Y025530D01*
X006630Y025530D02*
X006630Y025680D01*
X006580Y025730D01*
X006580Y027630D01*
X006630Y027680D01*
X006630Y027830D01*
X006628Y027847D01*
X006624Y027864D01*
X006617Y027880D01*
X006607Y027894D01*
X006594Y027907D01*
X006580Y027917D01*
X006564Y027924D01*
X006547Y027928D01*
X006530Y027930D01*
X005830Y027930D01*
X005813Y027928D01*
X005796Y027924D01*
X005780Y027917D01*
X005766Y027907D01*
X005753Y027894D01*
X005743Y027880D01*
X005736Y027864D01*
X005732Y027847D01*
X005730Y027830D01*
X005730Y027680D01*
X005780Y027630D01*
X005780Y025730D01*
X005730Y025680D01*
X005730Y025530D01*
X005630Y025530D02*
X005630Y025680D01*
X005580Y025730D01*
X005580Y027630D01*
X005630Y027680D01*
X005630Y027830D01*
X005628Y027847D01*
X005624Y027864D01*
X005617Y027880D01*
X005607Y027894D01*
X005594Y027907D01*
X005580Y027917D01*
X005564Y027924D01*
X005547Y027928D01*
X005530Y027930D01*
X004830Y027930D01*
X004813Y027928D01*
X004796Y027924D01*
X004780Y027917D01*
X004766Y027907D01*
X004753Y027894D01*
X004743Y027880D01*
X004736Y027864D01*
X004732Y027847D01*
X004730Y027830D01*
X004730Y027680D01*
X004780Y027630D01*
X004780Y025730D01*
X004730Y025680D01*
X004730Y025530D01*
X004732Y025513D01*
X004736Y025496D01*
X004743Y025480D01*
X004753Y025466D01*
X004766Y025453D01*
X004780Y025443D01*
X004796Y025436D01*
X004813Y025432D01*
X004830Y025430D01*
X005530Y025430D01*
X005547Y025432D01*
X005564Y025436D01*
X005580Y025443D01*
X005594Y025453D01*
X005607Y025466D01*
X005617Y025480D01*
X005624Y025496D01*
X005628Y025513D01*
X005630Y025530D01*
X005730Y025530D02*
X005732Y025513D01*
X005736Y025496D01*
X005743Y025480D01*
X005753Y025466D01*
X005766Y025453D01*
X005780Y025443D01*
X005796Y025436D01*
X005813Y025432D01*
X005830Y025430D01*
X006530Y025430D01*
X006547Y025432D01*
X006564Y025436D01*
X006580Y025443D01*
X006594Y025453D01*
X006607Y025466D01*
X006617Y025480D01*
X006624Y025496D01*
X006628Y025513D01*
X006630Y025530D01*
X006430Y029180D02*
X005930Y029180D01*
X005680Y029430D01*
X005430Y029180D01*
X004930Y029180D01*
X004680Y029430D01*
X004680Y030930D01*
X004930Y031180D01*
X005430Y031180D01*
X005680Y030930D01*
X005930Y031180D01*
X006430Y031180D01*
X006680Y030930D01*
X006930Y031180D01*
X007430Y031180D01*
X007680Y030930D01*
X007930Y031180D01*
X008430Y031180D01*
X008680Y030930D01*
X008930Y031180D01*
X009430Y031180D01*
X009680Y030930D01*
X009930Y031180D01*
X010430Y031180D01*
X010680Y030930D01*
X010930Y031180D01*
X011430Y031180D01*
X011680Y030930D01*
X011930Y031180D01*
X012430Y031180D01*
X012680Y030930D01*
X012680Y029430D01*
X012430Y029180D01*
X011930Y029180D01*
X011680Y029430D01*
X011430Y029180D01*
X010930Y029180D01*
X010680Y029430D01*
X010430Y029180D01*
X009930Y029180D01*
X009680Y029430D01*
X009430Y029180D01*
X008930Y029180D01*
X008680Y029430D01*
X008430Y029180D01*
X007930Y029180D01*
X007680Y029430D01*
X007430Y029180D01*
X006930Y029180D01*
X006680Y029430D01*
X006430Y029180D01*
X016180Y029430D02*
X016430Y029180D01*
X016930Y029180D01*
X017180Y029430D01*
X017430Y029180D01*
X017930Y029180D01*
X018180Y029430D01*
X018430Y029180D01*
X018930Y029180D01*
X019180Y029430D01*
X019430Y029180D01*
X019930Y029180D01*
X020180Y029430D01*
X020430Y029180D01*
X020930Y029180D01*
X021180Y029430D01*
X021430Y029180D01*
X021930Y029180D01*
X022180Y029430D01*
X022430Y029180D01*
X022930Y029180D01*
X023180Y029430D01*
X023430Y029180D01*
X023930Y029180D01*
X024180Y029430D01*
X024180Y030930D01*
X023930Y031180D01*
X023430Y031180D01*
X023180Y030930D01*
X022930Y031180D01*
X022430Y031180D01*
X022180Y030930D01*
X021930Y031180D01*
X021430Y031180D01*
X021180Y030930D01*
X020930Y031180D01*
X020430Y031180D01*
X020180Y030930D01*
X019930Y031180D01*
X019430Y031180D01*
X019180Y030930D01*
X018930Y031180D01*
X018430Y031180D01*
X018180Y030930D01*
X017930Y031180D01*
X017430Y031180D01*
X017180Y030930D01*
X016930Y031180D01*
X016430Y031180D01*
X016180Y030930D01*
X016180Y029430D01*
X016330Y027930D02*
X017030Y027930D01*
X017047Y027928D01*
X017064Y027924D01*
X017080Y027917D01*
X017094Y027907D01*
X017107Y027894D01*
X017117Y027880D01*
X017124Y027864D01*
X017128Y027847D01*
X017130Y027830D01*
X017130Y027680D01*
X017080Y027630D01*
X017080Y025730D01*
X017130Y025680D01*
X017130Y025530D01*
X017128Y025513D01*
X017124Y025496D01*
X017117Y025480D01*
X017107Y025466D01*
X017094Y025453D01*
X017080Y025443D01*
X017064Y025436D01*
X017047Y025432D01*
X017030Y025430D01*
X016330Y025430D01*
X016313Y025432D01*
X016296Y025436D01*
X016280Y025443D01*
X016266Y025453D01*
X016253Y025466D01*
X016243Y025480D01*
X016236Y025496D01*
X016232Y025513D01*
X016230Y025530D01*
X016230Y025680D01*
X016280Y025730D01*
X016280Y027630D01*
X016230Y027680D01*
X016230Y027830D01*
X016232Y027847D01*
X016236Y027864D01*
X016243Y027880D01*
X016253Y027894D01*
X016266Y027907D01*
X016280Y027917D01*
X016296Y027924D01*
X016313Y027928D01*
X016330Y027930D01*
X017230Y027830D02*
X017230Y027680D01*
X017280Y027630D01*
X017280Y025730D01*
X017230Y025680D01*
X017230Y025530D01*
X017232Y025513D01*
X017236Y025496D01*
X017243Y025480D01*
X017253Y025466D01*
X017266Y025453D01*
X017280Y025443D01*
X017296Y025436D01*
X017313Y025432D01*
X017330Y025430D01*
X018030Y025430D01*
X018047Y025432D01*
X018064Y025436D01*
X018080Y025443D01*
X018094Y025453D01*
X018107Y025466D01*
X018117Y025480D01*
X018124Y025496D01*
X018128Y025513D01*
X018130Y025530D01*
X018130Y025680D01*
X018080Y025730D01*
X018080Y027630D01*
X018130Y027680D01*
X018130Y027830D01*
X018128Y027847D01*
X018124Y027864D01*
X018117Y027880D01*
X018107Y027894D01*
X018094Y027907D01*
X018080Y027917D01*
X018064Y027924D01*
X018047Y027928D01*
X018030Y027930D01*
X017330Y027930D01*
X017313Y027928D01*
X017296Y027924D01*
X017280Y027917D01*
X017266Y027907D01*
X017253Y027894D01*
X017243Y027880D01*
X017236Y027864D01*
X017232Y027847D01*
X017230Y027830D01*
X018230Y027830D02*
X018230Y027680D01*
X018280Y027630D01*
X018280Y025730D01*
X018230Y025680D01*
X018230Y025530D01*
X018232Y025513D01*
X018236Y025496D01*
X018243Y025480D01*
X018253Y025466D01*
X018266Y025453D01*
X018280Y025443D01*
X018296Y025436D01*
X018313Y025432D01*
X018330Y025430D01*
X019030Y025430D01*
X019047Y025432D01*
X019064Y025436D01*
X019080Y025443D01*
X019094Y025453D01*
X019107Y025466D01*
X019117Y025480D01*
X019124Y025496D01*
X019128Y025513D01*
X019130Y025530D01*
X019130Y025680D01*
X019080Y025730D01*
X019080Y027630D01*
X019130Y027680D01*
X019130Y027830D01*
X019128Y027847D01*
X019124Y027864D01*
X019117Y027880D01*
X019107Y027894D01*
X019094Y027907D01*
X019080Y027917D01*
X019064Y027924D01*
X019047Y027928D01*
X019030Y027930D01*
X018330Y027930D01*
X018313Y027928D01*
X018296Y027924D01*
X018280Y027917D01*
X018266Y027907D01*
X018253Y027894D01*
X018243Y027880D01*
X018236Y027864D01*
X018232Y027847D01*
X018230Y027830D01*
X019230Y027830D02*
X019230Y027680D01*
X019280Y027630D01*
X019280Y025730D01*
X019230Y025680D01*
X019230Y025530D01*
X019232Y025513D01*
X019236Y025496D01*
X019243Y025480D01*
X019253Y025466D01*
X019266Y025453D01*
X019280Y025443D01*
X019296Y025436D01*
X019313Y025432D01*
X019330Y025430D01*
X020030Y025430D01*
X020047Y025432D01*
X020064Y025436D01*
X020080Y025443D01*
X020094Y025453D01*
X020107Y025466D01*
X020117Y025480D01*
X020124Y025496D01*
X020128Y025513D01*
X020130Y025530D01*
X020130Y025680D01*
X020080Y025730D01*
X020080Y027630D01*
X020130Y027680D01*
X020130Y027830D01*
X020128Y027847D01*
X020124Y027864D01*
X020117Y027880D01*
X020107Y027894D01*
X020094Y027907D01*
X020080Y027917D01*
X020064Y027924D01*
X020047Y027928D01*
X020030Y027930D01*
X019330Y027930D01*
X019313Y027928D01*
X019296Y027924D01*
X019280Y027917D01*
X019266Y027907D01*
X019253Y027894D01*
X019243Y027880D01*
X019236Y027864D01*
X019232Y027847D01*
X019230Y027830D01*
X020230Y027830D02*
X020230Y027680D01*
X020280Y027630D01*
X020280Y025730D01*
X020230Y025680D01*
X020230Y025530D01*
X020232Y025513D01*
X020236Y025496D01*
X020243Y025480D01*
X020253Y025466D01*
X020266Y025453D01*
X020280Y025443D01*
X020296Y025436D01*
X020313Y025432D01*
X020330Y025430D01*
X021030Y025430D01*
X021047Y025432D01*
X021064Y025436D01*
X021080Y025443D01*
X021094Y025453D01*
X021107Y025466D01*
X021117Y025480D01*
X021124Y025496D01*
X021128Y025513D01*
X021130Y025530D01*
X021130Y025680D01*
X021080Y025730D01*
X021080Y027630D01*
X021130Y027680D01*
X021130Y027830D01*
X021230Y027830D02*
X021230Y027680D01*
X021280Y027630D01*
X021280Y025730D01*
X021230Y025680D01*
X021230Y025530D01*
X021232Y025513D01*
X021236Y025496D01*
X021243Y025480D01*
X021253Y025466D01*
X021266Y025453D01*
X021280Y025443D01*
X021296Y025436D01*
X021313Y025432D01*
X021330Y025430D01*
X022030Y025430D01*
X022047Y025432D01*
X022064Y025436D01*
X022080Y025443D01*
X022094Y025453D01*
X022107Y025466D01*
X022117Y025480D01*
X022124Y025496D01*
X022128Y025513D01*
X022130Y025530D01*
X022130Y025680D01*
X022080Y025730D01*
X022080Y027630D01*
X022130Y027680D01*
X022130Y027830D01*
X022128Y027847D01*
X022124Y027864D01*
X022117Y027880D01*
X022107Y027894D01*
X022094Y027907D01*
X022080Y027917D01*
X022064Y027924D01*
X022047Y027928D01*
X022030Y027930D01*
X021330Y027930D01*
X021313Y027928D01*
X021296Y027924D01*
X021280Y027917D01*
X021266Y027907D01*
X021253Y027894D01*
X021243Y027880D01*
X021236Y027864D01*
X021232Y027847D01*
X021230Y027830D01*
X021130Y027830D02*
X021128Y027847D01*
X021124Y027864D01*
X021117Y027880D01*
X021107Y027894D01*
X021094Y027907D01*
X021080Y027917D01*
X021064Y027924D01*
X021047Y027928D01*
X021030Y027930D01*
X020330Y027930D01*
X020313Y027928D01*
X020296Y027924D01*
X020280Y027917D01*
X020266Y027907D01*
X020253Y027894D01*
X020243Y027880D01*
X020236Y027864D01*
X020232Y027847D01*
X020230Y027830D01*
X022230Y027830D02*
X022230Y027680D01*
X022280Y027630D01*
X022280Y025730D01*
X022230Y025680D01*
X022230Y025530D01*
X022232Y025513D01*
X022236Y025496D01*
X022243Y025480D01*
X022253Y025466D01*
X022266Y025453D01*
X022280Y025443D01*
X022296Y025436D01*
X022313Y025432D01*
X022330Y025430D01*
X023030Y025430D01*
X023047Y025432D01*
X023064Y025436D01*
X023080Y025443D01*
X023094Y025453D01*
X023107Y025466D01*
X023117Y025480D01*
X023124Y025496D01*
X023128Y025513D01*
X023130Y025530D01*
X023130Y025680D01*
X023080Y025730D01*
X023080Y027630D01*
X023130Y027680D01*
X023130Y027830D01*
X023128Y027847D01*
X023124Y027864D01*
X023117Y027880D01*
X023107Y027894D01*
X023094Y027907D01*
X023080Y027917D01*
X023064Y027924D01*
X023047Y027928D01*
X023030Y027930D01*
X022330Y027930D01*
X022313Y027928D01*
X022296Y027924D01*
X022280Y027917D01*
X022266Y027907D01*
X022253Y027894D01*
X022243Y027880D01*
X022236Y027864D01*
X022232Y027847D01*
X022230Y027830D01*
X023230Y027830D02*
X023230Y027680D01*
X023280Y027630D01*
X023280Y025730D01*
X023230Y025680D01*
X023230Y025530D01*
X023232Y025513D01*
X023236Y025496D01*
X023243Y025480D01*
X023253Y025466D01*
X023266Y025453D01*
X023280Y025443D01*
X023296Y025436D01*
X023313Y025432D01*
X023330Y025430D01*
X024030Y025430D01*
X024047Y025432D01*
X024064Y025436D01*
X024080Y025443D01*
X024094Y025453D01*
X024107Y025466D01*
X024117Y025480D01*
X024124Y025496D01*
X024128Y025513D01*
X024130Y025530D01*
X024130Y025680D01*
X024080Y025730D01*
X024080Y027630D01*
X024130Y027680D01*
X024130Y027830D01*
X024128Y027847D01*
X024124Y027864D01*
X024117Y027880D01*
X024107Y027894D01*
X024094Y027907D01*
X024080Y027917D01*
X024064Y027924D01*
X024047Y027928D01*
X024030Y027930D01*
X023330Y027930D01*
X023313Y027928D01*
X023296Y027924D01*
X023280Y027917D01*
X023266Y027907D01*
X023253Y027894D01*
X023243Y027880D01*
X023236Y027864D01*
X023232Y027847D01*
X023230Y027830D01*
X024730Y027680D02*
X024780Y027730D01*
X024780Y029630D01*
X024730Y029680D01*
X024730Y029830D01*
X024732Y029847D01*
X024736Y029864D01*
X024743Y029880D01*
X024753Y029894D01*
X024766Y029907D01*
X024780Y029917D01*
X024796Y029924D01*
X024813Y029928D01*
X024830Y029930D01*
X025530Y029930D01*
X025547Y029928D01*
X025564Y029924D01*
X025580Y029917D01*
X025594Y029907D01*
X025607Y029894D01*
X025617Y029880D01*
X025624Y029864D01*
X025628Y029847D01*
X025630Y029830D01*
X025630Y029680D01*
X025580Y029630D01*
X025580Y027730D01*
X025630Y027680D01*
X025630Y027530D01*
X025628Y027513D01*
X025624Y027496D01*
X025617Y027480D01*
X025607Y027466D01*
X025594Y027453D01*
X025580Y027443D01*
X025564Y027436D01*
X025547Y027432D01*
X025530Y027430D01*
X024830Y027430D01*
X024813Y027432D01*
X024796Y027436D01*
X024780Y027443D01*
X024766Y027453D01*
X024753Y027466D01*
X024743Y027480D01*
X024736Y027496D01*
X024732Y027513D01*
X024730Y027530D01*
X024730Y027680D01*
X026280Y028030D02*
X026280Y030480D01*
X026580Y030480D01*
X026580Y031080D01*
X026630Y031330D01*
X026730Y031330D01*
X026780Y031080D01*
X026780Y030480D01*
X027030Y030480D01*
X027080Y030480D01*
X027080Y028130D01*
X027280Y028130D01*
X027280Y028030D01*
X027280Y028130D02*
X027280Y030480D01*
X027330Y030480D01*
X027580Y030480D01*
X027580Y031080D01*
X027630Y031330D01*
X027730Y031330D01*
X027780Y031080D01*
X027780Y030480D01*
X028080Y030480D01*
X028280Y030480D01*
X029080Y030480D01*
X029280Y030480D01*
X030030Y030480D01*
X030080Y030480D01*
X030180Y030480D01*
X030280Y030480D01*
X030580Y030480D01*
X030780Y030480D01*
X031080Y030480D01*
X031080Y028030D01*
X030280Y028030D02*
X030280Y028130D01*
X030280Y030480D01*
X030330Y030480D02*
X030330Y031530D01*
X031080Y031530D01*
X031080Y030480D01*
X030780Y030480D02*
X030780Y031080D01*
X030580Y031080D01*
X030580Y030480D01*
X030180Y030480D02*
X030180Y031380D01*
X030330Y031530D01*
X030180Y031380D02*
X030030Y031530D01*
X030030Y030480D01*
X030080Y030480D02*
X030080Y028130D01*
X030280Y028130D01*
X030080Y028130D02*
X030080Y028030D01*
X029280Y028030D02*
X029280Y028130D01*
X029280Y030480D01*
X029080Y030480D02*
X029080Y028130D01*
X029280Y028130D01*
X029080Y028130D02*
X029080Y028030D01*
X028280Y028030D02*
X028280Y028130D01*
X028280Y030480D01*
X028080Y030480D02*
X028080Y028130D01*
X028280Y028130D01*
X028080Y028130D02*
X028080Y028030D01*
X027080Y028030D02*
X027080Y028130D01*
X028930Y027030D02*
X028930Y026330D01*
X028932Y026313D01*
X028936Y026296D01*
X028943Y026280D01*
X028953Y026266D01*
X028966Y026253D01*
X028980Y026243D01*
X028996Y026236D01*
X029013Y026232D01*
X029030Y026230D01*
X029180Y026230D01*
X029230Y026280D01*
X031130Y026280D01*
X031180Y026230D01*
X031330Y026230D01*
X031347Y026232D01*
X031364Y026236D01*
X031380Y026243D01*
X031394Y026253D01*
X031407Y026266D01*
X031417Y026280D01*
X031424Y026296D01*
X031428Y026313D01*
X031430Y026330D01*
X031430Y027030D01*
X031428Y027047D01*
X031424Y027064D01*
X031417Y027080D01*
X031407Y027094D01*
X031394Y027107D01*
X031380Y027117D01*
X031364Y027124D01*
X031347Y027128D01*
X031330Y027130D01*
X031180Y027130D01*
X031130Y027080D01*
X029230Y027080D01*
X029180Y027130D01*
X029030Y027130D01*
X029013Y027128D01*
X028996Y027124D01*
X028980Y027117D01*
X028966Y027107D01*
X028953Y027094D01*
X028943Y027080D01*
X028936Y027064D01*
X028932Y027047D01*
X028930Y027030D01*
X028780Y030480D02*
X028780Y031080D01*
X028580Y031080D01*
X028580Y030480D01*
X028580Y031080D02*
X028630Y031330D01*
X028730Y031330D01*
X028780Y031080D01*
X029580Y031080D02*
X029580Y030480D01*
X029780Y030480D02*
X029780Y031080D01*
X029580Y031080D01*
X029630Y031330D01*
X029730Y031330D01*
X029780Y031080D01*
X030030Y031530D02*
X027330Y031530D01*
X027330Y030480D01*
X027280Y030480D02*
X027180Y030480D01*
X027080Y030480D01*
X027030Y030480D02*
X027030Y031530D01*
X027180Y031380D01*
X027180Y030480D01*
X026780Y030480D02*
X026580Y030480D01*
X026280Y030480D02*
X026280Y031530D01*
X027030Y031530D01*
X027180Y031380D02*
X027330Y031530D01*
X027580Y031080D02*
X027780Y031080D01*
X027780Y030480D02*
X027580Y030480D01*
X026780Y031080D02*
X026580Y031080D01*
X026280Y031530D02*
X026280Y031630D01*
X031080Y031630D01*
X031080Y031530D01*
X030730Y031330D02*
X030780Y031080D01*
X030580Y031080D02*
X030630Y031330D01*
X030730Y031330D01*
X035530Y020130D02*
X035680Y020130D01*
X035730Y020080D01*
X037630Y020080D01*
X037680Y020130D01*
X037830Y020130D01*
X037847Y020128D01*
X037864Y020124D01*
X037880Y020117D01*
X037894Y020107D01*
X037907Y020094D01*
X037917Y020080D01*
X037924Y020064D01*
X037928Y020047D01*
X037930Y020030D01*
X037930Y019330D01*
X037928Y019313D01*
X037924Y019296D01*
X037917Y019280D01*
X037907Y019266D01*
X037894Y019253D01*
X037880Y019243D01*
X037864Y019236D01*
X037847Y019232D01*
X037830Y019230D01*
X037680Y019230D01*
X037630Y019280D01*
X035730Y019280D01*
X035680Y019230D01*
X035530Y019230D01*
X035513Y019232D01*
X035496Y019236D01*
X035480Y019243D01*
X035466Y019253D01*
X035453Y019266D01*
X035443Y019280D01*
X035436Y019296D01*
X035432Y019313D01*
X035430Y019330D01*
X035430Y020030D01*
X035432Y020047D01*
X035436Y020064D01*
X035443Y020080D01*
X035453Y020094D01*
X035466Y020107D01*
X035480Y020117D01*
X035496Y020124D01*
X035513Y020128D01*
X035530Y020130D01*
X034180Y019030D02*
X034180Y016330D01*
X034178Y016313D01*
X034174Y016296D01*
X034167Y016280D01*
X034157Y016266D01*
X034144Y016253D01*
X034130Y016243D01*
X034114Y016236D01*
X034097Y016232D01*
X034080Y016230D01*
X033280Y016230D01*
X033263Y016232D01*
X033246Y016236D01*
X033230Y016243D01*
X033216Y016253D01*
X033203Y016266D01*
X033193Y016280D01*
X033186Y016296D01*
X033182Y016313D01*
X033180Y016330D01*
X033180Y019030D01*
X033182Y019047D01*
X033186Y019064D01*
X033193Y019080D01*
X033203Y019094D01*
X033216Y019107D01*
X033230Y019117D01*
X033246Y019124D01*
X033263Y019128D01*
X033280Y019130D01*
X034080Y019130D01*
X034097Y019128D01*
X034114Y019124D01*
X034130Y019117D01*
X034144Y019107D01*
X034157Y019094D01*
X034167Y019080D01*
X034174Y019064D01*
X034178Y019047D01*
X034180Y019030D01*
X033680Y018280D02*
X033680Y017810D01*
X033680Y017560D02*
X033680Y017080D01*
X034830Y014930D02*
X035530Y014930D01*
X035547Y014928D01*
X035564Y014924D01*
X035580Y014917D01*
X035594Y014907D01*
X035607Y014894D01*
X035617Y014880D01*
X035624Y014864D01*
X035628Y014847D01*
X035630Y014830D01*
X035630Y014680D01*
X035580Y014630D01*
X035580Y012730D01*
X035630Y012680D01*
X035630Y012530D01*
X035730Y012530D02*
X035730Y012680D01*
X035780Y012730D01*
X035780Y014630D01*
X035730Y014680D01*
X035730Y014830D01*
X035732Y014847D01*
X035736Y014864D01*
X035743Y014880D01*
X035753Y014894D01*
X035766Y014907D01*
X035780Y014917D01*
X035796Y014924D01*
X035813Y014928D01*
X035830Y014930D01*
X036530Y014930D01*
X036547Y014928D01*
X036564Y014924D01*
X036580Y014917D01*
X036594Y014907D01*
X036607Y014894D01*
X036617Y014880D01*
X036624Y014864D01*
X036628Y014847D01*
X036630Y014830D01*
X036630Y014680D01*
X036580Y014630D01*
X036580Y012730D01*
X036630Y012680D01*
X036630Y012530D01*
X036628Y012513D01*
X036624Y012496D01*
X036617Y012480D01*
X036607Y012466D01*
X036594Y012453D01*
X036580Y012443D01*
X036564Y012436D01*
X036547Y012432D01*
X036530Y012430D01*
X035830Y012430D01*
X035813Y012432D01*
X035796Y012436D01*
X035780Y012443D01*
X035766Y012453D01*
X035753Y012466D01*
X035743Y012480D01*
X035736Y012496D01*
X035732Y012513D01*
X035730Y012530D01*
X035630Y012530D02*
X035628Y012513D01*
X035624Y012496D01*
X035617Y012480D01*
X035607Y012466D01*
X035594Y012453D01*
X035580Y012443D01*
X035564Y012436D01*
X035547Y012432D01*
X035530Y012430D01*
X034830Y012430D01*
X034813Y012432D01*
X034796Y012436D01*
X034780Y012443D01*
X034766Y012453D01*
X034753Y012466D01*
X034743Y012480D01*
X034736Y012496D01*
X034732Y012513D01*
X034730Y012530D01*
X034730Y012680D01*
X034780Y012730D01*
X034780Y014630D01*
X034730Y014680D01*
X034730Y014830D01*
X034732Y014847D01*
X034736Y014864D01*
X034743Y014880D01*
X034753Y014894D01*
X034766Y014907D01*
X034780Y014917D01*
X034796Y014924D01*
X034813Y014928D01*
X034830Y014930D01*
X021680Y003930D02*
X021430Y004180D01*
X020930Y004180D01*
X020680Y003930D01*
X020430Y004180D01*
X019930Y004180D01*
X019680Y003930D01*
X019430Y004180D01*
X018930Y004180D01*
X018680Y003930D01*
X018430Y004180D01*
X017930Y004180D01*
X017680Y003930D01*
X017430Y004180D01*
X016930Y004180D01*
X016680Y003930D01*
X016430Y004180D01*
X015930Y004180D01*
X015680Y003930D01*
X015430Y004180D01*
X014930Y004180D01*
X014680Y003930D01*
X014430Y004180D01*
X013930Y004180D01*
X013680Y003930D01*
X013680Y002430D01*
X013930Y002180D01*
X014430Y002180D01*
X014680Y002430D01*
X014930Y002180D01*
X015430Y002180D01*
X015680Y002430D01*
X015930Y002180D01*
X016430Y002180D01*
X016680Y002430D01*
X016930Y002180D01*
X017430Y002180D01*
X017680Y002430D01*
X017930Y002180D01*
X018430Y002180D01*
X018680Y002430D01*
X018930Y002180D01*
X019430Y002180D01*
X019680Y002430D01*
X019930Y002180D01*
X020430Y002180D01*
X020680Y002430D01*
X020930Y002180D01*
X021430Y002180D01*
X021680Y002430D01*
X021680Y003930D01*
X012180Y003930D02*
X012180Y002430D01*
X011930Y002180D01*
X011430Y002180D01*
X011180Y002430D01*
X010930Y002180D01*
X010430Y002180D01*
X010180Y002430D01*
X009930Y002180D01*
X009430Y002180D01*
X009180Y002430D01*
X008930Y002180D01*
X008430Y002180D01*
X008180Y002430D01*
X007930Y002180D01*
X007430Y002180D01*
X007180Y002430D01*
X006930Y002180D01*
X006430Y002180D01*
X006180Y002430D01*
X005930Y002180D01*
X005430Y002180D01*
X005180Y002430D01*
X004930Y002180D01*
X004430Y002180D01*
X004180Y002430D01*
X004180Y003930D01*
X004430Y004180D01*
X004930Y004180D01*
X005180Y003930D01*
X005430Y004180D01*
X005930Y004180D01*
X006180Y003930D01*
X006430Y004180D01*
X006930Y004180D01*
X007180Y003930D01*
X007430Y004180D01*
X007930Y004180D01*
X008180Y003930D01*
X008430Y004180D01*
X008930Y004180D01*
X009180Y003930D01*
X009430Y004180D01*
X009930Y004180D01*
X010180Y003930D01*
X010430Y004180D01*
X010930Y004180D01*
X011180Y003930D01*
X011430Y004180D01*
X011930Y004180D01*
X012180Y003930D01*
X009530Y013180D02*
X006830Y013180D01*
X006813Y013182D01*
X006796Y013186D01*
X006780Y013193D01*
X006766Y013203D01*
X006753Y013216D01*
X006743Y013230D01*
X006736Y013246D01*
X006732Y013263D01*
X006730Y013280D01*
X006730Y014080D01*
X006732Y014097D01*
X006736Y014114D01*
X006743Y014130D01*
X006753Y014144D01*
X006766Y014157D01*
X006780Y014167D01*
X006796Y014174D01*
X006813Y014178D01*
X006830Y014180D01*
X009530Y014180D01*
X009547Y014178D01*
X009564Y014174D01*
X009580Y014167D01*
X009594Y014157D01*
X009607Y014144D01*
X009617Y014130D01*
X009624Y014114D01*
X009628Y014097D01*
X009630Y014080D01*
X009630Y013280D01*
X009628Y013263D01*
X009624Y013246D01*
X009617Y013230D01*
X009607Y013216D01*
X009594Y013203D01*
X009580Y013193D01*
X009564Y013186D01*
X009547Y013182D01*
X009530Y013180D01*
X008780Y013680D02*
X008300Y013680D01*
X008050Y013680D02*
X007580Y013680D01*
X003680Y016330D02*
X003680Y019030D01*
X003678Y019047D01*
X003674Y019064D01*
X003667Y019080D01*
X003657Y019094D01*
X003644Y019107D01*
X003630Y019117D01*
X003614Y019124D01*
X003597Y019128D01*
X003580Y019130D01*
X002780Y019130D01*
X002763Y019128D01*
X002746Y019124D01*
X002730Y019117D01*
X002716Y019107D01*
X002703Y019094D01*
X002693Y019080D01*
X002686Y019064D01*
X002682Y019047D01*
X002680Y019030D01*
X002680Y016330D01*
X002682Y016313D01*
X002686Y016296D01*
X002693Y016280D01*
X002703Y016266D01*
X002716Y016253D01*
X002730Y016243D01*
X002746Y016236D01*
X002763Y016232D01*
X002780Y016230D01*
X003580Y016230D01*
X003597Y016232D01*
X003614Y016236D01*
X003630Y016243D01*
X003644Y016253D01*
X003657Y016266D01*
X003667Y016280D01*
X003674Y016296D01*
X003678Y016313D01*
X003680Y016330D01*
X003180Y017080D02*
X003180Y017550D01*
X003180Y017800D02*
X003180Y018280D01*
D12*
X003855Y018209D02*
X003930Y018134D01*
X004230Y018134D01*
X004305Y018209D01*
X004305Y018359D01*
X004230Y018434D01*
X004230Y018595D02*
X004305Y018670D01*
X004305Y018820D01*
X004230Y018895D01*
X003930Y018895D01*
X003855Y018820D01*
X003855Y018670D01*
X003930Y018595D01*
X004005Y018595D01*
X004080Y018670D01*
X004080Y018895D01*
X003930Y018434D02*
X003855Y018359D01*
X003855Y018209D01*
X010105Y016651D02*
X010330Y016426D01*
X010330Y016726D01*
X010555Y016651D02*
X010105Y016651D01*
X010180Y016266D02*
X010105Y016191D01*
X010105Y016040D01*
X010180Y015965D01*
X010180Y015805D02*
X010330Y015805D01*
X010405Y015730D01*
X010405Y015505D01*
X010555Y015505D02*
X010105Y015505D01*
X010105Y015730D01*
X010180Y015805D01*
X010405Y015655D02*
X010555Y015805D01*
X010555Y015965D02*
X010255Y016266D01*
X010180Y016266D01*
X010555Y016266D02*
X010555Y015965D01*
X012705Y016141D02*
X012930Y015915D01*
X012930Y016216D01*
X013155Y016141D02*
X012705Y016141D01*
X012780Y015755D02*
X013080Y015755D01*
X013155Y015680D01*
X013155Y015530D01*
X013080Y015455D01*
X012780Y015455D01*
X012705Y015530D01*
X012705Y015680D01*
X012780Y015755D01*
X013005Y015605D02*
X013155Y015755D01*
X012030Y014180D02*
X012032Y014247D01*
X012038Y014315D01*
X012048Y014382D01*
X012062Y014448D01*
X012079Y014513D01*
X012101Y014577D01*
X012126Y014640D01*
X012155Y014701D01*
X012187Y014760D01*
X012223Y014817D01*
X012262Y014872D01*
X012304Y014925D01*
X012349Y014975D01*
X012397Y015022D01*
X012448Y015067D01*
X012501Y015108D01*
X012557Y015147D01*
X012615Y015182D01*
X012675Y015213D01*
X012736Y015241D01*
X012799Y015265D01*
X012863Y015286D01*
X012929Y015302D01*
X012995Y015315D01*
X013062Y015324D01*
X013129Y015329D01*
X013197Y015330D01*
X013264Y015327D01*
X013331Y015320D01*
X013398Y015309D01*
X013464Y015294D01*
X013529Y015276D01*
X013593Y015253D01*
X013655Y015227D01*
X013716Y015198D01*
X013774Y015164D01*
X013831Y015128D01*
X013886Y015088D01*
X013938Y015045D01*
X013987Y014999D01*
X014034Y014950D01*
X014078Y014899D01*
X014118Y014845D01*
X014156Y014789D01*
X014190Y014730D01*
X014220Y014670D01*
X014247Y014608D01*
X014271Y014545D01*
X014290Y014480D01*
X014306Y014415D01*
X014318Y014348D01*
X014326Y014281D01*
X014330Y014214D01*
X014330Y014146D01*
X014326Y014079D01*
X014318Y014012D01*
X014306Y013945D01*
X014290Y013880D01*
X014271Y013815D01*
X014247Y013752D01*
X014220Y013690D01*
X014190Y013630D01*
X014156Y013571D01*
X014118Y013515D01*
X014078Y013461D01*
X014034Y013410D01*
X013987Y013361D01*
X013938Y013315D01*
X013886Y013272D01*
X013831Y013232D01*
X013774Y013196D01*
X013716Y013162D01*
X013655Y013133D01*
X013593Y013107D01*
X013529Y013084D01*
X013464Y013066D01*
X013398Y013051D01*
X013331Y013040D01*
X013264Y013033D01*
X013197Y013030D01*
X013129Y013031D01*
X013062Y013036D01*
X012995Y013045D01*
X012929Y013058D01*
X012863Y013074D01*
X012799Y013095D01*
X012736Y013119D01*
X012675Y013147D01*
X012615Y013178D01*
X012557Y013213D01*
X012501Y013252D01*
X012448Y013293D01*
X012397Y013338D01*
X012349Y013385D01*
X012304Y013435D01*
X012262Y013488D01*
X012223Y013543D01*
X012187Y013600D01*
X012155Y013659D01*
X012126Y013720D01*
X012101Y013783D01*
X012079Y013847D01*
X012062Y013912D01*
X012048Y013978D01*
X012038Y014045D01*
X012032Y014113D01*
X012030Y014180D01*
X012980Y013048D02*
X012980Y012630D01*
X013380Y012630D01*
X013380Y013048D01*
X016080Y012880D02*
X016080Y005480D01*
X018280Y005480D01*
X018280Y012880D01*
X017480Y012880D01*
X017480Y012680D01*
X016880Y012680D01*
X016880Y012880D01*
X016080Y012880D01*
X016880Y012880D02*
X017480Y012880D01*
X018134Y012930D02*
X018134Y012630D01*
X018209Y012555D01*
X018359Y012555D01*
X018434Y012630D01*
X018595Y012630D02*
X018595Y012555D01*
X018595Y012630D02*
X018895Y012930D01*
X018895Y013005D01*
X018595Y013005D01*
X018434Y012930D02*
X018359Y013005D01*
X018209Y013005D01*
X018134Y012930D01*
X021305Y011845D02*
X021755Y011845D01*
X021755Y011695D02*
X021755Y011995D01*
X021455Y011695D02*
X021305Y011845D01*
X021305Y011384D02*
X021755Y011384D01*
X021755Y011234D02*
X021755Y011534D01*
X021455Y011234D02*
X021305Y011384D01*
X021380Y011074D02*
X021305Y010999D01*
X021305Y010849D01*
X021380Y010774D01*
X021680Y010774D01*
X021755Y010849D01*
X021755Y010999D01*
X021680Y011074D01*
X022155Y009466D02*
X022155Y009165D01*
X022380Y009165D01*
X022305Y009316D01*
X022305Y009391D01*
X022380Y009466D01*
X022530Y009466D01*
X022605Y009391D01*
X022605Y009240D01*
X022530Y009165D01*
X022530Y009005D02*
X022230Y009005D01*
X022155Y008930D01*
X022155Y008780D01*
X022230Y008705D01*
X022530Y008705D01*
X022605Y008780D01*
X022605Y008930D01*
X022530Y009005D01*
X022605Y009005D02*
X022455Y008855D01*
X022080Y007895D02*
X022080Y007595D01*
X021855Y007820D01*
X022305Y007820D01*
X022230Y007434D02*
X022305Y007359D01*
X022305Y007209D01*
X022230Y007134D01*
X021930Y007134D01*
X021855Y007209D01*
X021855Y007359D01*
X021930Y007434D01*
X023355Y007359D02*
X023355Y007209D01*
X023430Y007134D01*
X023730Y007134D01*
X023805Y007209D01*
X023805Y007359D01*
X023730Y007434D01*
X023730Y007595D02*
X023805Y007670D01*
X023805Y007820D01*
X023730Y007895D01*
X023655Y007895D01*
X023580Y007820D01*
X023580Y007745D01*
X023580Y007820D02*
X023505Y007895D01*
X023430Y007895D01*
X023355Y007820D01*
X023355Y007670D01*
X023430Y007595D01*
X023430Y007434D02*
X023355Y007359D01*
X025355Y007359D02*
X025355Y007209D01*
X025430Y007134D01*
X025730Y007134D01*
X025805Y007209D01*
X025805Y007359D01*
X025730Y007434D01*
X025805Y007595D02*
X025805Y007895D01*
X025805Y007745D02*
X025355Y007745D01*
X025505Y007595D01*
X025430Y007434D02*
X025355Y007359D01*
X025480Y005476D02*
X025180Y005476D01*
X025480Y005176D01*
X025555Y005251D01*
X025555Y005401D01*
X025480Y005476D01*
X025480Y005176D02*
X025180Y005176D01*
X025105Y005251D01*
X025105Y005401D01*
X025180Y005476D01*
X025555Y005016D02*
X025555Y004715D01*
X025555Y004866D02*
X025105Y004866D01*
X025255Y004715D01*
X025180Y004555D02*
X025105Y004480D01*
X025105Y004330D01*
X025180Y004255D01*
X025480Y004255D01*
X025555Y004330D01*
X025555Y004480D01*
X025480Y004555D01*
X026843Y001995D02*
X027068Y001995D01*
X027143Y001920D01*
X027143Y001770D01*
X027068Y001695D01*
X026843Y001695D01*
X026843Y001545D02*
X026843Y001995D01*
X027303Y001995D02*
X027303Y001545D01*
X027453Y001695D01*
X027603Y001545D01*
X027603Y001995D01*
X027763Y001995D02*
X027763Y001545D01*
X027763Y001695D02*
X027989Y001695D01*
X028064Y001770D01*
X028064Y001920D01*
X027989Y001995D01*
X027763Y001995D01*
X027914Y001695D02*
X028064Y001545D01*
X028224Y001470D02*
X028524Y001470D01*
X028684Y001620D02*
X028759Y001545D01*
X028909Y001545D01*
X028984Y001620D01*
X028984Y001695D01*
X028909Y001770D01*
X028759Y001770D01*
X028684Y001845D01*
X028684Y001920D01*
X028759Y001995D01*
X028909Y001995D01*
X028984Y001920D01*
X029145Y001995D02*
X029145Y001545D01*
X029295Y001695D01*
X029445Y001545D01*
X029445Y001995D01*
X029345Y002476D02*
X029345Y002703D01*
X029345Y002589D02*
X029005Y002589D01*
X029118Y002476D01*
X031405Y003855D02*
X031405Y004305D01*
X031630Y004305D01*
X031705Y004230D01*
X031705Y003930D01*
X031630Y003855D01*
X031405Y003855D01*
X031865Y003855D02*
X032166Y004155D01*
X032166Y004230D01*
X032091Y004305D01*
X031940Y004305D01*
X031865Y004230D01*
X031865Y003855D02*
X032166Y003855D01*
X033843Y001995D02*
X034068Y001995D01*
X034143Y001920D01*
X034143Y001770D01*
X034068Y001695D01*
X033843Y001695D01*
X033843Y001545D02*
X033843Y001995D01*
X034303Y001995D02*
X034303Y001545D01*
X034453Y001695D01*
X034603Y001545D01*
X034603Y001995D01*
X034763Y001995D02*
X034763Y001545D01*
X034763Y001695D02*
X034989Y001695D01*
X035064Y001770D01*
X035064Y001920D01*
X034989Y001995D01*
X034763Y001995D01*
X034914Y001695D02*
X035064Y001545D01*
X035224Y001470D02*
X035524Y001470D01*
X035684Y001620D02*
X035684Y001920D01*
X035759Y001995D01*
X035909Y001995D01*
X035984Y001920D01*
X036145Y001995D02*
X036445Y001545D01*
X036445Y001995D01*
X036145Y001995D02*
X036145Y001545D01*
X035984Y001620D02*
X035909Y001545D01*
X035759Y001545D01*
X035684Y001620D01*
X036118Y002476D02*
X036005Y002589D01*
X036345Y002589D01*
X036345Y002476D02*
X036345Y002703D01*
X038405Y011755D02*
X038405Y012205D01*
X038255Y012205D02*
X038555Y012205D01*
X038715Y012205D02*
X038941Y012205D01*
X039016Y012130D01*
X039016Y011980D01*
X038941Y011905D01*
X038715Y011905D01*
X038715Y011755D02*
X038715Y012205D01*
X039176Y012055D02*
X039326Y012205D01*
X039326Y011755D01*
X039176Y011755D02*
X039476Y011755D01*
X036255Y013984D02*
X035805Y013984D01*
X035805Y014209D01*
X035880Y014284D01*
X036030Y014284D01*
X036105Y014209D01*
X036105Y013984D01*
X036105Y014134D02*
X036255Y014284D01*
X036180Y014445D02*
X036105Y014445D01*
X036030Y014520D01*
X036030Y014670D01*
X036105Y014745D01*
X036180Y014745D01*
X036255Y014670D01*
X036255Y014520D01*
X036180Y014445D01*
X036030Y014520D02*
X035955Y014445D01*
X035880Y014445D01*
X035805Y014520D01*
X035805Y014670D01*
X035880Y014745D01*
X035955Y014745D01*
X036030Y014670D01*
X036080Y015034D02*
X035780Y015034D01*
X035705Y015109D01*
X035705Y015259D01*
X035780Y015334D01*
X036080Y015334D01*
X036155Y015259D01*
X036155Y015109D01*
X036080Y015034D01*
X036005Y015184D02*
X036155Y015334D01*
X036155Y015495D02*
X035855Y015795D01*
X035780Y015795D01*
X035705Y015720D01*
X035705Y015570D01*
X035780Y015495D01*
X036155Y015495D02*
X036155Y015795D01*
X034530Y017180D02*
X034532Y017247D01*
X034538Y017315D01*
X034548Y017382D01*
X034562Y017448D01*
X034579Y017513D01*
X034601Y017577D01*
X034626Y017640D01*
X034655Y017701D01*
X034687Y017760D01*
X034723Y017817D01*
X034762Y017872D01*
X034804Y017925D01*
X034849Y017975D01*
X034897Y018022D01*
X034948Y018067D01*
X035001Y018108D01*
X035057Y018147D01*
X035115Y018182D01*
X035175Y018213D01*
X035236Y018241D01*
X035299Y018265D01*
X035363Y018286D01*
X035429Y018302D01*
X035495Y018315D01*
X035562Y018324D01*
X035629Y018329D01*
X035697Y018330D01*
X035764Y018327D01*
X035831Y018320D01*
X035898Y018309D01*
X035964Y018294D01*
X036029Y018276D01*
X036093Y018253D01*
X036155Y018227D01*
X036216Y018198D01*
X036274Y018164D01*
X036331Y018128D01*
X036386Y018088D01*
X036438Y018045D01*
X036487Y017999D01*
X036534Y017950D01*
X036578Y017899D01*
X036618Y017845D01*
X036656Y017789D01*
X036690Y017730D01*
X036720Y017670D01*
X036747Y017608D01*
X036771Y017545D01*
X036790Y017480D01*
X036806Y017415D01*
X036818Y017348D01*
X036826Y017281D01*
X036830Y017214D01*
X036830Y017146D01*
X036826Y017079D01*
X036818Y017012D01*
X036806Y016945D01*
X036790Y016880D01*
X036771Y016815D01*
X036747Y016752D01*
X036720Y016690D01*
X036690Y016630D01*
X036656Y016571D01*
X036618Y016515D01*
X036578Y016461D01*
X036534Y016410D01*
X036487Y016361D01*
X036438Y016315D01*
X036386Y016272D01*
X036331Y016232D01*
X036274Y016196D01*
X036216Y016162D01*
X036155Y016133D01*
X036093Y016107D01*
X036029Y016084D01*
X035964Y016066D01*
X035898Y016051D01*
X035831Y016040D01*
X035764Y016033D01*
X035697Y016030D01*
X035629Y016031D01*
X035562Y016036D01*
X035495Y016045D01*
X035429Y016058D01*
X035363Y016074D01*
X035299Y016095D01*
X035236Y016119D01*
X035175Y016147D01*
X035115Y016178D01*
X035057Y016213D01*
X035001Y016252D01*
X034948Y016293D01*
X034897Y016338D01*
X034849Y016385D01*
X034804Y016435D01*
X034762Y016488D01*
X034723Y016543D01*
X034687Y016600D01*
X034655Y016659D01*
X034626Y016720D01*
X034601Y016783D01*
X034579Y016847D01*
X034562Y016912D01*
X034548Y016978D01*
X034538Y017045D01*
X034532Y017113D01*
X034530Y017180D01*
X035480Y018312D02*
X035480Y018730D01*
X035880Y018730D01*
X035880Y018312D01*
X036524Y018605D02*
X036524Y019055D01*
X036749Y019055D01*
X036824Y018980D01*
X036824Y018830D01*
X036749Y018755D01*
X036524Y018755D01*
X036674Y018755D02*
X036824Y018605D01*
X036984Y018605D02*
X037284Y018605D01*
X037134Y018605D02*
X037134Y019055D01*
X036984Y018905D01*
X037445Y018980D02*
X037445Y018680D01*
X037745Y018980D01*
X037745Y018680D01*
X037670Y018605D01*
X037520Y018605D01*
X037445Y018680D01*
X037445Y018980D02*
X037520Y019055D01*
X037670Y019055D01*
X037745Y018980D01*
X037980Y018730D02*
X037980Y018312D01*
X038380Y018312D02*
X038380Y018730D01*
X037980Y018730D01*
X037030Y017180D02*
X037032Y017247D01*
X037038Y017315D01*
X037048Y017382D01*
X037062Y017448D01*
X037079Y017513D01*
X037101Y017577D01*
X037126Y017640D01*
X037155Y017701D01*
X037187Y017760D01*
X037223Y017817D01*
X037262Y017872D01*
X037304Y017925D01*
X037349Y017975D01*
X037397Y018022D01*
X037448Y018067D01*
X037501Y018108D01*
X037557Y018147D01*
X037615Y018182D01*
X037675Y018213D01*
X037736Y018241D01*
X037799Y018265D01*
X037863Y018286D01*
X037929Y018302D01*
X037995Y018315D01*
X038062Y018324D01*
X038129Y018329D01*
X038197Y018330D01*
X038264Y018327D01*
X038331Y018320D01*
X038398Y018309D01*
X038464Y018294D01*
X038529Y018276D01*
X038593Y018253D01*
X038655Y018227D01*
X038716Y018198D01*
X038774Y018164D01*
X038831Y018128D01*
X038886Y018088D01*
X038938Y018045D01*
X038987Y017999D01*
X039034Y017950D01*
X039078Y017899D01*
X039118Y017845D01*
X039156Y017789D01*
X039190Y017730D01*
X039220Y017670D01*
X039247Y017608D01*
X039271Y017545D01*
X039290Y017480D01*
X039306Y017415D01*
X039318Y017348D01*
X039326Y017281D01*
X039330Y017214D01*
X039330Y017146D01*
X039326Y017079D01*
X039318Y017012D01*
X039306Y016945D01*
X039290Y016880D01*
X039271Y016815D01*
X039247Y016752D01*
X039220Y016690D01*
X039190Y016630D01*
X039156Y016571D01*
X039118Y016515D01*
X039078Y016461D01*
X039034Y016410D01*
X038987Y016361D01*
X038938Y016315D01*
X038886Y016272D01*
X038831Y016232D01*
X038774Y016196D01*
X038716Y016162D01*
X038655Y016133D01*
X038593Y016107D01*
X038529Y016084D01*
X038464Y016066D01*
X038398Y016051D01*
X038331Y016040D01*
X038264Y016033D01*
X038197Y016030D01*
X038129Y016031D01*
X038062Y016036D01*
X037995Y016045D01*
X037929Y016058D01*
X037863Y016074D01*
X037799Y016095D01*
X037736Y016119D01*
X037675Y016147D01*
X037615Y016178D01*
X037557Y016213D01*
X037501Y016252D01*
X037448Y016293D01*
X037397Y016338D01*
X037349Y016385D01*
X037304Y016435D01*
X037262Y016488D01*
X037223Y016543D01*
X037187Y016600D01*
X037155Y016659D01*
X037126Y016720D01*
X037101Y016783D01*
X037079Y016847D01*
X037062Y016912D01*
X037048Y016978D01*
X037038Y017045D01*
X037032Y017113D01*
X037030Y017180D01*
X038280Y015795D02*
X038355Y015795D01*
X038430Y015720D01*
X038505Y015795D01*
X038580Y015795D01*
X038655Y015720D01*
X038655Y015570D01*
X038580Y015495D01*
X038580Y015334D02*
X038280Y015334D01*
X038205Y015259D01*
X038205Y015109D01*
X038280Y015034D01*
X038580Y015034D01*
X038655Y015109D01*
X038655Y015259D01*
X038580Y015334D01*
X038655Y015334D02*
X038505Y015184D01*
X038280Y015495D02*
X038205Y015570D01*
X038205Y015720D01*
X038280Y015795D01*
X038430Y015720D02*
X038430Y015645D01*
X035555Y013191D02*
X035480Y013266D01*
X035180Y013266D01*
X035105Y013191D01*
X035105Y013040D01*
X035180Y012965D01*
X035255Y012965D01*
X035330Y013040D01*
X035330Y013266D01*
X035555Y013191D02*
X035555Y013040D01*
X035480Y012965D01*
X035555Y012805D02*
X035405Y012655D01*
X035405Y012730D02*
X035405Y012505D01*
X035555Y012505D02*
X035105Y012505D01*
X035105Y012730D01*
X035180Y012805D01*
X035330Y012805D01*
X035405Y012730D01*
X032930Y016355D02*
X032630Y016355D01*
X032555Y016430D01*
X032555Y016580D01*
X032630Y016655D01*
X032555Y016815D02*
X032780Y016815D01*
X032705Y016966D01*
X032705Y017041D01*
X032780Y017116D01*
X032930Y017116D01*
X033005Y017041D01*
X033005Y016890D01*
X032930Y016815D01*
X032930Y016655D02*
X033005Y016580D01*
X033005Y016430D01*
X032930Y016355D01*
X032555Y016815D02*
X032555Y017116D01*
X024895Y013930D02*
X024820Y014005D01*
X024670Y014005D01*
X024595Y013930D01*
X024434Y013930D02*
X024359Y014005D01*
X024209Y014005D01*
X024134Y013930D01*
X024134Y013630D01*
X024209Y013555D01*
X024359Y013555D01*
X024434Y013630D01*
X024595Y013555D02*
X024895Y013855D01*
X024895Y013930D01*
X024895Y013555D02*
X024595Y013555D01*
X020055Y016005D02*
X019605Y016005D01*
X019605Y016230D01*
X019680Y016305D01*
X019830Y016305D01*
X019905Y016230D01*
X019905Y016005D01*
X019905Y016155D02*
X020055Y016305D01*
X019980Y016465D02*
X020055Y016540D01*
X020055Y016691D01*
X019980Y016766D01*
X019830Y016766D01*
X019755Y016691D01*
X019755Y016616D01*
X019830Y016465D01*
X019605Y016465D01*
X019605Y016766D01*
X015726Y018030D02*
X015426Y018030D01*
X015651Y018255D01*
X015651Y017805D01*
X015266Y017805D02*
X014965Y017805D01*
X014895Y017855D02*
X014820Y017780D01*
X014670Y017780D01*
X014595Y017855D01*
X014595Y017930D01*
X014670Y018005D01*
X014820Y018005D01*
X014895Y017930D01*
X014895Y017855D01*
X014805Y017805D02*
X014655Y017955D01*
X014730Y017955D02*
X014505Y017955D01*
X014434Y017930D02*
X014359Y018005D01*
X014209Y018005D01*
X014134Y017930D01*
X014134Y017630D01*
X014209Y017555D01*
X014359Y017555D01*
X014434Y017630D01*
X014595Y017630D02*
X014595Y017705D01*
X014670Y017780D01*
X014820Y017780D02*
X014895Y017705D01*
X014895Y017630D01*
X014820Y017555D01*
X014670Y017555D01*
X014595Y017630D01*
X014505Y017805D02*
X014505Y018255D01*
X014730Y018255D01*
X014805Y018180D01*
X014805Y018030D01*
X014730Y017955D01*
X014965Y018105D02*
X015116Y018255D01*
X015116Y017805D01*
X009395Y013005D02*
X009245Y012930D01*
X009095Y012780D01*
X009320Y012780D01*
X009395Y012705D01*
X009395Y012630D01*
X009320Y012555D01*
X009170Y012555D01*
X009095Y012630D01*
X009095Y012780D01*
X008934Y012630D02*
X008859Y012555D01*
X008709Y012555D01*
X008634Y012630D01*
X008634Y012930D01*
X008709Y013005D01*
X008859Y013005D01*
X008934Y012930D01*
X008780Y012880D02*
X008780Y005480D01*
X006580Y005480D01*
X006580Y012880D01*
X007380Y012880D01*
X007380Y012680D01*
X007980Y012680D01*
X007980Y012880D01*
X007380Y012880D01*
X007980Y012880D02*
X008780Y012880D01*
X011595Y004805D02*
X011595Y004355D01*
X011445Y004355D02*
X011745Y004355D01*
X011445Y004655D02*
X011595Y004805D01*
X011509Y002005D02*
X011359Y002005D01*
X011284Y001930D01*
X011284Y001630D01*
X011359Y001555D01*
X011509Y001555D01*
X011584Y001630D01*
X011745Y001555D02*
X011745Y002005D01*
X012045Y001555D01*
X012045Y002005D01*
X011584Y001930D02*
X011509Y002005D01*
X011124Y001480D02*
X010824Y001480D01*
X010664Y001555D02*
X010363Y002005D01*
X010203Y002005D02*
X009903Y002005D01*
X009903Y001555D01*
X009743Y001480D02*
X009443Y001480D01*
X009283Y001555D02*
X009283Y002005D01*
X008982Y002005D02*
X009283Y001555D01*
X008982Y001555D02*
X008982Y002005D01*
X008822Y002005D02*
X008522Y002005D01*
X008672Y002005D02*
X008672Y001555D01*
X008362Y001630D02*
X008287Y001555D01*
X008061Y001555D01*
X008061Y002005D01*
X008287Y002005D01*
X008362Y001930D01*
X008362Y001855D01*
X008287Y001780D01*
X008061Y001780D01*
X008287Y001780D02*
X008362Y001705D01*
X008362Y001630D01*
X009903Y001780D02*
X010053Y001780D01*
X010363Y001555D02*
X010664Y002005D01*
X013784Y001855D02*
X013934Y002005D01*
X013934Y001555D01*
X013784Y001555D02*
X014084Y001555D01*
X014245Y001630D02*
X014320Y001555D01*
X014470Y001555D01*
X014545Y001630D01*
X014545Y001705D01*
X014470Y001780D01*
X014245Y001780D01*
X014245Y001630D01*
X014245Y001780D02*
X014395Y001930D01*
X014545Y002005D01*
X017561Y002005D02*
X017561Y001555D01*
X017787Y001555D01*
X017862Y001630D01*
X017862Y001705D01*
X017787Y001780D01*
X017561Y001780D01*
X017561Y002005D02*
X017787Y002005D01*
X017862Y001930D01*
X017862Y001855D01*
X017787Y001780D01*
X018022Y002005D02*
X018322Y002005D01*
X018172Y002005D02*
X018172Y001555D01*
X018482Y001555D02*
X018482Y002005D01*
X018783Y001555D01*
X018783Y002005D01*
X019403Y002005D02*
X019628Y002005D01*
X019703Y001930D01*
X019703Y001780D01*
X019628Y001705D01*
X019403Y001705D01*
X019403Y001555D02*
X019403Y002005D01*
X019863Y002005D02*
X019863Y001555D01*
X019863Y001705D02*
X020089Y001705D01*
X020164Y001780D01*
X020164Y001930D01*
X020089Y002005D01*
X019863Y002005D01*
X020014Y001705D02*
X020164Y001555D01*
X020324Y001480D02*
X020624Y001480D01*
X020784Y001630D02*
X020784Y001930D01*
X020859Y002005D01*
X021009Y002005D01*
X021084Y001930D01*
X021245Y002005D02*
X021245Y001555D01*
X021084Y001630D02*
X021009Y001555D01*
X020859Y001555D01*
X020784Y001630D01*
X021245Y002005D02*
X021545Y001555D01*
X021545Y002005D01*
X019243Y001480D02*
X018943Y001480D01*
X020945Y004355D02*
X021245Y004355D01*
X021095Y004355D02*
X021095Y004805D01*
X020945Y004655D01*
X005045Y002005D02*
X004895Y001930D01*
X004745Y001780D01*
X004970Y001780D01*
X005045Y001705D01*
X005045Y001630D01*
X004970Y001555D01*
X004820Y001555D01*
X004745Y001630D01*
X004745Y001780D01*
X004584Y001555D02*
X004284Y001555D01*
X004434Y001555D02*
X004434Y002005D01*
X004284Y001855D01*
X004405Y025505D02*
X004405Y025730D01*
X004330Y025805D01*
X004180Y025805D01*
X004105Y025730D01*
X004105Y025505D01*
X004555Y025505D01*
X004405Y025655D02*
X004555Y025805D01*
X004555Y025965D02*
X004255Y026266D01*
X004180Y026266D01*
X004105Y026191D01*
X004105Y026040D01*
X004180Y025965D01*
X004555Y025965D02*
X004555Y026266D01*
X004555Y026426D02*
X004255Y026726D01*
X004180Y026726D01*
X004105Y026651D01*
X004105Y026501D01*
X004180Y026426D01*
X004555Y026426D02*
X004555Y026726D01*
X005105Y026576D02*
X005555Y026576D01*
X005555Y026426D02*
X005555Y026726D01*
X005255Y026426D02*
X005105Y026576D01*
X005180Y026266D02*
X005105Y026191D01*
X005105Y026040D01*
X005180Y025965D01*
X005180Y025805D02*
X005330Y025805D01*
X005405Y025730D01*
X005405Y025505D01*
X005555Y025505D02*
X005105Y025505D01*
X005105Y025730D01*
X005180Y025805D01*
X005405Y025655D02*
X005555Y025805D01*
X005555Y025965D02*
X005255Y026266D01*
X005180Y026266D01*
X005555Y026266D02*
X005555Y025965D01*
X006105Y026040D02*
X006180Y025965D01*
X006105Y026040D02*
X006105Y026191D01*
X006180Y026266D01*
X006255Y026266D01*
X006555Y025965D01*
X006555Y026266D01*
X006480Y026426D02*
X006180Y026426D01*
X006105Y026501D01*
X006105Y026651D01*
X006180Y026726D01*
X006480Y026426D01*
X006555Y026501D01*
X006555Y026651D01*
X006480Y026726D01*
X006180Y026726D01*
X006180Y025805D02*
X006330Y025805D01*
X006405Y025730D01*
X006405Y025505D01*
X006555Y025505D02*
X006105Y025505D01*
X006105Y025730D01*
X006180Y025805D01*
X006405Y025655D02*
X006555Y025805D01*
X007105Y025730D02*
X007105Y025505D01*
X007555Y025505D01*
X007405Y025505D02*
X007405Y025730D01*
X007330Y025805D01*
X007180Y025805D01*
X007105Y025730D01*
X007255Y025965D02*
X007105Y026116D01*
X007555Y026116D01*
X007555Y026266D02*
X007555Y025965D01*
X007555Y025805D02*
X007405Y025655D01*
X008105Y025730D02*
X008105Y025505D01*
X008555Y025505D01*
X008405Y025505D02*
X008405Y025730D01*
X008330Y025805D01*
X008180Y025805D01*
X008105Y025730D01*
X008255Y025965D02*
X008105Y026116D01*
X008555Y026116D01*
X008555Y026266D02*
X008555Y025965D01*
X008555Y025805D02*
X008405Y025655D01*
X009105Y025730D02*
X009105Y025505D01*
X009555Y025505D01*
X009405Y025505D02*
X009405Y025730D01*
X009330Y025805D01*
X009180Y025805D01*
X009105Y025730D01*
X009255Y025965D02*
X009105Y026116D01*
X009555Y026116D01*
X009555Y026266D02*
X009555Y025965D01*
X009555Y025805D02*
X009405Y025655D01*
X010105Y025730D02*
X010105Y025505D01*
X010555Y025505D01*
X010405Y025505D02*
X010405Y025730D01*
X010330Y025805D01*
X010180Y025805D01*
X010105Y025730D01*
X010255Y025965D02*
X010105Y026116D01*
X010555Y026116D01*
X010555Y026266D02*
X010555Y025965D01*
X010555Y025805D02*
X010405Y025655D01*
X011105Y025730D02*
X011180Y025805D01*
X011330Y025805D01*
X011405Y025730D01*
X011405Y025505D01*
X011555Y025505D02*
X011105Y025505D01*
X011105Y025730D01*
X011255Y025965D02*
X011105Y026116D01*
X011555Y026116D01*
X011555Y026266D02*
X011555Y025965D01*
X011555Y025805D02*
X011405Y025655D01*
X011480Y026426D02*
X011555Y026501D01*
X011555Y026651D01*
X011480Y026726D01*
X011330Y026726D01*
X011255Y026651D01*
X011255Y026576D01*
X011330Y026426D01*
X011105Y026426D01*
X011105Y026726D01*
X010555Y026651D02*
X010480Y026726D01*
X010405Y026726D01*
X010330Y026651D01*
X010330Y026426D01*
X010480Y026426D01*
X010555Y026501D01*
X010555Y026651D01*
X010330Y026426D02*
X010180Y026576D01*
X010105Y026726D01*
X009555Y026426D02*
X009480Y026426D01*
X009180Y026726D01*
X009105Y026726D01*
X009105Y026426D01*
X008555Y026501D02*
X008480Y026426D01*
X008405Y026426D01*
X008330Y026501D01*
X008330Y026651D01*
X008405Y026726D01*
X008480Y026726D01*
X008555Y026651D01*
X008555Y026501D01*
X008330Y026501D02*
X008255Y026426D01*
X008180Y026426D01*
X008105Y026501D01*
X008105Y026651D01*
X008180Y026726D01*
X008255Y026726D01*
X008330Y026651D01*
X007555Y026651D02*
X007480Y026726D01*
X007180Y026726D01*
X007105Y026651D01*
X007105Y026501D01*
X007180Y026426D01*
X007255Y026426D01*
X007330Y026501D01*
X007330Y026726D01*
X007555Y026651D02*
X007555Y026501D01*
X007480Y026426D01*
X005305Y028555D02*
X005005Y028555D01*
X005155Y028555D02*
X005155Y029005D01*
X005005Y028855D01*
X005005Y031355D02*
X004705Y031355D01*
X004705Y031805D01*
X005165Y031805D02*
X005165Y031355D01*
X005466Y031355D01*
X005626Y031355D02*
X005851Y031355D01*
X005926Y031430D01*
X005926Y031730D01*
X005851Y031805D01*
X005626Y031805D01*
X005626Y031355D01*
X005316Y031580D02*
X005165Y031580D01*
X005165Y031805D02*
X005466Y031805D01*
X006086Y031280D02*
X006386Y031280D01*
X006547Y031355D02*
X006547Y031805D01*
X006847Y031805D01*
X007007Y031805D02*
X007307Y031355D01*
X007467Y031280D02*
X007768Y031280D01*
X007928Y031430D02*
X008003Y031355D01*
X008153Y031355D01*
X008228Y031430D01*
X008388Y031355D02*
X008388Y031805D01*
X008688Y031355D01*
X008688Y031805D01*
X008228Y031730D02*
X008153Y031805D01*
X008003Y031805D01*
X007928Y031730D01*
X007928Y031430D01*
X007307Y031805D02*
X007007Y031355D01*
X006697Y031580D02*
X006547Y031580D01*
X011705Y031655D02*
X011855Y031805D01*
X011855Y031355D01*
X011705Y031355D02*
X012005Y031355D01*
X012165Y031430D02*
X012240Y031355D01*
X012391Y031355D01*
X012466Y031430D01*
X012466Y031505D01*
X012391Y031580D01*
X012165Y031580D01*
X012165Y031430D01*
X012165Y031580D02*
X012316Y031730D01*
X012466Y031805D01*
X016205Y031805D02*
X016205Y031355D01*
X016505Y031355D01*
X016665Y031355D02*
X016966Y031355D01*
X017126Y031355D02*
X017351Y031355D01*
X017426Y031430D01*
X017426Y031730D01*
X017351Y031805D01*
X017126Y031805D01*
X017126Y031355D01*
X016816Y031580D02*
X016665Y031580D01*
X016665Y031805D02*
X016665Y031355D01*
X016665Y031805D02*
X016966Y031805D01*
X017586Y031280D02*
X017886Y031280D01*
X018047Y031355D02*
X018047Y031805D01*
X018272Y031805D01*
X018347Y031730D01*
X018347Y031580D01*
X018272Y031505D01*
X018047Y031505D01*
X018507Y031505D02*
X018732Y031505D01*
X018807Y031580D01*
X018807Y031730D01*
X018732Y031805D01*
X018507Y031805D01*
X018507Y031355D01*
X018657Y031505D02*
X018807Y031355D01*
X018967Y031280D02*
X019268Y031280D01*
X019428Y031430D02*
X019503Y031355D01*
X019653Y031355D01*
X019728Y031430D01*
X019888Y031355D02*
X019888Y031805D01*
X020188Y031355D01*
X020188Y031805D01*
X019728Y031730D02*
X019653Y031805D01*
X019503Y031805D01*
X019428Y031730D01*
X019428Y031430D01*
X016655Y029005D02*
X016505Y028855D01*
X016655Y029005D02*
X016655Y028555D01*
X016505Y028555D02*
X016805Y028555D01*
X016755Y026726D02*
X016830Y026651D01*
X016905Y026726D01*
X016980Y026726D01*
X017055Y026651D01*
X017055Y026501D01*
X016980Y026426D01*
X017055Y026266D02*
X017055Y025965D01*
X017055Y026116D02*
X016605Y026116D01*
X016755Y025965D01*
X016830Y025805D02*
X016905Y025730D01*
X016905Y025505D01*
X017055Y025505D02*
X016605Y025505D01*
X016605Y025730D01*
X016680Y025805D01*
X016830Y025805D01*
X016905Y025655D02*
X017055Y025805D01*
X017605Y025730D02*
X017605Y025505D01*
X018055Y025505D01*
X017905Y025505D02*
X017905Y025730D01*
X017830Y025805D01*
X017680Y025805D01*
X017605Y025730D01*
X017755Y025965D02*
X017605Y026116D01*
X018055Y026116D01*
X018055Y026266D02*
X018055Y025965D01*
X018055Y025805D02*
X017905Y025655D01*
X018605Y025730D02*
X018680Y025805D01*
X018830Y025805D01*
X018905Y025730D01*
X018905Y025505D01*
X019055Y025505D02*
X018605Y025505D01*
X018605Y025730D01*
X018605Y025965D02*
X018605Y026266D01*
X018680Y026266D01*
X018980Y025965D01*
X019055Y025965D01*
X019055Y025805D02*
X018905Y025655D01*
X019605Y025730D02*
X019605Y025505D01*
X020055Y025505D01*
X019905Y025505D02*
X019905Y025730D01*
X019830Y025805D01*
X019680Y025805D01*
X019605Y025730D01*
X019905Y025655D02*
X020055Y025805D01*
X019980Y025965D02*
X020055Y026040D01*
X020055Y026191D01*
X019980Y026266D01*
X019905Y026266D01*
X019830Y026191D01*
X019830Y025965D01*
X019980Y025965D01*
X019830Y025965D02*
X019680Y026116D01*
X019605Y026266D01*
X020605Y026191D02*
X020830Y025965D01*
X020830Y026266D01*
X021055Y026191D02*
X020605Y026191D01*
X020680Y025805D02*
X020830Y025805D01*
X020905Y025730D01*
X020905Y025505D01*
X021055Y025505D02*
X020605Y025505D01*
X020605Y025730D01*
X020680Y025805D01*
X020905Y025655D02*
X021055Y025805D01*
X021605Y025730D02*
X021605Y025505D01*
X022055Y025505D01*
X021905Y025505D02*
X021905Y025730D01*
X021830Y025805D01*
X021680Y025805D01*
X021605Y025730D01*
X021680Y025965D02*
X021605Y026040D01*
X021605Y026191D01*
X021680Y026266D01*
X021755Y026266D01*
X021830Y026191D01*
X021905Y026266D01*
X021980Y026266D01*
X022055Y026191D01*
X022055Y026040D01*
X021980Y025965D01*
X022055Y025805D02*
X021905Y025655D01*
X021830Y026116D02*
X021830Y026191D01*
X022605Y026191D02*
X022605Y026040D01*
X022680Y025965D01*
X022680Y025805D02*
X022830Y025805D01*
X022905Y025730D01*
X022905Y025505D01*
X023055Y025505D02*
X022605Y025505D01*
X022605Y025730D01*
X022680Y025805D01*
X022905Y025655D02*
X023055Y025805D01*
X023055Y025965D02*
X022755Y026266D01*
X022680Y026266D01*
X022605Y026191D01*
X023055Y026266D02*
X023055Y025965D01*
X024105Y027505D02*
X024105Y027730D01*
X024180Y027805D01*
X024330Y027805D01*
X024405Y027730D01*
X024405Y027505D01*
X024555Y027505D02*
X024105Y027505D01*
X024405Y027655D02*
X024555Y027805D01*
X024555Y027965D02*
X024555Y028266D01*
X024555Y028116D02*
X024105Y028116D01*
X024255Y027965D01*
X026555Y028725D02*
X026855Y028725D01*
X026705Y028725D02*
X026705Y029175D01*
X026555Y029025D01*
X029005Y027755D02*
X029005Y027305D01*
X029005Y027455D02*
X029230Y027455D01*
X029305Y027530D01*
X029305Y027680D01*
X029230Y027755D01*
X029005Y027755D01*
X029155Y027455D02*
X029305Y027305D01*
X029465Y027305D02*
X029766Y027305D01*
X029616Y027305D02*
X029616Y027755D01*
X029465Y027605D01*
X029926Y027605D02*
X030076Y027755D01*
X030076Y027305D01*
X029926Y027305D02*
X030226Y027305D01*
X030550Y028685D02*
X030475Y028760D01*
X030550Y028685D02*
X030700Y028685D01*
X030775Y028760D01*
X030775Y028910D01*
X030700Y028985D01*
X030625Y028985D01*
X030475Y028910D01*
X030475Y029135D01*
X030775Y029135D01*
X027373Y031890D02*
X027373Y032190D01*
X027298Y032265D01*
X027072Y032265D01*
X027072Y031815D01*
X027298Y031815D01*
X027373Y031890D01*
X026912Y031890D02*
X026837Y031815D01*
X026687Y031815D01*
X026612Y031890D01*
X026612Y032190D01*
X026687Y032265D01*
X026837Y032265D01*
X026912Y032190D01*
X026455Y032265D02*
X026305Y032265D01*
X026380Y032265D02*
X026380Y031815D01*
X026305Y031815D02*
X026455Y031815D01*
X023966Y031805D02*
X023816Y031730D01*
X023665Y031580D01*
X023891Y031580D01*
X023966Y031505D01*
X023966Y031430D01*
X023891Y031355D01*
X023740Y031355D01*
X023665Y031430D01*
X023665Y031580D01*
X023505Y031355D02*
X023205Y031355D01*
X023355Y031355D02*
X023355Y031805D01*
X023205Y031655D01*
X018055Y026726D02*
X018055Y026426D01*
X017755Y026726D01*
X017680Y026726D01*
X017605Y026651D01*
X017605Y026501D01*
X017680Y026426D01*
X016830Y026576D02*
X016830Y026651D01*
X016755Y026726D02*
X016680Y026726D01*
X016605Y026651D01*
X016605Y026501D01*
X016680Y026426D01*
X016055Y026501D02*
X015980Y026426D01*
X016055Y026501D02*
X016055Y026651D01*
X015980Y026726D01*
X015905Y026726D01*
X015830Y026651D01*
X015830Y026576D01*
X015830Y026651D02*
X015755Y026726D01*
X015680Y026726D01*
X015605Y026651D01*
X015605Y026501D01*
X015680Y026426D01*
X015680Y026266D02*
X015605Y026191D01*
X015605Y026040D01*
X015680Y025965D01*
X015680Y025805D02*
X015830Y025805D01*
X015905Y025730D01*
X015905Y025505D01*
X016055Y025505D02*
X015605Y025505D01*
X015605Y025730D01*
X015680Y025805D01*
X015905Y025655D02*
X016055Y025805D01*
X016055Y025965D02*
X015755Y026266D01*
X015680Y026266D01*
X016055Y026266D02*
X016055Y025965D01*
D13*
X016680Y025260D03*
X017680Y025260D03*
X018680Y025260D03*
X019680Y025260D03*
X020680Y025260D03*
X021680Y025260D03*
X022680Y025260D03*
X023680Y025260D03*
X025180Y027260D03*
X023680Y028100D03*
X022680Y028100D03*
X021680Y028100D03*
X020680Y028100D03*
X019680Y028100D03*
X018680Y028100D03*
X017680Y028100D03*
X016680Y028100D03*
X012180Y028100D03*
X011180Y028100D03*
X010180Y028100D03*
X009180Y028100D03*
X008180Y028100D03*
X007180Y028100D03*
X006180Y028100D03*
X005180Y028100D03*
X005180Y025260D03*
X006180Y025260D03*
X007180Y025260D03*
X008180Y025260D03*
X009180Y025260D03*
X010180Y025260D03*
X011180Y025260D03*
X012180Y025260D03*
X011180Y018100D03*
X011180Y015260D03*
X020680Y015760D03*
X020680Y018600D03*
X025180Y030100D03*
X035180Y015100D03*
X036180Y015100D03*
X036180Y012260D03*
X035180Y012260D03*
D14*
X028310Y025365D02*
X027889Y025365D01*
X028099Y025365D02*
X028099Y025996D01*
X027889Y025785D01*
X027665Y025890D02*
X027560Y025996D01*
X027350Y025996D01*
X027245Y025890D01*
X027245Y025470D01*
X027350Y025365D01*
X027560Y025365D01*
X027665Y025470D01*
X027025Y025365D02*
X026815Y025365D01*
X026920Y025365D02*
X026920Y025996D01*
X026815Y025996D02*
X027025Y025996D01*
D15*
X033430Y017810D02*
X033680Y017810D01*
X033930Y017810D01*
X033930Y017560D02*
X033680Y017560D01*
X033430Y017560D01*
X023800Y014930D02*
X023800Y014680D01*
X023800Y014430D01*
X023550Y014430D02*
X023550Y014680D01*
X023550Y014930D01*
X017800Y013930D02*
X017800Y013680D01*
X017800Y013430D01*
X017550Y013430D02*
X017550Y013680D01*
X017550Y013930D01*
X013800Y018430D02*
X013800Y018680D01*
X013800Y018930D01*
X013550Y018930D02*
X013550Y018680D01*
X013550Y018430D01*
X008300Y013930D02*
X008300Y013680D01*
X008300Y013430D01*
X008050Y013430D02*
X008050Y013680D01*
X008050Y013930D01*
X003430Y017550D02*
X003180Y017550D01*
X002930Y017550D01*
X002930Y017800D02*
X003180Y017800D01*
X003430Y017800D01*
X020930Y006800D02*
X021180Y006800D01*
X021430Y006800D01*
X021430Y006550D02*
X021180Y006550D01*
X020930Y006550D01*
X022430Y006550D02*
X022680Y006550D01*
X022930Y006550D01*
X022930Y006800D02*
X022680Y006800D01*
X022430Y006800D01*
X024430Y006800D02*
X024680Y006800D01*
X024930Y006800D01*
X024930Y006550D02*
X024680Y006550D01*
X024430Y006550D01*
D16*
X013010Y021000D02*
X013010Y021153D01*
X013010Y021077D02*
X012550Y021077D01*
X012550Y021153D02*
X012550Y021000D01*
X012626Y021307D02*
X012933Y021307D01*
X013010Y021384D01*
X013010Y021537D01*
X012933Y021614D01*
X013010Y021767D02*
X012703Y022074D01*
X012626Y022074D01*
X012550Y021998D01*
X012550Y021844D01*
X012626Y021767D01*
X012626Y021614D02*
X012550Y021537D01*
X012550Y021384D01*
X012626Y021307D01*
X013010Y021767D02*
X013010Y022074D01*
X001510Y021998D02*
X001050Y021998D01*
X001280Y021767D01*
X001280Y022074D01*
X001433Y021614D02*
X001510Y021537D01*
X001510Y021384D01*
X001433Y021307D01*
X001126Y021307D01*
X001050Y021384D01*
X001050Y021537D01*
X001126Y021614D01*
X001050Y021153D02*
X001050Y021000D01*
X001050Y021077D02*
X001510Y021077D01*
X001510Y021153D02*
X001510Y021000D01*
D17*
X012295Y014548D02*
X012312Y014541D01*
X012311Y014541D02*
X012290Y014485D01*
X012272Y014428D01*
X012258Y014370D01*
X012248Y014310D01*
X012242Y014251D01*
X012239Y014191D01*
X012240Y014131D01*
X012245Y014071D01*
X012254Y014012D01*
X012267Y013953D01*
X012283Y013895D01*
X012303Y013839D01*
X012327Y013784D01*
X012354Y013730D01*
X012384Y013678D01*
X012417Y013629D01*
X012454Y013581D01*
X012494Y013536D01*
X012536Y013494D01*
X012581Y013454D01*
X012629Y013417D01*
X012678Y013384D01*
X012730Y013354D01*
X012784Y013327D01*
X012839Y013303D01*
X012895Y013283D01*
X012953Y013267D01*
X013012Y013254D01*
X013071Y013245D01*
X013131Y013240D01*
X013191Y013239D01*
X013251Y013242D01*
X013310Y013248D01*
X013370Y013258D01*
X013428Y013272D01*
X013485Y013290D01*
X013541Y013311D01*
X013548Y013295D01*
X013491Y013273D01*
X013433Y013255D01*
X013373Y013241D01*
X013313Y013230D01*
X013252Y013224D01*
X013191Y013221D01*
X013130Y013222D01*
X013069Y013227D01*
X013009Y013236D01*
X012949Y013249D01*
X012890Y013266D01*
X012832Y013286D01*
X012776Y013310D01*
X012722Y013338D01*
X012669Y013369D01*
X012618Y013403D01*
X012570Y013440D01*
X012524Y013481D01*
X012481Y013524D01*
X012440Y013570D01*
X012403Y013618D01*
X012369Y013669D01*
X012338Y013722D01*
X012310Y013776D01*
X012286Y013832D01*
X012266Y013890D01*
X012249Y013949D01*
X012236Y014009D01*
X012227Y014069D01*
X012222Y014130D01*
X012221Y014191D01*
X012224Y014252D01*
X012230Y014313D01*
X012241Y014373D01*
X012255Y014433D01*
X012273Y014491D01*
X012295Y014548D01*
X012274Y014491D01*
X012256Y014432D01*
X012242Y014373D01*
X012231Y014313D01*
X012225Y014252D01*
X012222Y014191D01*
X012223Y014130D01*
X012228Y014069D01*
X012237Y014009D01*
X012250Y013949D01*
X012267Y013890D01*
X012287Y013833D01*
X012311Y013777D01*
X012339Y013722D01*
X012369Y013669D01*
X012404Y013619D01*
X012441Y013570D01*
X012481Y013525D01*
X012525Y013481D01*
X012570Y013441D01*
X012619Y013404D01*
X012669Y013369D01*
X012722Y013339D01*
X012777Y013311D01*
X012833Y013287D01*
X012890Y013267D01*
X012949Y013250D01*
X013009Y013237D01*
X013069Y013228D01*
X013130Y013223D01*
X013191Y013222D01*
X013252Y013225D01*
X013313Y013231D01*
X013373Y013242D01*
X013432Y013256D01*
X013491Y013274D01*
X013548Y013295D01*
X013547Y013296D01*
X013490Y013275D01*
X013432Y013257D01*
X013373Y013243D01*
X013313Y013232D01*
X013252Y013226D01*
X013191Y013223D01*
X013130Y013224D01*
X013069Y013229D01*
X013009Y013238D01*
X012949Y013251D01*
X012891Y013268D01*
X012833Y013288D01*
X012777Y013312D01*
X012722Y013339D01*
X012670Y013370D01*
X012619Y013404D01*
X012571Y013442D01*
X012525Y013482D01*
X012482Y013525D01*
X012442Y013571D01*
X012404Y013619D01*
X012370Y013670D01*
X012339Y013722D01*
X012312Y013777D01*
X012288Y013833D01*
X012268Y013891D01*
X012251Y013949D01*
X012238Y014009D01*
X012229Y014069D01*
X012224Y014130D01*
X012223Y014191D01*
X012226Y014252D01*
X012232Y014313D01*
X012243Y014373D01*
X012257Y014432D01*
X012275Y014490D01*
X012296Y014547D01*
X012297Y014547D01*
X012276Y014490D01*
X012258Y014432D01*
X012244Y014373D01*
X012233Y014313D01*
X012227Y014252D01*
X012224Y014191D01*
X012225Y014130D01*
X012230Y014069D01*
X012239Y014009D01*
X012252Y013950D01*
X012269Y013891D01*
X012289Y013833D01*
X012313Y013777D01*
X012340Y013723D01*
X012371Y013670D01*
X012405Y013620D01*
X012443Y013572D01*
X012483Y013526D01*
X012526Y013483D01*
X012572Y013443D01*
X012620Y013405D01*
X012670Y013371D01*
X012723Y013340D01*
X012777Y013313D01*
X012833Y013289D01*
X012891Y013269D01*
X012950Y013252D01*
X013009Y013239D01*
X013069Y013230D01*
X013130Y013225D01*
X013191Y013224D01*
X013252Y013227D01*
X013313Y013233D01*
X013373Y013244D01*
X013432Y013258D01*
X013490Y013276D01*
X013547Y013297D01*
X013547Y013298D01*
X013490Y013277D01*
X013432Y013259D01*
X013372Y013245D01*
X013312Y013234D01*
X013252Y013228D01*
X013191Y013225D01*
X013130Y013226D01*
X013070Y013231D01*
X013009Y013240D01*
X012950Y013253D01*
X012891Y013270D01*
X012834Y013290D01*
X012778Y013314D01*
X012723Y013341D01*
X012671Y013372D01*
X012620Y013406D01*
X012572Y013443D01*
X012527Y013484D01*
X012484Y013527D01*
X012443Y013572D01*
X012406Y013620D01*
X012372Y013671D01*
X012341Y013723D01*
X012314Y013778D01*
X012290Y013834D01*
X012270Y013891D01*
X012253Y013950D01*
X012240Y014009D01*
X012231Y014070D01*
X012226Y014130D01*
X012225Y014191D01*
X012228Y014252D01*
X012234Y014312D01*
X012245Y014372D01*
X012259Y014432D01*
X012277Y014490D01*
X012298Y014547D01*
X012299Y014546D01*
X012278Y014489D01*
X012260Y014431D01*
X012246Y014372D01*
X012235Y014312D01*
X012229Y014252D01*
X012226Y014191D01*
X012227Y014130D01*
X012232Y014070D01*
X012241Y014009D01*
X012254Y013950D01*
X012271Y013891D01*
X012291Y013834D01*
X012315Y013778D01*
X012342Y013724D01*
X012373Y013671D01*
X012407Y013621D01*
X012444Y013573D01*
X012484Y013527D01*
X012527Y013484D01*
X012573Y013444D01*
X012621Y013407D01*
X012671Y013373D01*
X012724Y013342D01*
X012778Y013315D01*
X012834Y013291D01*
X012891Y013271D01*
X012950Y013254D01*
X013009Y013241D01*
X013070Y013232D01*
X013130Y013227D01*
X013191Y013226D01*
X013252Y013229D01*
X013312Y013235D01*
X013372Y013246D01*
X013431Y013260D01*
X013489Y013278D01*
X013546Y013299D01*
X013546Y013300D01*
X013489Y013279D01*
X013431Y013261D01*
X013372Y013247D01*
X013312Y013236D01*
X013252Y013230D01*
X013191Y013227D01*
X013130Y013228D01*
X013070Y013233D01*
X013010Y013242D01*
X012950Y013255D01*
X012892Y013272D01*
X012835Y013292D01*
X012779Y013316D01*
X012724Y013343D01*
X012672Y013374D01*
X012622Y013408D01*
X012574Y013445D01*
X012528Y013485D01*
X012485Y013528D01*
X012445Y013574D01*
X012408Y013622D01*
X012374Y013672D01*
X012343Y013724D01*
X012316Y013779D01*
X012292Y013835D01*
X012272Y013892D01*
X012255Y013950D01*
X012242Y014010D01*
X012233Y014070D01*
X012228Y014130D01*
X012227Y014191D01*
X012230Y014252D01*
X012236Y014312D01*
X012247Y014372D01*
X012261Y014431D01*
X012279Y014489D01*
X012300Y014546D01*
X012301Y014546D01*
X012279Y014489D01*
X012262Y014431D01*
X012248Y014372D01*
X012237Y014312D01*
X012231Y014252D01*
X012228Y014191D01*
X012229Y014130D01*
X012234Y014070D01*
X012243Y014010D01*
X012256Y013951D01*
X012273Y013892D01*
X012293Y013835D01*
X012317Y013779D01*
X012344Y013725D01*
X012375Y013672D01*
X012409Y013622D01*
X012446Y013574D01*
X012486Y013529D01*
X012529Y013486D01*
X012574Y013446D01*
X012622Y013409D01*
X012672Y013375D01*
X012725Y013344D01*
X012779Y013317D01*
X012835Y013293D01*
X012892Y013273D01*
X012951Y013256D01*
X013010Y013243D01*
X013070Y013234D01*
X013130Y013229D01*
X013191Y013228D01*
X013252Y013231D01*
X013312Y013237D01*
X013372Y013248D01*
X013431Y013262D01*
X013489Y013279D01*
X013546Y013301D01*
X013545Y013302D01*
X013488Y013280D01*
X013431Y013263D01*
X013372Y013248D01*
X013312Y013238D01*
X013252Y013232D01*
X013191Y013229D01*
X013130Y013230D01*
X013070Y013235D01*
X013010Y013244D01*
X012951Y013257D01*
X012892Y013274D01*
X012835Y013294D01*
X012779Y013317D01*
X012725Y013345D01*
X012673Y013375D01*
X012623Y013409D01*
X012575Y013446D01*
X012529Y013486D01*
X012486Y013529D01*
X012446Y013575D01*
X012409Y013623D01*
X012375Y013673D01*
X012345Y013725D01*
X012317Y013779D01*
X012294Y013835D01*
X012274Y013892D01*
X012257Y013951D01*
X012244Y014010D01*
X012235Y014070D01*
X012230Y014130D01*
X012229Y014191D01*
X012232Y014252D01*
X012238Y014312D01*
X012248Y014372D01*
X012263Y014431D01*
X012280Y014488D01*
X012302Y014545D01*
X012303Y014545D01*
X012281Y014488D01*
X012264Y014430D01*
X012249Y014371D01*
X012239Y014312D01*
X012233Y014251D01*
X012230Y014191D01*
X012231Y014130D01*
X012236Y014070D01*
X012245Y014010D01*
X012258Y013951D01*
X012274Y013893D01*
X012295Y013836D01*
X012318Y013780D01*
X012346Y013726D01*
X012376Y013674D01*
X012410Y013623D01*
X012447Y013575D01*
X012487Y013530D01*
X012530Y013487D01*
X012575Y013447D01*
X012623Y013410D01*
X012674Y013376D01*
X012726Y013346D01*
X012780Y013318D01*
X012836Y013295D01*
X012893Y013274D01*
X012951Y013258D01*
X013010Y013245D01*
X013070Y013236D01*
X013130Y013231D01*
X013191Y013230D01*
X013251Y013233D01*
X013312Y013239D01*
X013371Y013249D01*
X013430Y013264D01*
X013488Y013281D01*
X013545Y013303D01*
X013544Y013304D01*
X013488Y013282D01*
X013430Y013265D01*
X013371Y013250D01*
X013312Y013240D01*
X013251Y013234D01*
X013191Y013231D01*
X013130Y013232D01*
X013070Y013237D01*
X013010Y013246D01*
X012951Y013259D01*
X012893Y013275D01*
X012836Y013296D01*
X012780Y013319D01*
X012726Y013346D01*
X012674Y013377D01*
X012624Y013411D01*
X012576Y013448D01*
X012531Y013488D01*
X012488Y013531D01*
X012448Y013576D01*
X012411Y013624D01*
X012377Y013674D01*
X012346Y013726D01*
X012319Y013780D01*
X012296Y013836D01*
X012275Y013893D01*
X012259Y013951D01*
X012246Y014010D01*
X012237Y014070D01*
X012232Y014130D01*
X012231Y014191D01*
X012234Y014251D01*
X012240Y014312D01*
X012250Y014371D01*
X012265Y014430D01*
X012282Y014488D01*
X012304Y014544D01*
X012305Y014544D01*
X012283Y014487D01*
X012265Y014430D01*
X012251Y014371D01*
X012241Y014311D01*
X012235Y014251D01*
X012232Y014191D01*
X012233Y014131D01*
X012238Y014070D01*
X012247Y014011D01*
X012260Y013951D01*
X012276Y013893D01*
X012296Y013836D01*
X012320Y013781D01*
X012347Y013727D01*
X012378Y013675D01*
X012412Y013625D01*
X012449Y013577D01*
X012489Y013531D01*
X012531Y013489D01*
X012577Y013449D01*
X012625Y013412D01*
X012675Y013378D01*
X012727Y013347D01*
X012781Y013320D01*
X012836Y013296D01*
X012893Y013276D01*
X012951Y013260D01*
X013011Y013247D01*
X013070Y013238D01*
X013131Y013233D01*
X013191Y013232D01*
X013251Y013235D01*
X013311Y013241D01*
X013371Y013251D01*
X013430Y013265D01*
X013487Y013283D01*
X013544Y013305D01*
X013544Y013306D01*
X013487Y013284D01*
X013429Y013266D01*
X013371Y013252D01*
X013311Y013242D01*
X013251Y013236D01*
X013191Y013233D01*
X013131Y013234D01*
X013070Y013239D01*
X013011Y013248D01*
X012952Y013261D01*
X012894Y013277D01*
X012837Y013297D01*
X012781Y013321D01*
X012727Y013348D01*
X012675Y013379D01*
X012625Y013413D01*
X012577Y013449D01*
X012532Y013489D01*
X012489Y013532D01*
X012449Y013577D01*
X012413Y013625D01*
X012379Y013675D01*
X012348Y013727D01*
X012321Y013781D01*
X012297Y013837D01*
X012277Y013894D01*
X012261Y013952D01*
X012248Y014011D01*
X012239Y014070D01*
X012234Y014131D01*
X012233Y014191D01*
X012236Y014251D01*
X012242Y014311D01*
X012252Y014371D01*
X012266Y014429D01*
X012284Y014487D01*
X012306Y014544D01*
X012307Y014543D01*
X012285Y014487D01*
X012267Y014429D01*
X012253Y014371D01*
X012243Y014311D01*
X012237Y014251D01*
X012234Y014191D01*
X012235Y014131D01*
X012240Y014071D01*
X012249Y014011D01*
X012262Y013952D01*
X012278Y013894D01*
X012298Y013837D01*
X012322Y013782D01*
X012349Y013728D01*
X012380Y013676D01*
X012413Y013626D01*
X012450Y013578D01*
X012490Y013533D01*
X012533Y013490D01*
X012578Y013450D01*
X012626Y013413D01*
X012676Y013380D01*
X012728Y013349D01*
X012782Y013322D01*
X012837Y013298D01*
X012894Y013278D01*
X012952Y013262D01*
X013011Y013249D01*
X013071Y013240D01*
X013131Y013235D01*
X013191Y013234D01*
X013251Y013237D01*
X013311Y013243D01*
X013371Y013253D01*
X013429Y013267D01*
X013487Y013285D01*
X013543Y013307D01*
X013487Y013286D01*
X013429Y013268D01*
X013370Y013254D01*
X013311Y013244D01*
X013251Y013238D01*
X013191Y013235D01*
X013131Y013236D01*
X013071Y013241D01*
X013011Y013250D01*
X012952Y013263D01*
X012894Y013279D01*
X012837Y013299D01*
X012782Y013323D01*
X012728Y013350D01*
X012676Y013380D01*
X012626Y013414D01*
X012579Y013451D01*
X012533Y013491D01*
X012491Y013533D01*
X012451Y013579D01*
X012414Y013626D01*
X012380Y013676D01*
X012350Y013728D01*
X012323Y013782D01*
X012299Y013837D01*
X012279Y013894D01*
X012263Y013952D01*
X012250Y014011D01*
X012241Y014071D01*
X012236Y014131D01*
X012235Y014191D01*
X012238Y014251D01*
X012244Y014311D01*
X012254Y014370D01*
X012268Y014429D01*
X012286Y014487D01*
X012307Y014543D01*
X012308Y014542D01*
X012287Y014486D01*
X012269Y014429D01*
X012255Y014370D01*
X012245Y014311D01*
X012239Y014251D01*
X012236Y014191D01*
X012237Y014131D01*
X012242Y014071D01*
X012251Y014011D01*
X012264Y013952D01*
X012280Y013895D01*
X012300Y013838D01*
X012324Y013782D01*
X012351Y013729D01*
X012381Y013677D01*
X012415Y013627D01*
X012452Y013579D01*
X012492Y013534D01*
X012534Y013492D01*
X012579Y013452D01*
X012627Y013415D01*
X012677Y013381D01*
X012729Y013351D01*
X012782Y013324D01*
X012838Y013300D01*
X012895Y013280D01*
X012952Y013264D01*
X013011Y013251D01*
X013071Y013242D01*
X013131Y013237D01*
X013191Y013236D01*
X013251Y013239D01*
X013311Y013245D01*
X013370Y013255D01*
X013429Y013269D01*
X013486Y013287D01*
X013542Y013308D01*
X013542Y013309D01*
X013486Y013288D01*
X013428Y013270D01*
X013370Y013256D01*
X013311Y013246D01*
X013251Y013240D01*
X013191Y013237D01*
X013131Y013238D01*
X013071Y013243D01*
X013011Y013252D01*
X012953Y013265D01*
X012895Y013281D01*
X012838Y013301D01*
X012783Y013325D01*
X012729Y013352D01*
X012677Y013382D01*
X012627Y013416D01*
X012580Y013453D01*
X012535Y013492D01*
X012492Y013535D01*
X012453Y013580D01*
X012416Y013627D01*
X012382Y013677D01*
X012352Y013729D01*
X012325Y013783D01*
X012301Y013838D01*
X012281Y013895D01*
X012265Y013953D01*
X012252Y014011D01*
X012243Y014071D01*
X012238Y014131D01*
X012237Y014191D01*
X012240Y014251D01*
X012246Y014311D01*
X012256Y014370D01*
X012270Y014428D01*
X012288Y014486D01*
X012309Y014542D01*
X012310Y014542D01*
X012289Y014486D01*
X012271Y014428D01*
X012257Y014370D01*
X012247Y014311D01*
X012241Y014251D01*
X012238Y014191D01*
X012239Y014131D01*
X012244Y014071D01*
X012253Y014012D01*
X012266Y013953D01*
X012282Y013895D01*
X012302Y013838D01*
X012326Y013783D01*
X012353Y013730D01*
X012383Y013678D01*
X012417Y013628D01*
X012453Y013581D01*
X012493Y013535D01*
X012535Y013493D01*
X012581Y013453D01*
X012628Y013417D01*
X012678Y013383D01*
X012730Y013353D01*
X012783Y013326D01*
X012838Y013302D01*
X012895Y013282D01*
X012953Y013266D01*
X013012Y013253D01*
X013071Y013244D01*
X013131Y013239D01*
X013191Y013238D01*
X013251Y013241D01*
X013311Y013247D01*
X013370Y013257D01*
X013428Y013271D01*
X013486Y013289D01*
X013542Y013310D01*
X013548Y015065D02*
X013541Y015048D01*
X013541Y015049D02*
X013488Y015069D01*
X013434Y015086D01*
X013378Y015100D01*
X013322Y015110D01*
X013265Y015117D01*
X013209Y015121D01*
X013151Y015121D01*
X013095Y015117D01*
X013038Y015110D01*
X012982Y015100D01*
X012926Y015086D01*
X012872Y015069D01*
X012819Y015049D01*
X012812Y015065D01*
X012866Y015086D01*
X012922Y015104D01*
X012978Y015117D01*
X013035Y015128D01*
X013093Y015135D01*
X013151Y015139D01*
X013209Y015139D01*
X013267Y015135D01*
X013325Y015128D01*
X013382Y015117D01*
X013438Y015104D01*
X013494Y015086D01*
X013548Y015065D01*
X013494Y015085D01*
X013438Y015103D01*
X013382Y015117D01*
X013325Y015127D01*
X013267Y015134D01*
X013209Y015138D01*
X013151Y015138D01*
X013093Y015134D01*
X013035Y015127D01*
X012978Y015117D01*
X012922Y015103D01*
X012866Y015085D01*
X012812Y015065D01*
X012813Y015064D01*
X012867Y015084D01*
X012922Y015102D01*
X012978Y015116D01*
X013035Y015126D01*
X013093Y015133D01*
X013151Y015137D01*
X013209Y015137D01*
X013267Y015133D01*
X013325Y015126D01*
X013382Y015116D01*
X013438Y015102D01*
X013493Y015084D01*
X013547Y015064D01*
X013547Y015063D01*
X013493Y015083D01*
X013438Y015101D01*
X013381Y015115D01*
X013324Y015125D01*
X013267Y015132D01*
X013209Y015136D01*
X013151Y015136D01*
X013093Y015132D01*
X013036Y015125D01*
X012979Y015115D01*
X012922Y015101D01*
X012867Y015083D01*
X012813Y015063D01*
X012813Y015062D01*
X012867Y015082D01*
X012923Y015100D01*
X012979Y015114D01*
X013036Y015124D01*
X013093Y015131D01*
X013151Y015135D01*
X013209Y015135D01*
X013267Y015131D01*
X013324Y015124D01*
X013381Y015114D01*
X013437Y015100D01*
X013493Y015082D01*
X013547Y015062D01*
X013546Y015061D01*
X013492Y015081D01*
X013437Y015099D01*
X013381Y015113D01*
X013324Y015123D01*
X013267Y015130D01*
X013209Y015134D01*
X013151Y015134D01*
X013093Y015130D01*
X013036Y015123D01*
X012979Y015113D01*
X012923Y015099D01*
X012868Y015081D01*
X012814Y015061D01*
X012814Y015060D01*
X012868Y015080D01*
X012923Y015098D01*
X012979Y015112D01*
X013036Y015122D01*
X013093Y015129D01*
X013151Y015133D01*
X013209Y015133D01*
X013267Y015129D01*
X013324Y015122D01*
X013381Y015112D01*
X013437Y015098D01*
X013492Y015080D01*
X013546Y015060D01*
X013546Y015059D01*
X013492Y015080D01*
X013437Y015097D01*
X013381Y015111D01*
X013324Y015121D01*
X013266Y015128D01*
X013209Y015132D01*
X013151Y015132D01*
X013094Y015128D01*
X013036Y015121D01*
X012979Y015111D01*
X012923Y015097D01*
X012868Y015080D01*
X012814Y015059D01*
X012815Y015058D01*
X012869Y015079D01*
X012924Y015096D01*
X012980Y015110D01*
X013036Y015120D01*
X013094Y015127D01*
X013151Y015131D01*
X013209Y015131D01*
X013266Y015127D01*
X013324Y015120D01*
X013380Y015110D01*
X013436Y015096D01*
X013491Y015079D01*
X013545Y015058D01*
X013545Y015057D01*
X013491Y015078D01*
X013436Y015095D01*
X013380Y015109D01*
X013323Y015119D01*
X013266Y015126D01*
X013209Y015130D01*
X013151Y015130D01*
X013094Y015126D01*
X013037Y015119D01*
X012980Y015109D01*
X012924Y015095D01*
X012869Y015078D01*
X012815Y015057D01*
X012816Y015056D01*
X012869Y015077D01*
X012924Y015094D01*
X012980Y015108D01*
X013037Y015118D01*
X013094Y015125D01*
X013151Y015129D01*
X013209Y015129D01*
X013266Y015125D01*
X013323Y015118D01*
X013380Y015108D01*
X013436Y015094D01*
X013491Y015077D01*
X013544Y015056D01*
X013544Y015055D01*
X013490Y015076D01*
X013435Y015093D01*
X013380Y015107D01*
X013323Y015117D01*
X013266Y015124D01*
X013209Y015128D01*
X013151Y015128D01*
X013094Y015124D01*
X013037Y015117D01*
X012980Y015107D01*
X012925Y015093D01*
X012870Y015076D01*
X012816Y015055D01*
X012816Y015054D01*
X012870Y015075D01*
X012925Y015092D01*
X012981Y015106D01*
X013037Y015116D01*
X013094Y015123D01*
X013151Y015127D01*
X013209Y015127D01*
X013266Y015123D01*
X013323Y015116D01*
X013379Y015106D01*
X013435Y015092D01*
X013490Y015075D01*
X013544Y015054D01*
X013543Y015053D01*
X013490Y015074D01*
X013435Y015091D01*
X013379Y015105D01*
X013323Y015115D01*
X013266Y015122D01*
X013209Y015126D01*
X013151Y015126D01*
X013094Y015122D01*
X013037Y015115D01*
X012981Y015105D01*
X012925Y015091D01*
X012870Y015074D01*
X012817Y015053D01*
X012871Y015073D01*
X012925Y015090D01*
X012981Y015104D01*
X013037Y015114D01*
X013094Y015121D01*
X013151Y015125D01*
X013209Y015125D01*
X013266Y015121D01*
X013323Y015114D01*
X013379Y015104D01*
X013435Y015090D01*
X013489Y015073D01*
X013543Y015053D01*
X013542Y015052D01*
X013489Y015072D01*
X013434Y015089D01*
X013379Y015103D01*
X013323Y015113D01*
X013266Y015120D01*
X013209Y015124D01*
X013151Y015124D01*
X013094Y015120D01*
X013037Y015113D01*
X012981Y015103D01*
X012926Y015089D01*
X012871Y015072D01*
X012818Y015052D01*
X012818Y015051D01*
X012871Y015071D01*
X012926Y015088D01*
X012981Y015102D01*
X013038Y015112D01*
X013094Y015119D01*
X013151Y015123D01*
X013209Y015123D01*
X013266Y015119D01*
X013322Y015112D01*
X013379Y015102D01*
X013434Y015088D01*
X013489Y015071D01*
X013542Y015051D01*
X013542Y015050D01*
X013488Y015070D01*
X013434Y015087D01*
X013378Y015101D01*
X013322Y015111D01*
X013266Y015118D01*
X013209Y015122D01*
X013151Y015122D01*
X013094Y015118D01*
X013038Y015111D01*
X012982Y015101D01*
X012926Y015087D01*
X012872Y015070D01*
X012818Y015050D01*
X014065Y013812D02*
X014048Y013819D01*
X014049Y013819D02*
X014069Y013872D01*
X014086Y013926D01*
X014100Y013982D01*
X014110Y014038D01*
X014117Y014095D01*
X014121Y014151D01*
X014121Y014209D01*
X014117Y014265D01*
X014110Y014322D01*
X014100Y014378D01*
X014086Y014434D01*
X014069Y014488D01*
X014049Y014541D01*
X014065Y014548D01*
X014086Y014494D01*
X014104Y014438D01*
X014117Y014382D01*
X014128Y014325D01*
X014135Y014267D01*
X014139Y014209D01*
X014139Y014151D01*
X014135Y014093D01*
X014128Y014035D01*
X014117Y013978D01*
X014104Y013922D01*
X014086Y013866D01*
X014065Y013812D01*
X014085Y013866D01*
X014103Y013922D01*
X014117Y013978D01*
X014127Y014035D01*
X014134Y014093D01*
X014138Y014151D01*
X014138Y014209D01*
X014134Y014267D01*
X014127Y014325D01*
X014117Y014382D01*
X014103Y014438D01*
X014085Y014494D01*
X014065Y014548D01*
X014064Y014547D01*
X014084Y014493D01*
X014102Y014438D01*
X014116Y014382D01*
X014126Y014325D01*
X014133Y014267D01*
X014137Y014209D01*
X014137Y014151D01*
X014133Y014093D01*
X014126Y014035D01*
X014116Y013978D01*
X014102Y013922D01*
X014084Y013867D01*
X014064Y013813D01*
X014063Y013813D01*
X014083Y013867D01*
X014101Y013922D01*
X014115Y013979D01*
X014125Y014036D01*
X014132Y014093D01*
X014136Y014151D01*
X014136Y014209D01*
X014132Y014267D01*
X014125Y014324D01*
X014115Y014381D01*
X014101Y014438D01*
X014083Y014493D01*
X014063Y014547D01*
X014062Y014547D01*
X014082Y014493D01*
X014100Y014437D01*
X014114Y014381D01*
X014124Y014324D01*
X014131Y014267D01*
X014135Y014209D01*
X014135Y014151D01*
X014131Y014093D01*
X014124Y014036D01*
X014114Y013979D01*
X014100Y013923D01*
X014082Y013867D01*
X014062Y013813D01*
X014061Y013814D01*
X014081Y013868D01*
X014099Y013923D01*
X014113Y013979D01*
X014123Y014036D01*
X014130Y014093D01*
X014134Y014151D01*
X014134Y014209D01*
X014130Y014267D01*
X014123Y014324D01*
X014113Y014381D01*
X014099Y014437D01*
X014081Y014492D01*
X014061Y014546D01*
X014060Y014546D01*
X014080Y014492D01*
X014098Y014437D01*
X014112Y014381D01*
X014122Y014324D01*
X014129Y014267D01*
X014133Y014209D01*
X014133Y014151D01*
X014129Y014093D01*
X014122Y014036D01*
X014112Y013979D01*
X014098Y013923D01*
X014080Y013868D01*
X014060Y013814D01*
X014059Y013814D01*
X014080Y013868D01*
X014097Y013923D01*
X014111Y013979D01*
X014121Y014036D01*
X014128Y014094D01*
X014132Y014151D01*
X014132Y014209D01*
X014128Y014266D01*
X014121Y014324D01*
X014111Y014381D01*
X014097Y014437D01*
X014080Y014492D01*
X014059Y014546D01*
X014058Y014545D01*
X014079Y014491D01*
X014096Y014436D01*
X014110Y014380D01*
X014120Y014324D01*
X014127Y014266D01*
X014131Y014209D01*
X014131Y014151D01*
X014127Y014094D01*
X014120Y014036D01*
X014110Y013980D01*
X014096Y013924D01*
X014079Y013869D01*
X014058Y013815D01*
X014057Y013815D01*
X014078Y013869D01*
X014095Y013924D01*
X014109Y013980D01*
X014119Y014037D01*
X014126Y014094D01*
X014130Y014151D01*
X014130Y014209D01*
X014126Y014266D01*
X014119Y014323D01*
X014109Y014380D01*
X014095Y014436D01*
X014078Y014491D01*
X014057Y014545D01*
X014056Y014544D01*
X014077Y014491D01*
X014094Y014436D01*
X014108Y014380D01*
X014118Y014323D01*
X014125Y014266D01*
X014129Y014209D01*
X014129Y014151D01*
X014125Y014094D01*
X014118Y014037D01*
X014108Y013980D01*
X014094Y013924D01*
X014077Y013869D01*
X014056Y013816D01*
X014055Y013816D01*
X014076Y013870D01*
X014093Y013925D01*
X014107Y013980D01*
X014117Y014037D01*
X014124Y014094D01*
X014128Y014151D01*
X014128Y014209D01*
X014124Y014266D01*
X014117Y014323D01*
X014107Y014380D01*
X014093Y014435D01*
X014076Y014490D01*
X014055Y014544D01*
X014054Y014544D01*
X014075Y014490D01*
X014092Y014435D01*
X014106Y014379D01*
X014116Y014323D01*
X014123Y014266D01*
X014127Y014209D01*
X014127Y014151D01*
X014123Y014094D01*
X014116Y014037D01*
X014106Y013981D01*
X014092Y013925D01*
X014075Y013870D01*
X014054Y013816D01*
X014053Y013817D01*
X014074Y013870D01*
X014091Y013925D01*
X014105Y013981D01*
X014115Y014037D01*
X014122Y014094D01*
X014126Y014151D01*
X014126Y014209D01*
X014122Y014266D01*
X014115Y014323D01*
X014105Y014379D01*
X014091Y014435D01*
X014074Y014490D01*
X014053Y014543D01*
X014073Y014489D01*
X014090Y014435D01*
X014104Y014379D01*
X014114Y014323D01*
X014121Y014266D01*
X014125Y014209D01*
X014125Y014151D01*
X014121Y014094D01*
X014114Y014037D01*
X014104Y013981D01*
X014090Y013925D01*
X014073Y013871D01*
X014053Y013817D01*
X014052Y013818D01*
X014072Y013871D01*
X014089Y013926D01*
X014103Y013981D01*
X014113Y014037D01*
X014120Y014094D01*
X014124Y014151D01*
X014124Y014209D01*
X014120Y014266D01*
X014113Y014323D01*
X014103Y014379D01*
X014089Y014434D01*
X014072Y014489D01*
X014052Y014542D01*
X014051Y014542D01*
X014071Y014489D01*
X014088Y014434D01*
X014102Y014379D01*
X014112Y014322D01*
X014119Y014266D01*
X014123Y014209D01*
X014123Y014151D01*
X014119Y014094D01*
X014112Y014038D01*
X014102Y013981D01*
X014088Y013926D01*
X014071Y013871D01*
X014051Y013818D01*
X014050Y013818D01*
X014070Y013872D01*
X014087Y013926D01*
X014101Y013982D01*
X014111Y014038D01*
X014118Y014094D01*
X014122Y014151D01*
X014122Y014209D01*
X014118Y014266D01*
X014111Y014322D01*
X014101Y014378D01*
X014087Y014434D01*
X014070Y014488D01*
X014050Y014542D01*
X036565Y016812D02*
X036548Y016819D01*
X036549Y016819D02*
X036570Y016875D01*
X036588Y016932D01*
X036602Y016990D01*
X036612Y017050D01*
X036618Y017109D01*
X036621Y017169D01*
X036620Y017229D01*
X036615Y017289D01*
X036606Y017348D01*
X036593Y017407D01*
X036577Y017465D01*
X036557Y017521D01*
X036533Y017576D01*
X036506Y017630D01*
X036476Y017682D01*
X036443Y017731D01*
X036406Y017779D01*
X036366Y017824D01*
X036324Y017866D01*
X036279Y017906D01*
X036231Y017943D01*
X036182Y017976D01*
X036130Y018006D01*
X036076Y018033D01*
X036021Y018057D01*
X035965Y018077D01*
X035907Y018093D01*
X035848Y018106D01*
X035789Y018115D01*
X035729Y018120D01*
X035669Y018121D01*
X035609Y018118D01*
X035550Y018112D01*
X035490Y018102D01*
X035432Y018088D01*
X035375Y018070D01*
X035319Y018049D01*
X035312Y018065D01*
X035369Y018087D01*
X035427Y018105D01*
X035487Y018119D01*
X035547Y018130D01*
X035608Y018136D01*
X035669Y018139D01*
X035730Y018138D01*
X035791Y018133D01*
X035851Y018124D01*
X035911Y018111D01*
X035970Y018094D01*
X036028Y018074D01*
X036084Y018050D01*
X036138Y018022D01*
X036191Y017991D01*
X036242Y017957D01*
X036290Y017920D01*
X036336Y017879D01*
X036379Y017836D01*
X036420Y017790D01*
X036457Y017742D01*
X036491Y017691D01*
X036522Y017638D01*
X036550Y017584D01*
X036574Y017528D01*
X036594Y017470D01*
X036611Y017411D01*
X036624Y017351D01*
X036633Y017291D01*
X036638Y017230D01*
X036639Y017169D01*
X036636Y017108D01*
X036630Y017047D01*
X036619Y016987D01*
X036605Y016927D01*
X036587Y016869D01*
X036565Y016812D01*
X036586Y016869D01*
X036604Y016928D01*
X036618Y016987D01*
X036629Y017047D01*
X036635Y017108D01*
X036638Y017169D01*
X036637Y017230D01*
X036632Y017291D01*
X036623Y017351D01*
X036610Y017411D01*
X036593Y017470D01*
X036573Y017527D01*
X036549Y017583D01*
X036521Y017638D01*
X036491Y017691D01*
X036456Y017741D01*
X036419Y017790D01*
X036379Y017835D01*
X036335Y017879D01*
X036290Y017919D01*
X036241Y017956D01*
X036191Y017991D01*
X036138Y018021D01*
X036083Y018049D01*
X036027Y018073D01*
X035970Y018093D01*
X035911Y018110D01*
X035851Y018123D01*
X035791Y018132D01*
X035730Y018137D01*
X035669Y018138D01*
X035608Y018135D01*
X035547Y018129D01*
X035487Y018118D01*
X035428Y018104D01*
X035369Y018086D01*
X035312Y018065D01*
X035313Y018064D01*
X035370Y018085D01*
X035428Y018103D01*
X035487Y018117D01*
X035547Y018128D01*
X035608Y018134D01*
X035669Y018137D01*
X035730Y018136D01*
X035791Y018131D01*
X035851Y018122D01*
X035911Y018109D01*
X035969Y018092D01*
X036027Y018072D01*
X036083Y018048D01*
X036138Y018021D01*
X036190Y017990D01*
X036241Y017956D01*
X036289Y017918D01*
X036335Y017878D01*
X036378Y017835D01*
X036418Y017789D01*
X036456Y017741D01*
X036490Y017690D01*
X036521Y017638D01*
X036548Y017583D01*
X036572Y017527D01*
X036592Y017469D01*
X036609Y017411D01*
X036622Y017351D01*
X036631Y017291D01*
X036636Y017230D01*
X036637Y017169D01*
X036634Y017108D01*
X036628Y017047D01*
X036617Y016987D01*
X036603Y016928D01*
X036585Y016870D01*
X036564Y016813D01*
X036563Y016813D01*
X036584Y016870D01*
X036602Y016928D01*
X036616Y016987D01*
X036627Y017047D01*
X036633Y017108D01*
X036636Y017169D01*
X036635Y017230D01*
X036630Y017291D01*
X036621Y017351D01*
X036608Y017410D01*
X036591Y017469D01*
X036571Y017527D01*
X036547Y017583D01*
X036520Y017637D01*
X036489Y017690D01*
X036455Y017740D01*
X036417Y017788D01*
X036377Y017834D01*
X036334Y017877D01*
X036288Y017917D01*
X036240Y017955D01*
X036190Y017989D01*
X036137Y018020D01*
X036083Y018047D01*
X036027Y018071D01*
X035969Y018091D01*
X035910Y018108D01*
X035851Y018121D01*
X035791Y018130D01*
X035730Y018135D01*
X035669Y018136D01*
X035608Y018133D01*
X035547Y018127D01*
X035487Y018116D01*
X035428Y018102D01*
X035370Y018084D01*
X035313Y018063D01*
X035313Y018062D01*
X035370Y018083D01*
X035428Y018101D01*
X035488Y018115D01*
X035548Y018126D01*
X035608Y018132D01*
X035669Y018135D01*
X035730Y018134D01*
X035790Y018129D01*
X035851Y018120D01*
X035910Y018107D01*
X035969Y018090D01*
X036026Y018070D01*
X036082Y018046D01*
X036137Y018019D01*
X036189Y017988D01*
X036240Y017954D01*
X036288Y017917D01*
X036333Y017876D01*
X036376Y017833D01*
X036417Y017788D01*
X036454Y017740D01*
X036488Y017689D01*
X036519Y017637D01*
X036546Y017582D01*
X036570Y017526D01*
X036590Y017469D01*
X036607Y017410D01*
X036620Y017351D01*
X036629Y017290D01*
X036634Y017230D01*
X036635Y017169D01*
X036632Y017108D01*
X036626Y017048D01*
X036615Y016988D01*
X036601Y016928D01*
X036583Y016870D01*
X036562Y016813D01*
X036561Y016814D01*
X036582Y016871D01*
X036600Y016929D01*
X036614Y016988D01*
X036625Y017048D01*
X036631Y017108D01*
X036634Y017169D01*
X036633Y017230D01*
X036628Y017290D01*
X036619Y017351D01*
X036606Y017410D01*
X036589Y017469D01*
X036569Y017526D01*
X036545Y017582D01*
X036518Y017636D01*
X036487Y017689D01*
X036453Y017739D01*
X036416Y017787D01*
X036376Y017833D01*
X036333Y017876D01*
X036287Y017916D01*
X036239Y017953D01*
X036189Y017987D01*
X036136Y018018D01*
X036082Y018045D01*
X036026Y018069D01*
X035969Y018089D01*
X035910Y018106D01*
X035851Y018119D01*
X035790Y018128D01*
X035730Y018133D01*
X035669Y018134D01*
X035608Y018131D01*
X035548Y018125D01*
X035488Y018114D01*
X035429Y018100D01*
X035371Y018082D01*
X035314Y018061D01*
X035314Y018060D01*
X035371Y018081D01*
X035429Y018099D01*
X035488Y018113D01*
X035548Y018124D01*
X035608Y018130D01*
X035669Y018133D01*
X035730Y018132D01*
X035790Y018127D01*
X035850Y018118D01*
X035910Y018105D01*
X035968Y018088D01*
X036025Y018068D01*
X036081Y018044D01*
X036136Y018017D01*
X036188Y017986D01*
X036238Y017952D01*
X036286Y017915D01*
X036332Y017875D01*
X036375Y017832D01*
X036415Y017786D01*
X036452Y017738D01*
X036486Y017688D01*
X036517Y017636D01*
X036544Y017581D01*
X036568Y017525D01*
X036588Y017468D01*
X036605Y017410D01*
X036618Y017350D01*
X036627Y017290D01*
X036632Y017230D01*
X036633Y017169D01*
X036630Y017108D01*
X036624Y017048D01*
X036613Y016988D01*
X036599Y016929D01*
X036581Y016871D01*
X036560Y016814D01*
X036559Y016814D01*
X036581Y016871D01*
X036598Y016929D01*
X036612Y016988D01*
X036623Y017048D01*
X036629Y017108D01*
X036632Y017169D01*
X036631Y017230D01*
X036626Y017290D01*
X036617Y017350D01*
X036604Y017409D01*
X036587Y017468D01*
X036567Y017525D01*
X036543Y017581D01*
X036516Y017635D01*
X036485Y017688D01*
X036451Y017738D01*
X036414Y017786D01*
X036374Y017831D01*
X036331Y017874D01*
X036286Y017914D01*
X036238Y017951D01*
X036188Y017985D01*
X036135Y018016D01*
X036081Y018043D01*
X036025Y018067D01*
X035968Y018087D01*
X035909Y018104D01*
X035850Y018117D01*
X035790Y018126D01*
X035730Y018131D01*
X035669Y018132D01*
X035608Y018129D01*
X035548Y018123D01*
X035488Y018112D01*
X035429Y018098D01*
X035371Y018081D01*
X035314Y018059D01*
X035315Y018058D01*
X035372Y018080D01*
X035429Y018097D01*
X035488Y018112D01*
X035548Y018122D01*
X035608Y018128D01*
X035669Y018131D01*
X035730Y018130D01*
X035790Y018125D01*
X035850Y018116D01*
X035909Y018103D01*
X035968Y018086D01*
X036025Y018066D01*
X036081Y018043D01*
X036135Y018015D01*
X036187Y017985D01*
X036237Y017951D01*
X036285Y017914D01*
X036331Y017874D01*
X036374Y017831D01*
X036414Y017785D01*
X036451Y017737D01*
X036485Y017687D01*
X036515Y017635D01*
X036543Y017581D01*
X036566Y017525D01*
X036586Y017468D01*
X036603Y017409D01*
X036616Y017350D01*
X036625Y017290D01*
X036630Y017230D01*
X036631Y017169D01*
X036628Y017108D01*
X036622Y017048D01*
X036612Y016988D01*
X036597Y016929D01*
X036580Y016872D01*
X036558Y016815D01*
X036557Y016815D01*
X036579Y016872D01*
X036596Y016930D01*
X036611Y016989D01*
X036621Y017048D01*
X036627Y017109D01*
X036630Y017169D01*
X036629Y017230D01*
X036624Y017290D01*
X036615Y017350D01*
X036602Y017409D01*
X036586Y017467D01*
X036565Y017524D01*
X036542Y017580D01*
X036514Y017634D01*
X036484Y017686D01*
X036450Y017737D01*
X036413Y017785D01*
X036373Y017830D01*
X036330Y017873D01*
X036285Y017913D01*
X036237Y017950D01*
X036186Y017984D01*
X036134Y018014D01*
X036080Y018042D01*
X036024Y018065D01*
X035967Y018086D01*
X035909Y018102D01*
X035850Y018115D01*
X035790Y018124D01*
X035730Y018129D01*
X035669Y018130D01*
X035609Y018127D01*
X035548Y018121D01*
X035489Y018111D01*
X035430Y018096D01*
X035372Y018079D01*
X035315Y018057D01*
X035316Y018056D01*
X035372Y018078D01*
X035430Y018095D01*
X035489Y018110D01*
X035548Y018120D01*
X035609Y018126D01*
X035669Y018129D01*
X035730Y018128D01*
X035790Y018123D01*
X035850Y018114D01*
X035909Y018101D01*
X035967Y018085D01*
X036024Y018064D01*
X036080Y018041D01*
X036134Y018014D01*
X036186Y017983D01*
X036236Y017949D01*
X036284Y017912D01*
X036329Y017872D01*
X036372Y017829D01*
X036412Y017784D01*
X036449Y017736D01*
X036483Y017686D01*
X036514Y017634D01*
X036541Y017580D01*
X036564Y017524D01*
X036585Y017467D01*
X036601Y017409D01*
X036614Y017350D01*
X036623Y017290D01*
X036628Y017230D01*
X036629Y017169D01*
X036626Y017109D01*
X036620Y017048D01*
X036610Y016989D01*
X036595Y016930D01*
X036578Y016872D01*
X036556Y016816D01*
X036555Y016816D01*
X036577Y016873D01*
X036595Y016930D01*
X036609Y016989D01*
X036619Y017049D01*
X036625Y017109D01*
X036628Y017169D01*
X036627Y017229D01*
X036622Y017290D01*
X036613Y017349D01*
X036600Y017409D01*
X036584Y017467D01*
X036564Y017524D01*
X036540Y017579D01*
X036513Y017633D01*
X036482Y017685D01*
X036448Y017735D01*
X036411Y017783D01*
X036371Y017829D01*
X036329Y017871D01*
X036283Y017911D01*
X036235Y017948D01*
X036185Y017982D01*
X036133Y018013D01*
X036079Y018040D01*
X036024Y018064D01*
X035967Y018084D01*
X035909Y018100D01*
X035849Y018113D01*
X035790Y018122D01*
X035729Y018127D01*
X035669Y018128D01*
X035609Y018125D01*
X035549Y018119D01*
X035489Y018109D01*
X035430Y018095D01*
X035373Y018077D01*
X035316Y018055D01*
X035316Y018054D01*
X035373Y018076D01*
X035431Y018094D01*
X035489Y018108D01*
X035549Y018118D01*
X035609Y018124D01*
X035669Y018127D01*
X035729Y018126D01*
X035790Y018121D01*
X035849Y018112D01*
X035908Y018099D01*
X035966Y018083D01*
X036023Y018063D01*
X036079Y018039D01*
X036133Y018012D01*
X036185Y017981D01*
X036235Y017947D01*
X036283Y017911D01*
X036328Y017871D01*
X036371Y017828D01*
X036411Y017783D01*
X036447Y017735D01*
X036481Y017685D01*
X036512Y017633D01*
X036539Y017579D01*
X036563Y017523D01*
X036583Y017466D01*
X036599Y017408D01*
X036612Y017349D01*
X036621Y017290D01*
X036626Y017229D01*
X036627Y017169D01*
X036624Y017109D01*
X036618Y017049D01*
X036608Y016989D01*
X036594Y016931D01*
X036576Y016873D01*
X036554Y016816D01*
X036553Y016817D01*
X036575Y016873D01*
X036593Y016931D01*
X036607Y016989D01*
X036617Y017049D01*
X036623Y017109D01*
X036626Y017169D01*
X036625Y017229D01*
X036620Y017289D01*
X036611Y017349D01*
X036598Y017408D01*
X036582Y017466D01*
X036562Y017523D01*
X036538Y017578D01*
X036511Y017632D01*
X036480Y017684D01*
X036447Y017734D01*
X036410Y017782D01*
X036370Y017827D01*
X036327Y017870D01*
X036282Y017910D01*
X036234Y017947D01*
X036184Y017980D01*
X036132Y018011D01*
X036078Y018038D01*
X036023Y018062D01*
X035966Y018082D01*
X035908Y018098D01*
X035849Y018111D01*
X035789Y018120D01*
X035729Y018125D01*
X035669Y018126D01*
X035609Y018123D01*
X035549Y018117D01*
X035489Y018107D01*
X035431Y018093D01*
X035373Y018075D01*
X035317Y018053D01*
X035373Y018074D01*
X035431Y018092D01*
X035490Y018106D01*
X035549Y018116D01*
X035609Y018122D01*
X035669Y018125D01*
X035729Y018124D01*
X035789Y018119D01*
X035849Y018110D01*
X035908Y018097D01*
X035966Y018081D01*
X036023Y018061D01*
X036078Y018037D01*
X036132Y018010D01*
X036184Y017980D01*
X036234Y017946D01*
X036281Y017909D01*
X036327Y017869D01*
X036369Y017827D01*
X036409Y017781D01*
X036446Y017734D01*
X036480Y017684D01*
X036510Y017632D01*
X036537Y017578D01*
X036561Y017523D01*
X036581Y017466D01*
X036597Y017408D01*
X036610Y017349D01*
X036619Y017289D01*
X036624Y017229D01*
X036625Y017169D01*
X036622Y017109D01*
X036616Y017049D01*
X036606Y016990D01*
X036592Y016931D01*
X036574Y016873D01*
X036553Y016817D01*
X036552Y016818D01*
X036573Y016874D01*
X036591Y016931D01*
X036605Y016990D01*
X036615Y017049D01*
X036621Y017109D01*
X036624Y017169D01*
X036623Y017229D01*
X036618Y017289D01*
X036609Y017349D01*
X036596Y017408D01*
X036580Y017465D01*
X036560Y017522D01*
X036536Y017578D01*
X036509Y017631D01*
X036479Y017683D01*
X036445Y017733D01*
X036408Y017781D01*
X036368Y017826D01*
X036326Y017868D01*
X036281Y017908D01*
X036233Y017945D01*
X036183Y017979D01*
X036131Y018009D01*
X036078Y018036D01*
X036022Y018060D01*
X035965Y018080D01*
X035908Y018096D01*
X035849Y018109D01*
X035789Y018118D01*
X035729Y018123D01*
X035669Y018124D01*
X035609Y018121D01*
X035549Y018115D01*
X035490Y018105D01*
X035431Y018091D01*
X035374Y018073D01*
X035318Y018052D01*
X035318Y018051D01*
X035374Y018072D01*
X035432Y018090D01*
X035490Y018104D01*
X035549Y018114D01*
X035609Y018120D01*
X035669Y018123D01*
X035729Y018122D01*
X035789Y018117D01*
X035849Y018108D01*
X035907Y018095D01*
X035965Y018079D01*
X036022Y018059D01*
X036077Y018035D01*
X036131Y018008D01*
X036183Y017978D01*
X036233Y017944D01*
X036280Y017907D01*
X036325Y017868D01*
X036368Y017825D01*
X036407Y017780D01*
X036444Y017733D01*
X036478Y017683D01*
X036508Y017631D01*
X036535Y017577D01*
X036559Y017522D01*
X036579Y017465D01*
X036595Y017407D01*
X036608Y017349D01*
X036617Y017289D01*
X036622Y017229D01*
X036623Y017169D01*
X036620Y017109D01*
X036614Y017049D01*
X036604Y016990D01*
X036590Y016932D01*
X036572Y016874D01*
X036551Y016818D01*
X036550Y016818D01*
X036571Y016874D01*
X036589Y016932D01*
X036603Y016990D01*
X036613Y017049D01*
X036619Y017109D01*
X036622Y017169D01*
X036621Y017229D01*
X036616Y017289D01*
X036607Y017348D01*
X036594Y017407D01*
X036578Y017465D01*
X036558Y017522D01*
X036534Y017577D01*
X036507Y017630D01*
X036477Y017682D01*
X036443Y017732D01*
X036407Y017779D01*
X036367Y017825D01*
X036325Y017867D01*
X036279Y017907D01*
X036232Y017943D01*
X036182Y017977D01*
X036130Y018007D01*
X036077Y018034D01*
X036022Y018058D01*
X035965Y018078D01*
X035907Y018094D01*
X035848Y018107D01*
X035789Y018116D01*
X035729Y018121D01*
X035669Y018122D01*
X035609Y018119D01*
X035549Y018113D01*
X035490Y018103D01*
X035432Y018089D01*
X035374Y018071D01*
X035318Y018050D01*
X035312Y016295D02*
X035319Y016312D01*
X035319Y016311D02*
X035372Y016291D01*
X035426Y016274D01*
X035482Y016260D01*
X035538Y016250D01*
X035595Y016243D01*
X035651Y016239D01*
X035709Y016239D01*
X035765Y016243D01*
X035822Y016250D01*
X035878Y016260D01*
X035934Y016274D01*
X035988Y016291D01*
X036041Y016311D01*
X036048Y016295D01*
X035994Y016274D01*
X035938Y016256D01*
X035882Y016243D01*
X035825Y016232D01*
X035767Y016225D01*
X035709Y016221D01*
X035651Y016221D01*
X035593Y016225D01*
X035535Y016232D01*
X035478Y016243D01*
X035422Y016256D01*
X035366Y016274D01*
X035312Y016295D01*
X035366Y016275D01*
X035422Y016257D01*
X035478Y016243D01*
X035535Y016233D01*
X035593Y016226D01*
X035651Y016222D01*
X035709Y016222D01*
X035767Y016226D01*
X035825Y016233D01*
X035882Y016243D01*
X035938Y016257D01*
X035994Y016275D01*
X036048Y016295D01*
X036047Y016296D01*
X035993Y016276D01*
X035938Y016258D01*
X035882Y016244D01*
X035825Y016234D01*
X035767Y016227D01*
X035709Y016223D01*
X035651Y016223D01*
X035593Y016227D01*
X035535Y016234D01*
X035478Y016244D01*
X035422Y016258D01*
X035367Y016276D01*
X035313Y016296D01*
X035313Y016297D01*
X035367Y016277D01*
X035422Y016259D01*
X035479Y016245D01*
X035536Y016235D01*
X035593Y016228D01*
X035651Y016224D01*
X035709Y016224D01*
X035767Y016228D01*
X035824Y016235D01*
X035881Y016245D01*
X035938Y016259D01*
X035993Y016277D01*
X036047Y016297D01*
X036047Y016298D01*
X035993Y016278D01*
X035937Y016260D01*
X035881Y016246D01*
X035824Y016236D01*
X035767Y016229D01*
X035709Y016225D01*
X035651Y016225D01*
X035593Y016229D01*
X035536Y016236D01*
X035479Y016246D01*
X035423Y016260D01*
X035367Y016278D01*
X035313Y016298D01*
X035314Y016299D01*
X035368Y016279D01*
X035423Y016261D01*
X035479Y016247D01*
X035536Y016237D01*
X035593Y016230D01*
X035651Y016226D01*
X035709Y016226D01*
X035767Y016230D01*
X035824Y016237D01*
X035881Y016247D01*
X035937Y016261D01*
X035992Y016279D01*
X036046Y016299D01*
X036046Y016300D01*
X035992Y016280D01*
X035937Y016262D01*
X035881Y016248D01*
X035824Y016238D01*
X035767Y016231D01*
X035709Y016227D01*
X035651Y016227D01*
X035593Y016231D01*
X035536Y016238D01*
X035479Y016248D01*
X035423Y016262D01*
X035368Y016280D01*
X035314Y016300D01*
X035314Y016301D01*
X035368Y016280D01*
X035423Y016263D01*
X035479Y016249D01*
X035536Y016239D01*
X035594Y016232D01*
X035651Y016228D01*
X035709Y016228D01*
X035766Y016232D01*
X035824Y016239D01*
X035881Y016249D01*
X035937Y016263D01*
X035992Y016280D01*
X036046Y016301D01*
X036045Y016302D01*
X035991Y016281D01*
X035936Y016264D01*
X035880Y016250D01*
X035824Y016240D01*
X035766Y016233D01*
X035709Y016229D01*
X035651Y016229D01*
X035594Y016233D01*
X035536Y016240D01*
X035480Y016250D01*
X035424Y016264D01*
X035369Y016281D01*
X035315Y016302D01*
X035315Y016303D01*
X035369Y016282D01*
X035424Y016265D01*
X035480Y016251D01*
X035537Y016241D01*
X035594Y016234D01*
X035651Y016230D01*
X035709Y016230D01*
X035766Y016234D01*
X035823Y016241D01*
X035880Y016251D01*
X035936Y016265D01*
X035991Y016282D01*
X036045Y016303D01*
X036044Y016304D01*
X035991Y016283D01*
X035936Y016266D01*
X035880Y016252D01*
X035823Y016242D01*
X035766Y016235D01*
X035709Y016231D01*
X035651Y016231D01*
X035594Y016235D01*
X035537Y016242D01*
X035480Y016252D01*
X035424Y016266D01*
X035369Y016283D01*
X035316Y016304D01*
X035316Y016305D01*
X035370Y016284D01*
X035425Y016267D01*
X035480Y016253D01*
X035537Y016243D01*
X035594Y016236D01*
X035651Y016232D01*
X035709Y016232D01*
X035766Y016236D01*
X035823Y016243D01*
X035880Y016253D01*
X035935Y016267D01*
X035990Y016284D01*
X036044Y016305D01*
X036044Y016306D01*
X035990Y016285D01*
X035935Y016268D01*
X035879Y016254D01*
X035823Y016244D01*
X035766Y016237D01*
X035709Y016233D01*
X035651Y016233D01*
X035594Y016237D01*
X035537Y016244D01*
X035481Y016254D01*
X035425Y016268D01*
X035370Y016285D01*
X035316Y016306D01*
X035317Y016307D01*
X035370Y016286D01*
X035425Y016269D01*
X035481Y016255D01*
X035537Y016245D01*
X035594Y016238D01*
X035651Y016234D01*
X035709Y016234D01*
X035766Y016238D01*
X035823Y016245D01*
X035879Y016255D01*
X035935Y016269D01*
X035990Y016286D01*
X036043Y016307D01*
X035989Y016287D01*
X035935Y016270D01*
X035879Y016256D01*
X035823Y016246D01*
X035766Y016239D01*
X035709Y016235D01*
X035651Y016235D01*
X035594Y016239D01*
X035537Y016246D01*
X035481Y016256D01*
X035425Y016270D01*
X035371Y016287D01*
X035317Y016307D01*
X035318Y016308D01*
X035371Y016288D01*
X035426Y016271D01*
X035481Y016257D01*
X035537Y016247D01*
X035594Y016240D01*
X035651Y016236D01*
X035709Y016236D01*
X035766Y016240D01*
X035823Y016247D01*
X035879Y016257D01*
X035934Y016271D01*
X035989Y016288D01*
X036042Y016308D01*
X036042Y016309D01*
X035989Y016289D01*
X035934Y016272D01*
X035879Y016258D01*
X035822Y016248D01*
X035766Y016241D01*
X035709Y016237D01*
X035651Y016237D01*
X035594Y016241D01*
X035538Y016248D01*
X035481Y016258D01*
X035426Y016272D01*
X035371Y016289D01*
X035318Y016309D01*
X035318Y016310D01*
X035372Y016290D01*
X035426Y016273D01*
X035482Y016259D01*
X035538Y016249D01*
X035594Y016242D01*
X035651Y016238D01*
X035709Y016238D01*
X035766Y016242D01*
X035822Y016249D01*
X035878Y016259D01*
X035934Y016273D01*
X035988Y016290D01*
X036042Y016310D01*
X034795Y017548D02*
X034812Y017541D01*
X034811Y017541D02*
X034791Y017488D01*
X034774Y017434D01*
X034760Y017378D01*
X034750Y017322D01*
X034743Y017265D01*
X034739Y017209D01*
X034739Y017151D01*
X034743Y017095D01*
X034750Y017038D01*
X034760Y016982D01*
X034774Y016926D01*
X034791Y016872D01*
X034811Y016819D01*
X034795Y016812D01*
X034774Y016866D01*
X034756Y016922D01*
X034743Y016978D01*
X034732Y017035D01*
X034725Y017093D01*
X034721Y017151D01*
X034721Y017209D01*
X034725Y017267D01*
X034732Y017325D01*
X034743Y017382D01*
X034756Y017438D01*
X034774Y017494D01*
X034795Y017548D01*
X034775Y017494D01*
X034757Y017438D01*
X034743Y017382D01*
X034733Y017325D01*
X034726Y017267D01*
X034722Y017209D01*
X034722Y017151D01*
X034726Y017093D01*
X034733Y017035D01*
X034743Y016978D01*
X034757Y016922D01*
X034775Y016866D01*
X034795Y016812D01*
X034796Y016813D01*
X034776Y016867D01*
X034758Y016922D01*
X034744Y016978D01*
X034734Y017035D01*
X034727Y017093D01*
X034723Y017151D01*
X034723Y017209D01*
X034727Y017267D01*
X034734Y017325D01*
X034744Y017382D01*
X034758Y017438D01*
X034776Y017493D01*
X034796Y017547D01*
X034797Y017547D01*
X034777Y017493D01*
X034759Y017438D01*
X034745Y017381D01*
X034735Y017324D01*
X034728Y017267D01*
X034724Y017209D01*
X034724Y017151D01*
X034728Y017093D01*
X034735Y017036D01*
X034745Y016979D01*
X034759Y016922D01*
X034777Y016867D01*
X034797Y016813D01*
X034798Y016813D01*
X034778Y016867D01*
X034760Y016923D01*
X034746Y016979D01*
X034736Y017036D01*
X034729Y017093D01*
X034725Y017151D01*
X034725Y017209D01*
X034729Y017267D01*
X034736Y017324D01*
X034746Y017381D01*
X034760Y017437D01*
X034778Y017493D01*
X034798Y017547D01*
X034799Y017546D01*
X034779Y017492D01*
X034761Y017437D01*
X034747Y017381D01*
X034737Y017324D01*
X034730Y017267D01*
X034726Y017209D01*
X034726Y017151D01*
X034730Y017093D01*
X034737Y017036D01*
X034747Y016979D01*
X034761Y016923D01*
X034779Y016868D01*
X034799Y016814D01*
X034800Y016814D01*
X034780Y016868D01*
X034762Y016923D01*
X034748Y016979D01*
X034738Y017036D01*
X034731Y017093D01*
X034727Y017151D01*
X034727Y017209D01*
X034731Y017267D01*
X034738Y017324D01*
X034748Y017381D01*
X034762Y017437D01*
X034780Y017492D01*
X034800Y017546D01*
X034801Y017546D01*
X034780Y017492D01*
X034763Y017437D01*
X034749Y017381D01*
X034739Y017324D01*
X034732Y017266D01*
X034728Y017209D01*
X034728Y017151D01*
X034732Y017094D01*
X034739Y017036D01*
X034749Y016979D01*
X034763Y016923D01*
X034780Y016868D01*
X034801Y016814D01*
X034802Y016815D01*
X034781Y016869D01*
X034764Y016924D01*
X034750Y016980D01*
X034740Y017036D01*
X034733Y017094D01*
X034729Y017151D01*
X034729Y017209D01*
X034733Y017266D01*
X034740Y017324D01*
X034750Y017380D01*
X034764Y017436D01*
X034781Y017491D01*
X034802Y017545D01*
X034803Y017545D01*
X034782Y017491D01*
X034765Y017436D01*
X034751Y017380D01*
X034741Y017323D01*
X034734Y017266D01*
X034730Y017209D01*
X034730Y017151D01*
X034734Y017094D01*
X034741Y017037D01*
X034751Y016980D01*
X034765Y016924D01*
X034782Y016869D01*
X034803Y016815D01*
X034804Y016816D01*
X034783Y016869D01*
X034766Y016924D01*
X034752Y016980D01*
X034742Y017037D01*
X034735Y017094D01*
X034731Y017151D01*
X034731Y017209D01*
X034735Y017266D01*
X034742Y017323D01*
X034752Y017380D01*
X034766Y017436D01*
X034783Y017491D01*
X034804Y017544D01*
X034805Y017544D01*
X034784Y017490D01*
X034767Y017435D01*
X034753Y017380D01*
X034743Y017323D01*
X034736Y017266D01*
X034732Y017209D01*
X034732Y017151D01*
X034736Y017094D01*
X034743Y017037D01*
X034753Y016980D01*
X034767Y016925D01*
X034784Y016870D01*
X034805Y016816D01*
X034806Y016816D01*
X034785Y016870D01*
X034768Y016925D01*
X034754Y016981D01*
X034744Y017037D01*
X034737Y017094D01*
X034733Y017151D01*
X034733Y017209D01*
X034737Y017266D01*
X034744Y017323D01*
X034754Y017379D01*
X034768Y017435D01*
X034785Y017490D01*
X034806Y017544D01*
X034807Y017543D01*
X034786Y017490D01*
X034769Y017435D01*
X034755Y017379D01*
X034745Y017323D01*
X034738Y017266D01*
X034734Y017209D01*
X034734Y017151D01*
X034738Y017094D01*
X034745Y017037D01*
X034755Y016981D01*
X034769Y016925D01*
X034786Y016870D01*
X034807Y016817D01*
X034787Y016871D01*
X034770Y016925D01*
X034756Y016981D01*
X034746Y017037D01*
X034739Y017094D01*
X034735Y017151D01*
X034735Y017209D01*
X034739Y017266D01*
X034746Y017323D01*
X034756Y017379D01*
X034770Y017435D01*
X034787Y017489D01*
X034807Y017543D01*
X034808Y017542D01*
X034788Y017489D01*
X034771Y017434D01*
X034757Y017379D01*
X034747Y017323D01*
X034740Y017266D01*
X034736Y017209D01*
X034736Y017151D01*
X034740Y017094D01*
X034747Y017037D01*
X034757Y016981D01*
X034771Y016926D01*
X034788Y016871D01*
X034808Y016818D01*
X034809Y016818D01*
X034789Y016871D01*
X034772Y016926D01*
X034758Y016981D01*
X034748Y017038D01*
X034741Y017094D01*
X034737Y017151D01*
X034737Y017209D01*
X034741Y017266D01*
X034748Y017322D01*
X034758Y017379D01*
X034772Y017434D01*
X034789Y017489D01*
X034809Y017542D01*
X034810Y017542D01*
X034790Y017488D01*
X034773Y017434D01*
X034759Y017378D01*
X034749Y017322D01*
X034742Y017266D01*
X034738Y017209D01*
X034738Y017151D01*
X034742Y017094D01*
X034749Y017038D01*
X034759Y016982D01*
X034773Y016926D01*
X034790Y016872D01*
X034810Y016818D01*
X039065Y016812D02*
X039048Y016819D01*
X039049Y016819D02*
X039070Y016875D01*
X039088Y016932D01*
X039102Y016990D01*
X039112Y017050D01*
X039118Y017109D01*
X039121Y017169D01*
X039120Y017229D01*
X039115Y017289D01*
X039106Y017348D01*
X039093Y017407D01*
X039077Y017465D01*
X039057Y017521D01*
X039033Y017576D01*
X039006Y017630D01*
X038976Y017682D01*
X038943Y017731D01*
X038906Y017779D01*
X038866Y017824D01*
X038824Y017866D01*
X038779Y017906D01*
X038731Y017943D01*
X038682Y017976D01*
X038630Y018006D01*
X038576Y018033D01*
X038521Y018057D01*
X038465Y018077D01*
X038407Y018093D01*
X038348Y018106D01*
X038289Y018115D01*
X038229Y018120D01*
X038169Y018121D01*
X038109Y018118D01*
X038050Y018112D01*
X037990Y018102D01*
X037932Y018088D01*
X037875Y018070D01*
X037819Y018049D01*
X037812Y018065D01*
X037869Y018087D01*
X037927Y018105D01*
X037987Y018119D01*
X038047Y018130D01*
X038108Y018136D01*
X038169Y018139D01*
X038230Y018138D01*
X038291Y018133D01*
X038351Y018124D01*
X038411Y018111D01*
X038470Y018094D01*
X038528Y018074D01*
X038584Y018050D01*
X038638Y018022D01*
X038691Y017991D01*
X038742Y017957D01*
X038790Y017920D01*
X038836Y017879D01*
X038879Y017836D01*
X038920Y017790D01*
X038957Y017742D01*
X038991Y017691D01*
X039022Y017638D01*
X039050Y017584D01*
X039074Y017528D01*
X039094Y017470D01*
X039111Y017411D01*
X039124Y017351D01*
X039133Y017291D01*
X039138Y017230D01*
X039139Y017169D01*
X039136Y017108D01*
X039130Y017047D01*
X039119Y016987D01*
X039105Y016927D01*
X039087Y016869D01*
X039065Y016812D01*
X039086Y016869D01*
X039104Y016928D01*
X039118Y016987D01*
X039129Y017047D01*
X039135Y017108D01*
X039138Y017169D01*
X039137Y017230D01*
X039132Y017291D01*
X039123Y017351D01*
X039110Y017411D01*
X039093Y017470D01*
X039073Y017527D01*
X039049Y017583D01*
X039021Y017638D01*
X038991Y017691D01*
X038956Y017741D01*
X038919Y017790D01*
X038879Y017835D01*
X038835Y017879D01*
X038790Y017919D01*
X038741Y017956D01*
X038691Y017991D01*
X038638Y018021D01*
X038583Y018049D01*
X038527Y018073D01*
X038470Y018093D01*
X038411Y018110D01*
X038351Y018123D01*
X038291Y018132D01*
X038230Y018137D01*
X038169Y018138D01*
X038108Y018135D01*
X038047Y018129D01*
X037987Y018118D01*
X037928Y018104D01*
X037869Y018086D01*
X037812Y018065D01*
X037813Y018064D01*
X037870Y018085D01*
X037928Y018103D01*
X037987Y018117D01*
X038047Y018128D01*
X038108Y018134D01*
X038169Y018137D01*
X038230Y018136D01*
X038291Y018131D01*
X038351Y018122D01*
X038411Y018109D01*
X038469Y018092D01*
X038527Y018072D01*
X038583Y018048D01*
X038638Y018021D01*
X038690Y017990D01*
X038741Y017956D01*
X038789Y017918D01*
X038835Y017878D01*
X038878Y017835D01*
X038918Y017789D01*
X038956Y017741D01*
X038990Y017690D01*
X039021Y017638D01*
X039048Y017583D01*
X039072Y017527D01*
X039092Y017469D01*
X039109Y017411D01*
X039122Y017351D01*
X039131Y017291D01*
X039136Y017230D01*
X039137Y017169D01*
X039134Y017108D01*
X039128Y017047D01*
X039117Y016987D01*
X039103Y016928D01*
X039085Y016870D01*
X039064Y016813D01*
X039063Y016813D01*
X039084Y016870D01*
X039102Y016928D01*
X039116Y016987D01*
X039127Y017047D01*
X039133Y017108D01*
X039136Y017169D01*
X039135Y017230D01*
X039130Y017291D01*
X039121Y017351D01*
X039108Y017410D01*
X039091Y017469D01*
X039071Y017527D01*
X039047Y017583D01*
X039020Y017637D01*
X038989Y017690D01*
X038955Y017740D01*
X038917Y017788D01*
X038877Y017834D01*
X038834Y017877D01*
X038788Y017917D01*
X038740Y017955D01*
X038690Y017989D01*
X038637Y018020D01*
X038583Y018047D01*
X038527Y018071D01*
X038469Y018091D01*
X038410Y018108D01*
X038351Y018121D01*
X038291Y018130D01*
X038230Y018135D01*
X038169Y018136D01*
X038108Y018133D01*
X038047Y018127D01*
X037987Y018116D01*
X037928Y018102D01*
X037870Y018084D01*
X037813Y018063D01*
X037813Y018062D01*
X037870Y018083D01*
X037928Y018101D01*
X037988Y018115D01*
X038048Y018126D01*
X038108Y018132D01*
X038169Y018135D01*
X038230Y018134D01*
X038290Y018129D01*
X038351Y018120D01*
X038410Y018107D01*
X038469Y018090D01*
X038526Y018070D01*
X038582Y018046D01*
X038637Y018019D01*
X038689Y017988D01*
X038740Y017954D01*
X038788Y017917D01*
X038833Y017876D01*
X038876Y017833D01*
X038917Y017788D01*
X038954Y017740D01*
X038988Y017689D01*
X039019Y017637D01*
X039046Y017582D01*
X039070Y017526D01*
X039090Y017469D01*
X039107Y017410D01*
X039120Y017351D01*
X039129Y017290D01*
X039134Y017230D01*
X039135Y017169D01*
X039132Y017108D01*
X039126Y017048D01*
X039115Y016988D01*
X039101Y016928D01*
X039083Y016870D01*
X039062Y016813D01*
X039061Y016814D01*
X039082Y016871D01*
X039100Y016929D01*
X039114Y016988D01*
X039125Y017048D01*
X039131Y017108D01*
X039134Y017169D01*
X039133Y017230D01*
X039128Y017290D01*
X039119Y017351D01*
X039106Y017410D01*
X039089Y017469D01*
X039069Y017526D01*
X039045Y017582D01*
X039018Y017636D01*
X038987Y017689D01*
X038953Y017739D01*
X038916Y017787D01*
X038876Y017833D01*
X038833Y017876D01*
X038787Y017916D01*
X038739Y017953D01*
X038689Y017987D01*
X038636Y018018D01*
X038582Y018045D01*
X038526Y018069D01*
X038469Y018089D01*
X038410Y018106D01*
X038351Y018119D01*
X038290Y018128D01*
X038230Y018133D01*
X038169Y018134D01*
X038108Y018131D01*
X038048Y018125D01*
X037988Y018114D01*
X037929Y018100D01*
X037871Y018082D01*
X037814Y018061D01*
X037814Y018060D01*
X037871Y018081D01*
X037929Y018099D01*
X037988Y018113D01*
X038048Y018124D01*
X038108Y018130D01*
X038169Y018133D01*
X038230Y018132D01*
X038290Y018127D01*
X038350Y018118D01*
X038410Y018105D01*
X038468Y018088D01*
X038525Y018068D01*
X038581Y018044D01*
X038636Y018017D01*
X038688Y017986D01*
X038738Y017952D01*
X038786Y017915D01*
X038832Y017875D01*
X038875Y017832D01*
X038915Y017786D01*
X038952Y017738D01*
X038986Y017688D01*
X039017Y017636D01*
X039044Y017581D01*
X039068Y017525D01*
X039088Y017468D01*
X039105Y017410D01*
X039118Y017350D01*
X039127Y017290D01*
X039132Y017230D01*
X039133Y017169D01*
X039130Y017108D01*
X039124Y017048D01*
X039113Y016988D01*
X039099Y016929D01*
X039081Y016871D01*
X039060Y016814D01*
X039059Y016814D01*
X039081Y016871D01*
X039098Y016929D01*
X039112Y016988D01*
X039123Y017048D01*
X039129Y017108D01*
X039132Y017169D01*
X039131Y017230D01*
X039126Y017290D01*
X039117Y017350D01*
X039104Y017409D01*
X039087Y017468D01*
X039067Y017525D01*
X039043Y017581D01*
X039016Y017635D01*
X038985Y017688D01*
X038951Y017738D01*
X038914Y017786D01*
X038874Y017831D01*
X038831Y017874D01*
X038786Y017914D01*
X038738Y017951D01*
X038688Y017985D01*
X038635Y018016D01*
X038581Y018043D01*
X038525Y018067D01*
X038468Y018087D01*
X038409Y018104D01*
X038350Y018117D01*
X038290Y018126D01*
X038230Y018131D01*
X038169Y018132D01*
X038108Y018129D01*
X038048Y018123D01*
X037988Y018112D01*
X037929Y018098D01*
X037871Y018081D01*
X037814Y018059D01*
X037815Y018058D01*
X037872Y018080D01*
X037929Y018097D01*
X037988Y018112D01*
X038048Y018122D01*
X038108Y018128D01*
X038169Y018131D01*
X038230Y018130D01*
X038290Y018125D01*
X038350Y018116D01*
X038409Y018103D01*
X038468Y018086D01*
X038525Y018066D01*
X038581Y018043D01*
X038635Y018015D01*
X038687Y017985D01*
X038737Y017951D01*
X038785Y017914D01*
X038831Y017874D01*
X038874Y017831D01*
X038914Y017785D01*
X038951Y017737D01*
X038985Y017687D01*
X039015Y017635D01*
X039043Y017581D01*
X039066Y017525D01*
X039086Y017468D01*
X039103Y017409D01*
X039116Y017350D01*
X039125Y017290D01*
X039130Y017230D01*
X039131Y017169D01*
X039128Y017108D01*
X039122Y017048D01*
X039112Y016988D01*
X039097Y016929D01*
X039080Y016872D01*
X039058Y016815D01*
X039057Y016815D01*
X039079Y016872D01*
X039096Y016930D01*
X039111Y016989D01*
X039121Y017048D01*
X039127Y017109D01*
X039130Y017169D01*
X039129Y017230D01*
X039124Y017290D01*
X039115Y017350D01*
X039102Y017409D01*
X039086Y017467D01*
X039065Y017524D01*
X039042Y017580D01*
X039014Y017634D01*
X038984Y017686D01*
X038950Y017737D01*
X038913Y017785D01*
X038873Y017830D01*
X038830Y017873D01*
X038785Y017913D01*
X038737Y017950D01*
X038686Y017984D01*
X038634Y018014D01*
X038580Y018042D01*
X038524Y018065D01*
X038467Y018086D01*
X038409Y018102D01*
X038350Y018115D01*
X038290Y018124D01*
X038230Y018129D01*
X038169Y018130D01*
X038109Y018127D01*
X038048Y018121D01*
X037989Y018111D01*
X037930Y018096D01*
X037872Y018079D01*
X037815Y018057D01*
X037816Y018056D01*
X037872Y018078D01*
X037930Y018095D01*
X037989Y018110D01*
X038048Y018120D01*
X038109Y018126D01*
X038169Y018129D01*
X038230Y018128D01*
X038290Y018123D01*
X038350Y018114D01*
X038409Y018101D01*
X038467Y018085D01*
X038524Y018064D01*
X038580Y018041D01*
X038634Y018014D01*
X038686Y017983D01*
X038736Y017949D01*
X038784Y017912D01*
X038829Y017872D01*
X038872Y017829D01*
X038912Y017784D01*
X038949Y017736D01*
X038983Y017686D01*
X039014Y017634D01*
X039041Y017580D01*
X039064Y017524D01*
X039085Y017467D01*
X039101Y017409D01*
X039114Y017350D01*
X039123Y017290D01*
X039128Y017230D01*
X039129Y017169D01*
X039126Y017109D01*
X039120Y017048D01*
X039110Y016989D01*
X039095Y016930D01*
X039078Y016872D01*
X039056Y016816D01*
X039055Y016816D01*
X039077Y016873D01*
X039095Y016930D01*
X039109Y016989D01*
X039119Y017049D01*
X039125Y017109D01*
X039128Y017169D01*
X039127Y017229D01*
X039122Y017290D01*
X039113Y017349D01*
X039100Y017409D01*
X039084Y017467D01*
X039064Y017524D01*
X039040Y017579D01*
X039013Y017633D01*
X038982Y017685D01*
X038948Y017735D01*
X038911Y017783D01*
X038871Y017829D01*
X038829Y017871D01*
X038783Y017911D01*
X038735Y017948D01*
X038685Y017982D01*
X038633Y018013D01*
X038579Y018040D01*
X038524Y018064D01*
X038467Y018084D01*
X038409Y018100D01*
X038349Y018113D01*
X038290Y018122D01*
X038229Y018127D01*
X038169Y018128D01*
X038109Y018125D01*
X038049Y018119D01*
X037989Y018109D01*
X037930Y018095D01*
X037873Y018077D01*
X037816Y018055D01*
X037816Y018054D01*
X037873Y018076D01*
X037931Y018094D01*
X037989Y018108D01*
X038049Y018118D01*
X038109Y018124D01*
X038169Y018127D01*
X038229Y018126D01*
X038290Y018121D01*
X038349Y018112D01*
X038408Y018099D01*
X038466Y018083D01*
X038523Y018063D01*
X038579Y018039D01*
X038633Y018012D01*
X038685Y017981D01*
X038735Y017947D01*
X038783Y017911D01*
X038828Y017871D01*
X038871Y017828D01*
X038911Y017783D01*
X038947Y017735D01*
X038981Y017685D01*
X039012Y017633D01*
X039039Y017579D01*
X039063Y017523D01*
X039083Y017466D01*
X039099Y017408D01*
X039112Y017349D01*
X039121Y017290D01*
X039126Y017229D01*
X039127Y017169D01*
X039124Y017109D01*
X039118Y017049D01*
X039108Y016989D01*
X039094Y016931D01*
X039076Y016873D01*
X039054Y016816D01*
X039053Y016817D01*
X039075Y016873D01*
X039093Y016931D01*
X039107Y016989D01*
X039117Y017049D01*
X039123Y017109D01*
X039126Y017169D01*
X039125Y017229D01*
X039120Y017289D01*
X039111Y017349D01*
X039098Y017408D01*
X039082Y017466D01*
X039062Y017523D01*
X039038Y017578D01*
X039011Y017632D01*
X038980Y017684D01*
X038947Y017734D01*
X038910Y017782D01*
X038870Y017827D01*
X038827Y017870D01*
X038782Y017910D01*
X038734Y017947D01*
X038684Y017980D01*
X038632Y018011D01*
X038578Y018038D01*
X038523Y018062D01*
X038466Y018082D01*
X038408Y018098D01*
X038349Y018111D01*
X038289Y018120D01*
X038229Y018125D01*
X038169Y018126D01*
X038109Y018123D01*
X038049Y018117D01*
X037989Y018107D01*
X037931Y018093D01*
X037873Y018075D01*
X037817Y018053D01*
X037873Y018074D01*
X037931Y018092D01*
X037990Y018106D01*
X038049Y018116D01*
X038109Y018122D01*
X038169Y018125D01*
X038229Y018124D01*
X038289Y018119D01*
X038349Y018110D01*
X038408Y018097D01*
X038466Y018081D01*
X038523Y018061D01*
X038578Y018037D01*
X038632Y018010D01*
X038684Y017980D01*
X038734Y017946D01*
X038781Y017909D01*
X038827Y017869D01*
X038869Y017827D01*
X038909Y017781D01*
X038946Y017734D01*
X038980Y017684D01*
X039010Y017632D01*
X039037Y017578D01*
X039061Y017523D01*
X039081Y017466D01*
X039097Y017408D01*
X039110Y017349D01*
X039119Y017289D01*
X039124Y017229D01*
X039125Y017169D01*
X039122Y017109D01*
X039116Y017049D01*
X039106Y016990D01*
X039092Y016931D01*
X039074Y016873D01*
X039053Y016817D01*
X039052Y016818D01*
X039073Y016874D01*
X039091Y016931D01*
X039105Y016990D01*
X039115Y017049D01*
X039121Y017109D01*
X039124Y017169D01*
X039123Y017229D01*
X039118Y017289D01*
X039109Y017349D01*
X039096Y017408D01*
X039080Y017465D01*
X039060Y017522D01*
X039036Y017578D01*
X039009Y017631D01*
X038979Y017683D01*
X038945Y017733D01*
X038908Y017781D01*
X038868Y017826D01*
X038826Y017868D01*
X038781Y017908D01*
X038733Y017945D01*
X038683Y017979D01*
X038631Y018009D01*
X038578Y018036D01*
X038522Y018060D01*
X038465Y018080D01*
X038408Y018096D01*
X038349Y018109D01*
X038289Y018118D01*
X038229Y018123D01*
X038169Y018124D01*
X038109Y018121D01*
X038049Y018115D01*
X037990Y018105D01*
X037931Y018091D01*
X037874Y018073D01*
X037818Y018052D01*
X037818Y018051D01*
X037874Y018072D01*
X037932Y018090D01*
X037990Y018104D01*
X038049Y018114D01*
X038109Y018120D01*
X038169Y018123D01*
X038229Y018122D01*
X038289Y018117D01*
X038349Y018108D01*
X038407Y018095D01*
X038465Y018079D01*
X038522Y018059D01*
X038577Y018035D01*
X038631Y018008D01*
X038683Y017978D01*
X038733Y017944D01*
X038780Y017907D01*
X038825Y017868D01*
X038868Y017825D01*
X038907Y017780D01*
X038944Y017733D01*
X038978Y017683D01*
X039008Y017631D01*
X039035Y017577D01*
X039059Y017522D01*
X039079Y017465D01*
X039095Y017407D01*
X039108Y017349D01*
X039117Y017289D01*
X039122Y017229D01*
X039123Y017169D01*
X039120Y017109D01*
X039114Y017049D01*
X039104Y016990D01*
X039090Y016932D01*
X039072Y016874D01*
X039051Y016818D01*
X039050Y016818D01*
X039071Y016874D01*
X039089Y016932D01*
X039103Y016990D01*
X039113Y017049D01*
X039119Y017109D01*
X039122Y017169D01*
X039121Y017229D01*
X039116Y017289D01*
X039107Y017348D01*
X039094Y017407D01*
X039078Y017465D01*
X039058Y017522D01*
X039034Y017577D01*
X039007Y017630D01*
X038977Y017682D01*
X038943Y017732D01*
X038907Y017779D01*
X038867Y017825D01*
X038825Y017867D01*
X038779Y017907D01*
X038732Y017943D01*
X038682Y017977D01*
X038630Y018007D01*
X038577Y018034D01*
X038522Y018058D01*
X038465Y018078D01*
X038407Y018094D01*
X038348Y018107D01*
X038289Y018116D01*
X038229Y018121D01*
X038169Y018122D01*
X038109Y018119D01*
X038049Y018113D01*
X037990Y018103D01*
X037932Y018089D01*
X037874Y018071D01*
X037818Y018050D01*
X037812Y016295D02*
X037819Y016312D01*
X037819Y016311D02*
X037872Y016291D01*
X037926Y016274D01*
X037982Y016260D01*
X038038Y016250D01*
X038095Y016243D01*
X038151Y016239D01*
X038209Y016239D01*
X038265Y016243D01*
X038322Y016250D01*
X038378Y016260D01*
X038434Y016274D01*
X038488Y016291D01*
X038541Y016311D01*
X038548Y016295D01*
X038494Y016274D01*
X038438Y016256D01*
X038382Y016243D01*
X038325Y016232D01*
X038267Y016225D01*
X038209Y016221D01*
X038151Y016221D01*
X038093Y016225D01*
X038035Y016232D01*
X037978Y016243D01*
X037922Y016256D01*
X037866Y016274D01*
X037812Y016295D01*
X037866Y016275D01*
X037922Y016257D01*
X037978Y016243D01*
X038035Y016233D01*
X038093Y016226D01*
X038151Y016222D01*
X038209Y016222D01*
X038267Y016226D01*
X038325Y016233D01*
X038382Y016243D01*
X038438Y016257D01*
X038494Y016275D01*
X038548Y016295D01*
X038547Y016296D01*
X038493Y016276D01*
X038438Y016258D01*
X038382Y016244D01*
X038325Y016234D01*
X038267Y016227D01*
X038209Y016223D01*
X038151Y016223D01*
X038093Y016227D01*
X038035Y016234D01*
X037978Y016244D01*
X037922Y016258D01*
X037867Y016276D01*
X037813Y016296D01*
X037813Y016297D01*
X037867Y016277D01*
X037922Y016259D01*
X037979Y016245D01*
X038036Y016235D01*
X038093Y016228D01*
X038151Y016224D01*
X038209Y016224D01*
X038267Y016228D01*
X038324Y016235D01*
X038381Y016245D01*
X038438Y016259D01*
X038493Y016277D01*
X038547Y016297D01*
X038547Y016298D01*
X038493Y016278D01*
X038437Y016260D01*
X038381Y016246D01*
X038324Y016236D01*
X038267Y016229D01*
X038209Y016225D01*
X038151Y016225D01*
X038093Y016229D01*
X038036Y016236D01*
X037979Y016246D01*
X037923Y016260D01*
X037867Y016278D01*
X037813Y016298D01*
X037814Y016299D01*
X037868Y016279D01*
X037923Y016261D01*
X037979Y016247D01*
X038036Y016237D01*
X038093Y016230D01*
X038151Y016226D01*
X038209Y016226D01*
X038267Y016230D01*
X038324Y016237D01*
X038381Y016247D01*
X038437Y016261D01*
X038492Y016279D01*
X038546Y016299D01*
X038546Y016300D01*
X038492Y016280D01*
X038437Y016262D01*
X038381Y016248D01*
X038324Y016238D01*
X038267Y016231D01*
X038209Y016227D01*
X038151Y016227D01*
X038093Y016231D01*
X038036Y016238D01*
X037979Y016248D01*
X037923Y016262D01*
X037868Y016280D01*
X037814Y016300D01*
X037814Y016301D01*
X037868Y016280D01*
X037923Y016263D01*
X037979Y016249D01*
X038036Y016239D01*
X038094Y016232D01*
X038151Y016228D01*
X038209Y016228D01*
X038266Y016232D01*
X038324Y016239D01*
X038381Y016249D01*
X038437Y016263D01*
X038492Y016280D01*
X038546Y016301D01*
X038545Y016302D01*
X038491Y016281D01*
X038436Y016264D01*
X038380Y016250D01*
X038324Y016240D01*
X038266Y016233D01*
X038209Y016229D01*
X038151Y016229D01*
X038094Y016233D01*
X038036Y016240D01*
X037980Y016250D01*
X037924Y016264D01*
X037869Y016281D01*
X037815Y016302D01*
X037815Y016303D01*
X037869Y016282D01*
X037924Y016265D01*
X037980Y016251D01*
X038037Y016241D01*
X038094Y016234D01*
X038151Y016230D01*
X038209Y016230D01*
X038266Y016234D01*
X038323Y016241D01*
X038380Y016251D01*
X038436Y016265D01*
X038491Y016282D01*
X038545Y016303D01*
X038544Y016304D01*
X038491Y016283D01*
X038436Y016266D01*
X038380Y016252D01*
X038323Y016242D01*
X038266Y016235D01*
X038209Y016231D01*
X038151Y016231D01*
X038094Y016235D01*
X038037Y016242D01*
X037980Y016252D01*
X037924Y016266D01*
X037869Y016283D01*
X037816Y016304D01*
X037816Y016305D01*
X037870Y016284D01*
X037925Y016267D01*
X037980Y016253D01*
X038037Y016243D01*
X038094Y016236D01*
X038151Y016232D01*
X038209Y016232D01*
X038266Y016236D01*
X038323Y016243D01*
X038380Y016253D01*
X038435Y016267D01*
X038490Y016284D01*
X038544Y016305D01*
X038544Y016306D01*
X038490Y016285D01*
X038435Y016268D01*
X038379Y016254D01*
X038323Y016244D01*
X038266Y016237D01*
X038209Y016233D01*
X038151Y016233D01*
X038094Y016237D01*
X038037Y016244D01*
X037981Y016254D01*
X037925Y016268D01*
X037870Y016285D01*
X037816Y016306D01*
X037817Y016307D01*
X037870Y016286D01*
X037925Y016269D01*
X037981Y016255D01*
X038037Y016245D01*
X038094Y016238D01*
X038151Y016234D01*
X038209Y016234D01*
X038266Y016238D01*
X038323Y016245D01*
X038379Y016255D01*
X038435Y016269D01*
X038490Y016286D01*
X038543Y016307D01*
X038489Y016287D01*
X038435Y016270D01*
X038379Y016256D01*
X038323Y016246D01*
X038266Y016239D01*
X038209Y016235D01*
X038151Y016235D01*
X038094Y016239D01*
X038037Y016246D01*
X037981Y016256D01*
X037925Y016270D01*
X037871Y016287D01*
X037817Y016307D01*
X037818Y016308D01*
X037871Y016288D01*
X037926Y016271D01*
X037981Y016257D01*
X038037Y016247D01*
X038094Y016240D01*
X038151Y016236D01*
X038209Y016236D01*
X038266Y016240D01*
X038323Y016247D01*
X038379Y016257D01*
X038434Y016271D01*
X038489Y016288D01*
X038542Y016308D01*
X038542Y016309D01*
X038489Y016289D01*
X038434Y016272D01*
X038379Y016258D01*
X038322Y016248D01*
X038266Y016241D01*
X038209Y016237D01*
X038151Y016237D01*
X038094Y016241D01*
X038038Y016248D01*
X037981Y016258D01*
X037926Y016272D01*
X037871Y016289D01*
X037818Y016309D01*
X037818Y016310D01*
X037872Y016290D01*
X037926Y016273D01*
X037982Y016259D01*
X038038Y016249D01*
X038094Y016242D01*
X038151Y016238D01*
X038209Y016238D01*
X038266Y016242D01*
X038322Y016249D01*
X038378Y016259D01*
X038434Y016273D01*
X038488Y016290D01*
X038542Y016310D01*
X037295Y017548D02*
X037312Y017541D01*
X037311Y017541D02*
X037291Y017488D01*
X037274Y017434D01*
X037260Y017378D01*
X037250Y017322D01*
X037243Y017265D01*
X037239Y017209D01*
X037239Y017151D01*
X037243Y017095D01*
X037250Y017038D01*
X037260Y016982D01*
X037274Y016926D01*
X037291Y016872D01*
X037311Y016819D01*
X037295Y016812D01*
X037274Y016866D01*
X037256Y016922D01*
X037243Y016978D01*
X037232Y017035D01*
X037225Y017093D01*
X037221Y017151D01*
X037221Y017209D01*
X037225Y017267D01*
X037232Y017325D01*
X037243Y017382D01*
X037256Y017438D01*
X037274Y017494D01*
X037295Y017548D01*
X037275Y017494D01*
X037257Y017438D01*
X037243Y017382D01*
X037233Y017325D01*
X037226Y017267D01*
X037222Y017209D01*
X037222Y017151D01*
X037226Y017093D01*
X037233Y017035D01*
X037243Y016978D01*
X037257Y016922D01*
X037275Y016866D01*
X037295Y016812D01*
X037296Y016813D01*
X037276Y016867D01*
X037258Y016922D01*
X037244Y016978D01*
X037234Y017035D01*
X037227Y017093D01*
X037223Y017151D01*
X037223Y017209D01*
X037227Y017267D01*
X037234Y017325D01*
X037244Y017382D01*
X037258Y017438D01*
X037276Y017493D01*
X037296Y017547D01*
X037297Y017547D01*
X037277Y017493D01*
X037259Y017438D01*
X037245Y017381D01*
X037235Y017324D01*
X037228Y017267D01*
X037224Y017209D01*
X037224Y017151D01*
X037228Y017093D01*
X037235Y017036D01*
X037245Y016979D01*
X037259Y016922D01*
X037277Y016867D01*
X037297Y016813D01*
X037298Y016813D01*
X037278Y016867D01*
X037260Y016923D01*
X037246Y016979D01*
X037236Y017036D01*
X037229Y017093D01*
X037225Y017151D01*
X037225Y017209D01*
X037229Y017267D01*
X037236Y017324D01*
X037246Y017381D01*
X037260Y017437D01*
X037278Y017493D01*
X037298Y017547D01*
X037299Y017546D01*
X037279Y017492D01*
X037261Y017437D01*
X037247Y017381D01*
X037237Y017324D01*
X037230Y017267D01*
X037226Y017209D01*
X037226Y017151D01*
X037230Y017093D01*
X037237Y017036D01*
X037247Y016979D01*
X037261Y016923D01*
X037279Y016868D01*
X037299Y016814D01*
X037300Y016814D01*
X037280Y016868D01*
X037262Y016923D01*
X037248Y016979D01*
X037238Y017036D01*
X037231Y017093D01*
X037227Y017151D01*
X037227Y017209D01*
X037231Y017267D01*
X037238Y017324D01*
X037248Y017381D01*
X037262Y017437D01*
X037280Y017492D01*
X037300Y017546D01*
X037301Y017546D01*
X037280Y017492D01*
X037263Y017437D01*
X037249Y017381D01*
X037239Y017324D01*
X037232Y017266D01*
X037228Y017209D01*
X037228Y017151D01*
X037232Y017094D01*
X037239Y017036D01*
X037249Y016979D01*
X037263Y016923D01*
X037280Y016868D01*
X037301Y016814D01*
X037302Y016815D01*
X037281Y016869D01*
X037264Y016924D01*
X037250Y016980D01*
X037240Y017036D01*
X037233Y017094D01*
X037229Y017151D01*
X037229Y017209D01*
X037233Y017266D01*
X037240Y017324D01*
X037250Y017380D01*
X037264Y017436D01*
X037281Y017491D01*
X037302Y017545D01*
X037303Y017545D01*
X037282Y017491D01*
X037265Y017436D01*
X037251Y017380D01*
X037241Y017323D01*
X037234Y017266D01*
X037230Y017209D01*
X037230Y017151D01*
X037234Y017094D01*
X037241Y017037D01*
X037251Y016980D01*
X037265Y016924D01*
X037282Y016869D01*
X037303Y016815D01*
X037304Y016816D01*
X037283Y016869D01*
X037266Y016924D01*
X037252Y016980D01*
X037242Y017037D01*
X037235Y017094D01*
X037231Y017151D01*
X037231Y017209D01*
X037235Y017266D01*
X037242Y017323D01*
X037252Y017380D01*
X037266Y017436D01*
X037283Y017491D01*
X037304Y017544D01*
X037305Y017544D01*
X037284Y017490D01*
X037267Y017435D01*
X037253Y017380D01*
X037243Y017323D01*
X037236Y017266D01*
X037232Y017209D01*
X037232Y017151D01*
X037236Y017094D01*
X037243Y017037D01*
X037253Y016980D01*
X037267Y016925D01*
X037284Y016870D01*
X037305Y016816D01*
X037306Y016816D01*
X037285Y016870D01*
X037268Y016925D01*
X037254Y016981D01*
X037244Y017037D01*
X037237Y017094D01*
X037233Y017151D01*
X037233Y017209D01*
X037237Y017266D01*
X037244Y017323D01*
X037254Y017379D01*
X037268Y017435D01*
X037285Y017490D01*
X037306Y017544D01*
X037307Y017543D01*
X037286Y017490D01*
X037269Y017435D01*
X037255Y017379D01*
X037245Y017323D01*
X037238Y017266D01*
X037234Y017209D01*
X037234Y017151D01*
X037238Y017094D01*
X037245Y017037D01*
X037255Y016981D01*
X037269Y016925D01*
X037286Y016870D01*
X037307Y016817D01*
X037287Y016871D01*
X037270Y016925D01*
X037256Y016981D01*
X037246Y017037D01*
X037239Y017094D01*
X037235Y017151D01*
X037235Y017209D01*
X037239Y017266D01*
X037246Y017323D01*
X037256Y017379D01*
X037270Y017435D01*
X037287Y017489D01*
X037307Y017543D01*
X037308Y017542D01*
X037288Y017489D01*
X037271Y017434D01*
X037257Y017379D01*
X037247Y017323D01*
X037240Y017266D01*
X037236Y017209D01*
X037236Y017151D01*
X037240Y017094D01*
X037247Y017037D01*
X037257Y016981D01*
X037271Y016926D01*
X037288Y016871D01*
X037308Y016818D01*
X037309Y016818D01*
X037289Y016871D01*
X037272Y016926D01*
X037258Y016981D01*
X037248Y017038D01*
X037241Y017094D01*
X037237Y017151D01*
X037237Y017209D01*
X037241Y017266D01*
X037248Y017322D01*
X037258Y017379D01*
X037272Y017434D01*
X037289Y017489D01*
X037309Y017542D01*
X037310Y017542D01*
X037290Y017488D01*
X037273Y017434D01*
X037259Y017378D01*
X037249Y017322D01*
X037242Y017266D01*
X037238Y017209D01*
X037238Y017151D01*
X037242Y017094D01*
X037249Y017038D01*
X037259Y016982D01*
X037273Y016926D01*
X037290Y016872D01*
X037310Y016818D01*
D18*
X038100Y019680D03*
X035260Y019680D03*
X031600Y026680D03*
X028760Y026680D03*
X017100Y017180D03*
X014260Y017180D03*
D19*
X031630Y003180D03*
D20*
X031005Y003180D03*
X033355Y003180D03*
D21*
X030680Y030780D03*
X029680Y030780D03*
X028680Y030780D03*
X027680Y030780D03*
X026680Y030780D03*
D22*
X026680Y031205D03*
X027680Y031205D03*
X028680Y031205D03*
X029680Y031205D03*
X030680Y031205D03*
D23*
X030755Y031130D03*
X030605Y031130D03*
X029755Y031130D03*
X029605Y031130D03*
X028755Y031130D03*
X028605Y031130D03*
X027755Y031130D03*
X027605Y031130D03*
X026755Y031130D03*
X026605Y031130D03*
D24*
X024380Y012030D02*
X024380Y009330D01*
X024378Y009279D01*
X024373Y009228D01*
X024363Y009178D01*
X024350Y009128D01*
X024334Y009080D01*
X024314Y009033D01*
X024290Y008987D01*
X024264Y008944D01*
X024234Y008902D01*
X024201Y008863D01*
X024166Y008826D01*
X024128Y008792D01*
X024087Y008761D01*
X024045Y008732D01*
X024000Y008707D01*
X023954Y008686D01*
X023906Y008667D01*
X023857Y008653D01*
X023807Y008642D01*
X023757Y008634D01*
X023706Y008630D01*
X023654Y008630D01*
X023603Y008634D01*
X023553Y008642D01*
X023503Y008653D01*
X023454Y008667D01*
X023406Y008686D01*
X023360Y008707D01*
X023315Y008732D01*
X023273Y008761D01*
X023232Y008792D01*
X023194Y008826D01*
X023159Y008863D01*
X023126Y008902D01*
X023096Y008944D01*
X023070Y008987D01*
X023046Y009033D01*
X023026Y009080D01*
X023010Y009128D01*
X022997Y009178D01*
X022987Y009228D01*
X022982Y009279D01*
X022980Y009330D01*
X022980Y012030D01*
X022982Y012081D01*
X022987Y012132D01*
X022997Y012182D01*
X023010Y012232D01*
X023026Y012280D01*
X023046Y012327D01*
X023070Y012373D01*
X023096Y012416D01*
X023126Y012458D01*
X023159Y012497D01*
X023194Y012534D01*
X023232Y012568D01*
X023273Y012599D01*
X023315Y012628D01*
X023360Y012653D01*
X023406Y012674D01*
X023454Y012693D01*
X023503Y012707D01*
X023553Y012718D01*
X023603Y012726D01*
X023654Y012730D01*
X023706Y012730D01*
X023757Y012726D01*
X023807Y012718D01*
X023857Y012707D01*
X023906Y012693D01*
X023954Y012674D01*
X024000Y012653D01*
X024045Y012628D01*
X024087Y012599D01*
X024128Y012568D01*
X024166Y012534D01*
X024201Y012497D01*
X024234Y012458D01*
X024264Y012416D01*
X024290Y012373D01*
X024314Y012327D01*
X024334Y012280D01*
X024350Y012232D01*
X024363Y012182D01*
X024373Y012132D01*
X024378Y012081D01*
X024380Y012030D01*
D25*
X033881Y010042D02*
X033881Y005318D01*
X035416Y005318D01*
X037070Y005318D02*
X038566Y005318D01*
X038566Y010042D02*
X037070Y010042D01*
X035416Y010042D02*
X033881Y010042D01*
X033192Y020680D02*
X039680Y020680D01*
X039680Y029026D01*
X033192Y029026D01*
X033192Y020680D01*
D26*
X036577Y023573D02*
X036577Y023853D01*
X036671Y023946D01*
X037044Y023946D01*
X037138Y023853D01*
X037138Y023573D01*
X036577Y023573D01*
X036577Y024180D02*
X036577Y024367D01*
X036577Y024274D02*
X037138Y024274D01*
X037138Y024367D02*
X037138Y024180D01*
X037138Y024585D02*
X036577Y024585D01*
X037138Y024959D01*
X036577Y024959D01*
X036858Y025193D02*
X036858Y025567D01*
X036858Y025801D02*
X036764Y025988D01*
X036764Y026081D01*
X036858Y026174D01*
X037044Y026174D01*
X037138Y026081D01*
X037138Y025894D01*
X037044Y025801D01*
X036858Y025801D02*
X036577Y025801D01*
X036577Y026174D01*
D27*
X035588Y006175D02*
X035538Y006125D01*
X035490Y006100D02*
X035465Y006075D01*
X035390Y006075D01*
X035390Y006025D02*
X035390Y006175D01*
X035465Y006175D01*
X035490Y006150D01*
X035490Y006100D01*
X035538Y006025D02*
X035638Y006025D01*
X035588Y006025D02*
X035588Y006175D01*
X035343Y006175D02*
X035293Y006175D01*
X035318Y006175D02*
X035318Y006050D01*
X035293Y006025D01*
X035268Y006025D01*
X035243Y006050D01*
M02*
