%
M48
M72
T01C0.0240
T02C0.0315
T03C0.0320
T04C0.0360
T05C0.0400
T06C0.0440
T07C0.0551
T08C0.0670
T09C0.0900
T10C0.1102
%
T01
X23680Y11680
X23680Y9680
T02
X2180Y4680
X3180Y4680
X3180Y5680
X2180Y5680
X2180Y6680
X3180Y6680
X3180Y7680
X2180Y7680
X2180Y8680
X3180Y8680
X3180Y9680
X2180Y9680
X2180Y10680
X3180Y10680
X3180Y11680
X2180Y11680
X2180Y12680
X3180Y12680
X3180Y13680
X2180Y13680
X2180Y14680
X3180Y14680
X3180Y15680
X2180Y15680
X2180Y16680
X2180Y17680
X2180Y18680
X4180Y17680
X4180Y16680
X5180Y16680
X5180Y17680
X6180Y17680
X6180Y16680
X6180Y15680
X5180Y15680
X4180Y15680
X4180Y14680
X5180Y14680
X6180Y14680
X6180Y13680
X5180Y13680
X4180Y13680
X4180Y12680
X4180Y11680
X4180Y10680
X6180Y10680
X6180Y9680
X6180Y8680
X6180Y7680
X6180Y6680
X6180Y5680
X9180Y5680
X9180Y6680
X9180Y7680
X9180Y8680
X9180Y9680
X9180Y10680
X9180Y11680
X9180Y12680
X11180Y12680
X12180Y12680
X13180Y12680
X13180Y11680
X12180Y11680
X11180Y11680
X11180Y9680
X12180Y9680
X13180Y9680
X13180Y8680
X12180Y8680
X11180Y8680
X14180Y11680
X14180Y12680
X14680Y13680
X15680Y13680
X15680Y12680
X15680Y11680
X15680Y10680
X15680Y9680
X15680Y8680
X15680Y7680
X15680Y6680
X15680Y5680
X18680Y5680
X18680Y6680
X18680Y7680
X18680Y8680
X18680Y9680
X18680Y10680
X18680Y11680
X18680Y12680
X18680Y14680
X18680Y15680
X19680Y15680
X19680Y16680
X19680Y17680
X18680Y16680
X18680Y18680
X19680Y18680
X17680Y18680
X16680Y18680
X16680Y17680
X16680Y16680
X16680Y15680
X16680Y14680
X15680Y14680
X14680Y14680
X14680Y15680
X15680Y15680
X15680Y16680
X15680Y17680
X14680Y16680
X12680Y16680
X12680Y17680
X12680Y15680
X10180Y15680
X10180Y14680
X8180Y14680
X7180Y14680
X7180Y15680
X8180Y15680
X8180Y16680
X8180Y17680
X7180Y17680
X7180Y16680
X10180Y16680
X10180Y17680
X15680Y18680
X22680Y17680
X23680Y18680
X24680Y19680
X22680Y15680
X33680Y19680
X37180Y15680
X37180Y14680
X37180Y13680
X37180Y12680
X37180Y11680
X38180Y12680
X39180Y12680
X39180Y13680
X38180Y13680
X38180Y14680
X39180Y14680
X39180Y15680
X38180Y15680
X34180Y11680
X34180Y4680
X33180Y4680
X32180Y4680
X31180Y4680
X30180Y4680
X29180Y4680
X28180Y4680
X27180Y4680
X26180Y4680
X25180Y4680
X23680Y4680
X23680Y3680
X23680Y2680
X22180Y2680
X22180Y3680
X22180Y4680
X30180Y2180
X31180Y2180
X32180Y2180
X33180Y2180
X34180Y2180
X32180Y25680
X32180Y27680
X32180Y28680
X32180Y29680
X32180Y30680
X33180Y30680
X34180Y30680
X34180Y29680
X33180Y29680
X35180Y29680
X36180Y29680
X36180Y30680
X35180Y30680
X29180Y25680
X26680Y25680
X26680Y26680
X15680Y26680
X14680Y26680
X13680Y26680
X13680Y27680
X14680Y27680
X15680Y27680
X15680Y28680
X14680Y28680
X13680Y28680
X13680Y29680
X14680Y29680
X15680Y29680
X3180Y28680
X2180Y28680
X2180Y27680
X3180Y27680
X3180Y26680
X2180Y26680
X2180Y25680
X3180Y25680
X6180Y12680
X6180Y11680
T03
X7180Y13680
X9180Y13680
X11180Y14680
X12680Y14680
X13680Y14680
X13680Y13680
X16680Y13680
X18680Y13680
X20680Y13680
X20680Y12680
X22680Y14680
X20680Y15180
X17680Y17180
X14680Y18680
X13680Y17180
X12680Y18680
X11180Y18680
X11180Y20680
X10180Y20680
X9180Y20680
X8180Y20680
X7180Y20680
X6180Y20680
X5180Y20680
X4180Y20680
X3180Y20680
X2180Y20680
X3180Y18680
X3180Y16680
X3180Y23680
X2180Y23680
X4180Y23680
X5180Y23680
X6180Y23680
X6180Y24680
X5180Y24680
X7180Y24680
X8180Y24680
X8180Y23680
X7180Y23680
X9180Y23680
X10180Y23680
X10180Y24680
X9180Y24680
X11180Y24680
X12180Y24680
X11180Y23680
X13680Y23680
X14680Y23680
X15680Y23680
X16680Y23680
X17680Y23680
X17680Y24680
X16680Y24680
X18680Y24680
X19680Y24680
X19680Y23680
X18680Y23680
X20680Y23680
X21680Y23680
X22680Y23680
X22680Y24680
X21680Y24680
X20680Y24680
X23680Y24680
X25180Y26680
X26180Y24680
X26180Y23680
X26180Y22680
X26180Y21680
X26180Y20680
X26180Y19680
X26180Y18680
X26180Y17680
X26180Y16680
X26180Y15680
X26180Y14680
X26180Y13680
X26180Y12680
X26180Y11680
X26180Y10680
X26180Y9680
X26180Y8680
X26180Y7680
X26180Y6680
X26180Y5680
X24680Y5680
X22680Y5680
X21180Y5680
X21180Y7680
X22680Y7680
X24680Y7680
X26180Y3680
X26180Y2680
X32180Y5680
X32180Y6680
X32180Y7680
X32180Y8680
X32180Y9680
X32180Y10680
X32180Y11680
X32180Y12680
X32180Y13680
X32180Y14680
X32180Y15680
X32180Y16680
X32180Y17680
X32180Y18680
X32180Y19680
X32180Y20680
X32180Y21680
X32180Y22680
X32180Y23680
X32180Y24680
X32180Y26680
X28180Y26680
X23680Y28680
X22680Y28680
X21680Y28680
X20680Y28680
X19680Y28680
X18680Y28680
X17680Y28680
X16680Y28680
X12180Y28680
X11180Y28680
X10180Y28680
X9180Y28680
X8180Y28680
X7180Y28680
X6180Y28680
X5180Y28680
X13680Y20680
X14680Y20680
X15680Y20680
X16680Y20680
X17680Y20680
X18680Y20680
X19680Y20680
X20680Y20680
X21680Y20680
X22680Y20680
X20680Y19180
X24680Y14680
X33680Y16680
X35180Y16680
X35180Y17680
X36180Y16680
X36180Y15680
X35180Y15680
X37680Y16680
X37680Y17680
X38680Y16680
X38680Y19680
X34680Y19680
X33680Y18680
X35180Y11680
X36180Y11680
X25180Y30680
T04
X26680Y28180
X27680Y28180
X28680Y28180
X29680Y28180
X30680Y28180
X35180Y8172
X34400Y8172
X34400Y7188
X35180Y7188
X35180Y3180
X36180Y3180
X29180Y3180
X28180Y3180
T05
X4680Y2680
X5680Y2680
X5680Y3680
X4680Y3680
X6680Y3680
X7680Y3680
X8680Y3680
X8680Y2680
X7680Y2680
X6680Y2680
X9680Y2680
X10680Y2680
X10680Y3680
X9680Y3680
X11680Y3680
X11680Y2680
X14180Y2680
X15180Y2680
X15180Y3680
X14180Y3680
X16180Y3680
X17180Y3680
X18180Y3680
X18180Y2680
X17180Y2680
X16180Y2680
X19180Y2680
X20180Y2680
X20180Y3680
X19180Y3680
X21180Y3680
X21180Y2680
X23680Y29680
X23680Y30680
X22680Y30680
X21680Y30680
X20680Y30680
X20680Y29680
X21680Y29680
X22680Y29680
X19680Y29680
X18680Y29680
X18680Y30680
X19680Y30680
X17680Y30680
X16680Y30680
X16680Y29680
X17680Y29680
X12180Y29680
X11180Y29680
X11180Y30680
X12180Y30680
X10180Y30680
X9180Y30680
X9180Y29680
X10180Y29680
X8180Y29680
X7180Y29680
X7180Y30680
X8180Y30680
X6180Y30680
X5180Y30680
X5180Y29680
X6180Y29680
T06
X30180Y3180
X34180Y3180
T07
X33771Y22897
X34763Y21897
X34759Y24861
X33767Y26834
X34763Y27806
X38693Y26837
X38693Y22897
T08
X38680Y11180
T09
X36250Y10050
X36250Y5310
T10
X2180Y2180
X2180Y31180
X39180Y31180
X39180Y2180
M30
