G75*
%MOIN*%
%OFA0B0*%
%FSLAX24Y24*%
%IPPOS*%
%LPD*%
%AMOC8*
5,1,8,0,0,1.08239X$1,22.5*
%
%ADD10C,0.0000*%
%ADD11C,0.1142*%
%ADD12OC8,0.0560*%
%ADD13C,0.0560*%
%ADD14OC8,0.1045*%
%ADD15R,0.0555X0.0555*%
%ADD16C,0.0600*%
%ADD17C,0.0700*%
%ADD18OC8,0.0640*%
%ADD19C,0.0480*%
%ADD20OC8,0.0670*%
%ADD21C,0.0670*%
%ADD22C,0.0555*%
%ADD23C,0.0940*%
%ADD24C,0.1340*%
%ADD25OC8,0.0540*%
D10*
X001180Y001180D02*
X001180Y032180D01*
X040180Y032180D01*
X040180Y001180D01*
X001180Y001180D01*
X001629Y002180D02*
X001631Y002227D01*
X001637Y002273D01*
X001647Y002319D01*
X001660Y002364D01*
X001678Y002407D01*
X001699Y002449D01*
X001723Y002489D01*
X001751Y002526D01*
X001782Y002561D01*
X001816Y002594D01*
X001852Y002623D01*
X001891Y002649D01*
X001932Y002672D01*
X001975Y002691D01*
X002019Y002707D01*
X002064Y002719D01*
X002110Y002727D01*
X002157Y002731D01*
X002203Y002731D01*
X002250Y002727D01*
X002296Y002719D01*
X002341Y002707D01*
X002385Y002691D01*
X002428Y002672D01*
X002469Y002649D01*
X002508Y002623D01*
X002544Y002594D01*
X002578Y002561D01*
X002609Y002526D01*
X002637Y002489D01*
X002661Y002449D01*
X002682Y002407D01*
X002700Y002364D01*
X002713Y002319D01*
X002723Y002273D01*
X002729Y002227D01*
X002731Y002180D01*
X002729Y002133D01*
X002723Y002087D01*
X002713Y002041D01*
X002700Y001996D01*
X002682Y001953D01*
X002661Y001911D01*
X002637Y001871D01*
X002609Y001834D01*
X002578Y001799D01*
X002544Y001766D01*
X002508Y001737D01*
X002469Y001711D01*
X002428Y001688D01*
X002385Y001669D01*
X002341Y001653D01*
X002296Y001641D01*
X002250Y001633D01*
X002203Y001629D01*
X002157Y001629D01*
X002110Y001633D01*
X002064Y001641D01*
X002019Y001653D01*
X001975Y001669D01*
X001932Y001688D01*
X001891Y001711D01*
X001852Y001737D01*
X001816Y001766D01*
X001782Y001799D01*
X001751Y001834D01*
X001723Y001871D01*
X001699Y001911D01*
X001678Y001953D01*
X001660Y001996D01*
X001647Y002041D01*
X001637Y002087D01*
X001631Y002133D01*
X001629Y002180D01*
X001629Y031180D02*
X001631Y031227D01*
X001637Y031273D01*
X001647Y031319D01*
X001660Y031364D01*
X001678Y031407D01*
X001699Y031449D01*
X001723Y031489D01*
X001751Y031526D01*
X001782Y031561D01*
X001816Y031594D01*
X001852Y031623D01*
X001891Y031649D01*
X001932Y031672D01*
X001975Y031691D01*
X002019Y031707D01*
X002064Y031719D01*
X002110Y031727D01*
X002157Y031731D01*
X002203Y031731D01*
X002250Y031727D01*
X002296Y031719D01*
X002341Y031707D01*
X002385Y031691D01*
X002428Y031672D01*
X002469Y031649D01*
X002508Y031623D01*
X002544Y031594D01*
X002578Y031561D01*
X002609Y031526D01*
X002637Y031489D01*
X002661Y031449D01*
X002682Y031407D01*
X002700Y031364D01*
X002713Y031319D01*
X002723Y031273D01*
X002729Y031227D01*
X002731Y031180D01*
X002729Y031133D01*
X002723Y031087D01*
X002713Y031041D01*
X002700Y030996D01*
X002682Y030953D01*
X002661Y030911D01*
X002637Y030871D01*
X002609Y030834D01*
X002578Y030799D01*
X002544Y030766D01*
X002508Y030737D01*
X002469Y030711D01*
X002428Y030688D01*
X002385Y030669D01*
X002341Y030653D01*
X002296Y030641D01*
X002250Y030633D01*
X002203Y030629D01*
X002157Y030629D01*
X002110Y030633D01*
X002064Y030641D01*
X002019Y030653D01*
X001975Y030669D01*
X001932Y030688D01*
X001891Y030711D01*
X001852Y030737D01*
X001816Y030766D01*
X001782Y030799D01*
X001751Y030834D01*
X001723Y030871D01*
X001699Y030911D01*
X001678Y030953D01*
X001660Y030996D01*
X001647Y031041D01*
X001637Y031087D01*
X001631Y031133D01*
X001629Y031180D01*
X038629Y031180D02*
X038631Y031227D01*
X038637Y031273D01*
X038647Y031319D01*
X038660Y031364D01*
X038678Y031407D01*
X038699Y031449D01*
X038723Y031489D01*
X038751Y031526D01*
X038782Y031561D01*
X038816Y031594D01*
X038852Y031623D01*
X038891Y031649D01*
X038932Y031672D01*
X038975Y031691D01*
X039019Y031707D01*
X039064Y031719D01*
X039110Y031727D01*
X039157Y031731D01*
X039203Y031731D01*
X039250Y031727D01*
X039296Y031719D01*
X039341Y031707D01*
X039385Y031691D01*
X039428Y031672D01*
X039469Y031649D01*
X039508Y031623D01*
X039544Y031594D01*
X039578Y031561D01*
X039609Y031526D01*
X039637Y031489D01*
X039661Y031449D01*
X039682Y031407D01*
X039700Y031364D01*
X039713Y031319D01*
X039723Y031273D01*
X039729Y031227D01*
X039731Y031180D01*
X039729Y031133D01*
X039723Y031087D01*
X039713Y031041D01*
X039700Y030996D01*
X039682Y030953D01*
X039661Y030911D01*
X039637Y030871D01*
X039609Y030834D01*
X039578Y030799D01*
X039544Y030766D01*
X039508Y030737D01*
X039469Y030711D01*
X039428Y030688D01*
X039385Y030669D01*
X039341Y030653D01*
X039296Y030641D01*
X039250Y030633D01*
X039203Y030629D01*
X039157Y030629D01*
X039110Y030633D01*
X039064Y030641D01*
X039019Y030653D01*
X038975Y030669D01*
X038932Y030688D01*
X038891Y030711D01*
X038852Y030737D01*
X038816Y030766D01*
X038782Y030799D01*
X038751Y030834D01*
X038723Y030871D01*
X038699Y030911D01*
X038678Y030953D01*
X038660Y030996D01*
X038647Y031041D01*
X038637Y031087D01*
X038631Y031133D01*
X038629Y031180D01*
X038629Y002180D02*
X038631Y002227D01*
X038637Y002273D01*
X038647Y002319D01*
X038660Y002364D01*
X038678Y002407D01*
X038699Y002449D01*
X038723Y002489D01*
X038751Y002526D01*
X038782Y002561D01*
X038816Y002594D01*
X038852Y002623D01*
X038891Y002649D01*
X038932Y002672D01*
X038975Y002691D01*
X039019Y002707D01*
X039064Y002719D01*
X039110Y002727D01*
X039157Y002731D01*
X039203Y002731D01*
X039250Y002727D01*
X039296Y002719D01*
X039341Y002707D01*
X039385Y002691D01*
X039428Y002672D01*
X039469Y002649D01*
X039508Y002623D01*
X039544Y002594D01*
X039578Y002561D01*
X039609Y002526D01*
X039637Y002489D01*
X039661Y002449D01*
X039682Y002407D01*
X039700Y002364D01*
X039713Y002319D01*
X039723Y002273D01*
X039729Y002227D01*
X039731Y002180D01*
X039729Y002133D01*
X039723Y002087D01*
X039713Y002041D01*
X039700Y001996D01*
X039682Y001953D01*
X039661Y001911D01*
X039637Y001871D01*
X039609Y001834D01*
X039578Y001799D01*
X039544Y001766D01*
X039508Y001737D01*
X039469Y001711D01*
X039428Y001688D01*
X039385Y001669D01*
X039341Y001653D01*
X039296Y001641D01*
X039250Y001633D01*
X039203Y001629D01*
X039157Y001629D01*
X039110Y001633D01*
X039064Y001641D01*
X039019Y001653D01*
X038975Y001669D01*
X038932Y001688D01*
X038891Y001711D01*
X038852Y001737D01*
X038816Y001766D01*
X038782Y001799D01*
X038751Y001834D01*
X038723Y001871D01*
X038699Y001911D01*
X038678Y001953D01*
X038660Y001996D01*
X038647Y002041D01*
X038637Y002087D01*
X038631Y002133D01*
X038629Y002180D01*
D11*
X039180Y002180D03*
X039180Y031180D03*
X002180Y031180D03*
X002180Y002180D03*
D12*
X007180Y013680D03*
X009180Y013680D03*
X011180Y014680D03*
X012680Y014680D03*
X013680Y014680D03*
X013680Y013680D03*
X016680Y013680D03*
X018680Y013680D03*
X020680Y015180D03*
X022680Y014680D03*
X024680Y014680D03*
X020680Y019180D03*
X017680Y017180D03*
X014680Y018680D03*
X013680Y017180D03*
X012680Y018680D03*
X011180Y018680D03*
X011180Y024680D03*
X012180Y024680D03*
X010180Y024680D03*
X009180Y024680D03*
X008180Y024680D03*
X007180Y024680D03*
X006180Y024680D03*
X005180Y024680D03*
X005180Y028680D03*
X006180Y028680D03*
X007180Y028680D03*
X008180Y028680D03*
X009180Y028680D03*
X010180Y028680D03*
X011180Y028680D03*
X012180Y028680D03*
X016680Y028680D03*
X017680Y028680D03*
X018680Y028680D03*
X019680Y028680D03*
X020680Y028680D03*
X021680Y028680D03*
X022680Y028680D03*
X023680Y028680D03*
X025180Y026680D03*
X023680Y024680D03*
X022680Y024680D03*
X021680Y024680D03*
X020680Y024680D03*
X019680Y024680D03*
X018680Y024680D03*
X017680Y024680D03*
X016680Y024680D03*
X025180Y030680D03*
X028180Y026680D03*
X032180Y026680D03*
X034680Y019680D03*
X033680Y018680D03*
X035180Y017680D03*
X035180Y016680D03*
X036180Y016680D03*
X036180Y015680D03*
X035180Y015680D03*
X033680Y016680D03*
X037680Y016680D03*
X037680Y017680D03*
X038680Y016680D03*
X038680Y019680D03*
X036180Y011680D03*
X035180Y011680D03*
X024680Y007680D03*
X022680Y007680D03*
X021180Y007680D03*
X021180Y005680D03*
X022680Y005680D03*
X024680Y005680D03*
X003180Y016680D03*
X003180Y018680D03*
D13*
X003180Y020420D02*
X003180Y020940D01*
X002180Y020940D02*
X002180Y020420D01*
X004180Y020420D02*
X004180Y020940D01*
X005180Y020940D02*
X005180Y020420D01*
X006180Y020420D02*
X006180Y020940D01*
X007180Y020940D02*
X007180Y020420D01*
X008180Y020420D02*
X008180Y020940D01*
X009180Y020940D02*
X009180Y020420D01*
X010180Y020420D02*
X010180Y020940D01*
X011180Y020940D02*
X011180Y020420D01*
X013680Y020420D02*
X013680Y020940D01*
X014680Y020940D02*
X014680Y020420D01*
X015680Y020420D02*
X015680Y020940D01*
X016680Y020940D02*
X016680Y020420D01*
X017680Y020420D02*
X017680Y020940D01*
X018680Y020940D02*
X018680Y020420D01*
X019680Y020420D02*
X019680Y020940D01*
X020680Y020940D02*
X020680Y020420D01*
X021680Y020420D02*
X021680Y020940D01*
X022680Y020940D02*
X022680Y020420D01*
X025920Y020680D02*
X026440Y020680D01*
X026440Y019680D02*
X025920Y019680D01*
X025920Y018680D02*
X026440Y018680D01*
X026440Y017680D02*
X025920Y017680D01*
X025920Y016680D02*
X026440Y016680D01*
X026440Y015680D02*
X025920Y015680D01*
X025920Y014680D02*
X026440Y014680D01*
X026440Y013680D02*
X025920Y013680D01*
X025920Y012680D02*
X026440Y012680D01*
X026440Y011680D02*
X025920Y011680D01*
X025920Y010680D02*
X026440Y010680D01*
X026440Y009680D02*
X025920Y009680D01*
X025920Y008680D02*
X026440Y008680D01*
X026440Y007680D02*
X025920Y007680D01*
X025920Y006680D02*
X026440Y006680D01*
X026440Y005680D02*
X025920Y005680D01*
X031920Y005680D02*
X032440Y005680D01*
X032440Y006680D02*
X031920Y006680D01*
X031920Y007680D02*
X032440Y007680D01*
X032440Y008680D02*
X031920Y008680D01*
X031920Y009680D02*
X032440Y009680D01*
X032440Y010680D02*
X031920Y010680D01*
X031920Y011680D02*
X032440Y011680D01*
X032440Y012680D02*
X031920Y012680D01*
X031920Y013680D02*
X032440Y013680D01*
X032440Y014680D02*
X031920Y014680D01*
X031920Y015680D02*
X032440Y015680D01*
X032440Y016680D02*
X031920Y016680D01*
X031920Y017680D02*
X032440Y017680D01*
X032440Y018680D02*
X031920Y018680D01*
X031920Y019680D02*
X032440Y019680D01*
X032440Y020680D02*
X031920Y020680D01*
X031920Y021680D02*
X032440Y021680D01*
X032440Y022680D02*
X031920Y022680D01*
X031920Y023680D02*
X032440Y023680D01*
X032440Y024680D02*
X031920Y024680D01*
X026440Y024680D02*
X025920Y024680D01*
X025920Y023680D02*
X026440Y023680D01*
X026440Y022680D02*
X025920Y022680D01*
X025920Y021680D02*
X026440Y021680D01*
X022680Y023420D02*
X022680Y023940D01*
X021680Y023940D02*
X021680Y023420D01*
X020680Y023420D02*
X020680Y023940D01*
X019680Y023940D02*
X019680Y023420D01*
X018680Y023420D02*
X018680Y023940D01*
X017680Y023940D02*
X017680Y023420D01*
X016680Y023420D02*
X016680Y023940D01*
X015680Y023940D02*
X015680Y023420D01*
X014680Y023420D02*
X014680Y023940D01*
X013680Y023940D02*
X013680Y023420D01*
X011180Y023420D02*
X011180Y023940D01*
X010180Y023940D02*
X010180Y023420D01*
X009180Y023420D02*
X009180Y023940D01*
X008180Y023940D02*
X008180Y023420D01*
X007180Y023420D02*
X007180Y023940D01*
X006180Y023940D02*
X006180Y023420D01*
X005180Y023420D02*
X005180Y023940D01*
X004180Y023940D02*
X004180Y023420D01*
X003180Y023420D02*
X003180Y023940D01*
X002180Y023940D02*
X002180Y023420D01*
D14*
X038680Y011180D03*
D15*
X018680Y010680D03*
X018680Y009680D03*
X018680Y008680D03*
X018680Y007680D03*
X018680Y006680D03*
X018680Y005680D03*
X015680Y005680D03*
X015680Y006680D03*
X015680Y007680D03*
X015680Y008680D03*
X015680Y009680D03*
X015680Y010680D03*
X015680Y011680D03*
X015680Y012680D03*
X018680Y012680D03*
X018680Y011680D03*
X009180Y011680D03*
X009180Y010680D03*
X009180Y009680D03*
X009180Y008680D03*
X009180Y007680D03*
X009180Y006680D03*
X009180Y005680D03*
X006180Y005680D03*
X006180Y006680D03*
X006180Y007680D03*
X006180Y008680D03*
X006180Y009680D03*
X006180Y010680D03*
X006180Y011680D03*
X006180Y012680D03*
X009180Y012680D03*
D16*
X026680Y027900D02*
X026680Y028460D01*
X027680Y028460D02*
X027680Y027900D01*
X028680Y027900D02*
X028680Y028460D01*
X029680Y028460D02*
X029680Y027900D01*
X030680Y027900D02*
X030680Y028460D01*
X029180Y003460D02*
X029180Y002900D01*
X028180Y002900D02*
X028180Y003460D01*
X035180Y003460D02*
X035180Y002900D01*
X036180Y002900D02*
X036180Y003460D01*
D17*
X034180Y003180D03*
X030180Y003180D03*
X034400Y007188D03*
X035180Y007188D03*
X035180Y008172D03*
X034400Y008172D03*
D18*
X021180Y003680D03*
X021180Y002680D03*
X020180Y002680D03*
X019180Y002680D03*
X019180Y003680D03*
X020180Y003680D03*
X018180Y003680D03*
X017180Y003680D03*
X016180Y003680D03*
X016180Y002680D03*
X017180Y002680D03*
X018180Y002680D03*
X015180Y002680D03*
X014180Y002680D03*
X014180Y003680D03*
X015180Y003680D03*
X011680Y003680D03*
X011680Y002680D03*
X010680Y002680D03*
X009680Y002680D03*
X009680Y003680D03*
X010680Y003680D03*
X008680Y003680D03*
X007680Y003680D03*
X006680Y003680D03*
X006680Y002680D03*
X007680Y002680D03*
X008680Y002680D03*
X005680Y002680D03*
X004680Y002680D03*
X004680Y003680D03*
X005680Y003680D03*
X005180Y029680D03*
X006180Y029680D03*
X006180Y030680D03*
X005180Y030680D03*
X007180Y030680D03*
X008180Y030680D03*
X008180Y029680D03*
X007180Y029680D03*
X009180Y029680D03*
X010180Y029680D03*
X010180Y030680D03*
X009180Y030680D03*
X011180Y030680D03*
X012180Y030680D03*
X012180Y029680D03*
X011180Y029680D03*
X016680Y029680D03*
X017680Y029680D03*
X017680Y030680D03*
X016680Y030680D03*
X018680Y030680D03*
X019680Y030680D03*
X019680Y029680D03*
X018680Y029680D03*
X020680Y029680D03*
X021680Y029680D03*
X022680Y029680D03*
X022680Y030680D03*
X021680Y030680D03*
X020680Y030680D03*
X023680Y030680D03*
X023680Y029680D03*
D19*
X023900Y011680D02*
X023460Y011680D01*
X023460Y009680D02*
X023900Y009680D01*
D20*
X020680Y012680D03*
X026180Y003680D03*
D21*
X026180Y002680D03*
X020680Y013680D03*
D22*
X023423Y004680D02*
X023937Y004680D01*
X023937Y003680D02*
X023423Y003680D01*
X023423Y002680D02*
X023937Y002680D01*
D23*
X034763Y021897D03*
X033771Y022897D03*
X034759Y024861D03*
X033767Y026834D03*
X034763Y027806D03*
X038693Y026837D03*
X038693Y022897D03*
D24*
X036250Y010050D03*
X036250Y005310D03*
D25*
X034180Y004680D03*
X033180Y004680D03*
X032180Y004680D03*
X031180Y004680D03*
X030180Y004680D03*
X029180Y004680D03*
X028180Y004680D03*
X027180Y004680D03*
X026180Y004680D03*
X025180Y004680D03*
X022180Y004680D03*
X022180Y003680D03*
X022180Y002680D03*
X030180Y002180D03*
X031180Y002180D03*
X032180Y002180D03*
X033180Y002180D03*
X034180Y002180D03*
X034180Y011680D03*
X037180Y011680D03*
X037180Y012680D03*
X037180Y013680D03*
X037180Y014680D03*
X037180Y015680D03*
X038180Y015680D03*
X039180Y015680D03*
X039180Y014680D03*
X038180Y014680D03*
X038180Y013680D03*
X039180Y013680D03*
X039180Y012680D03*
X038180Y012680D03*
X033680Y019680D03*
X032180Y025680D03*
X032180Y027680D03*
X032180Y028680D03*
X032180Y029680D03*
X032180Y030680D03*
X033180Y030680D03*
X034180Y030680D03*
X034180Y029680D03*
X033180Y029680D03*
X035180Y029680D03*
X036180Y029680D03*
X036180Y030680D03*
X035180Y030680D03*
X029180Y025680D03*
X026680Y025680D03*
X026680Y026680D03*
X024680Y019680D03*
X023680Y018680D03*
X022680Y017680D03*
X022680Y015680D03*
X019680Y015680D03*
X018680Y015680D03*
X018680Y014680D03*
X016680Y014680D03*
X016680Y015680D03*
X016680Y016680D03*
X016680Y017680D03*
X016680Y018680D03*
X017680Y018680D03*
X018680Y018680D03*
X019680Y018680D03*
X019680Y017680D03*
X019680Y016680D03*
X018680Y016680D03*
X015680Y016680D03*
X015680Y017680D03*
X014680Y016680D03*
X014680Y015680D03*
X015680Y015680D03*
X015680Y014680D03*
X014680Y014680D03*
X014680Y013680D03*
X015680Y013680D03*
X014180Y012680D03*
X014180Y011680D03*
X013180Y011680D03*
X012180Y011680D03*
X011180Y011680D03*
X011180Y012680D03*
X012180Y012680D03*
X013180Y012680D03*
X010180Y014680D03*
X010180Y015680D03*
X010180Y016680D03*
X010180Y017680D03*
X008180Y017680D03*
X008180Y016680D03*
X007180Y016680D03*
X007180Y017680D03*
X006180Y017680D03*
X006180Y016680D03*
X005180Y016680D03*
X005180Y017680D03*
X004180Y017680D03*
X004180Y016680D03*
X004180Y015680D03*
X005180Y015680D03*
X006180Y015680D03*
X006180Y014680D03*
X005180Y014680D03*
X004180Y014680D03*
X004180Y013680D03*
X005180Y013680D03*
X006180Y013680D03*
X007180Y014680D03*
X008180Y014680D03*
X008180Y015680D03*
X007180Y015680D03*
X004180Y012680D03*
X004180Y011680D03*
X004180Y010680D03*
X003180Y010680D03*
X002180Y010680D03*
X002180Y009680D03*
X003180Y009680D03*
X003180Y008680D03*
X002180Y008680D03*
X002180Y007680D03*
X003180Y007680D03*
X003180Y006680D03*
X002180Y006680D03*
X002180Y005680D03*
X003180Y005680D03*
X003180Y004680D03*
X002180Y004680D03*
X002180Y011680D03*
X003180Y011680D03*
X003180Y012680D03*
X002180Y012680D03*
X002180Y013680D03*
X003180Y013680D03*
X003180Y014680D03*
X002180Y014680D03*
X002180Y015680D03*
X003180Y015680D03*
X002180Y016680D03*
X002180Y017680D03*
X002180Y018680D03*
X002180Y025680D03*
X003180Y025680D03*
X003180Y026680D03*
X002180Y026680D03*
X002180Y027680D03*
X003180Y027680D03*
X003180Y028680D03*
X002180Y028680D03*
X013680Y028680D03*
X014680Y028680D03*
X015680Y028680D03*
X015680Y027680D03*
X014680Y027680D03*
X013680Y027680D03*
X013680Y026680D03*
X014680Y026680D03*
X015680Y026680D03*
X015680Y029680D03*
X014680Y029680D03*
X013680Y029680D03*
X015680Y018680D03*
X012680Y017680D03*
X012680Y016680D03*
X012680Y015680D03*
X012180Y009680D03*
X011180Y009680D03*
X011180Y008680D03*
X012180Y008680D03*
X013180Y008680D03*
X013180Y009680D03*
M02*
