G75*
%MOIN*%
%OFA0B0*%
%FSLAX24Y24*%
%IPPOS*%
%LPD*%
%AMOC8*
5,1,8,0,0,1.08239X$1,22.5*
%
%ADD10C,0.0000*%
D10*
X001180Y001180D02*
X001180Y032180D01*
X040180Y032180D01*
X040180Y001180D01*
X001180Y001180D01*
X001629Y002180D02*
X001631Y002227D01*
X001637Y002273D01*
X001647Y002319D01*
X001660Y002364D01*
X001678Y002407D01*
X001699Y002449D01*
X001723Y002489D01*
X001751Y002526D01*
X001782Y002561D01*
X001816Y002594D01*
X001852Y002623D01*
X001891Y002649D01*
X001932Y002672D01*
X001975Y002691D01*
X002019Y002707D01*
X002064Y002719D01*
X002110Y002727D01*
X002157Y002731D01*
X002203Y002731D01*
X002250Y002727D01*
X002296Y002719D01*
X002341Y002707D01*
X002385Y002691D01*
X002428Y002672D01*
X002469Y002649D01*
X002508Y002623D01*
X002544Y002594D01*
X002578Y002561D01*
X002609Y002526D01*
X002637Y002489D01*
X002661Y002449D01*
X002682Y002407D01*
X002700Y002364D01*
X002713Y002319D01*
X002723Y002273D01*
X002729Y002227D01*
X002731Y002180D01*
X002729Y002133D01*
X002723Y002087D01*
X002713Y002041D01*
X002700Y001996D01*
X002682Y001953D01*
X002661Y001911D01*
X002637Y001871D01*
X002609Y001834D01*
X002578Y001799D01*
X002544Y001766D01*
X002508Y001737D01*
X002469Y001711D01*
X002428Y001688D01*
X002385Y001669D01*
X002341Y001653D01*
X002296Y001641D01*
X002250Y001633D01*
X002203Y001629D01*
X002157Y001629D01*
X002110Y001633D01*
X002064Y001641D01*
X002019Y001653D01*
X001975Y001669D01*
X001932Y001688D01*
X001891Y001711D01*
X001852Y001737D01*
X001816Y001766D01*
X001782Y001799D01*
X001751Y001834D01*
X001723Y001871D01*
X001699Y001911D01*
X001678Y001953D01*
X001660Y001996D01*
X001647Y002041D01*
X001637Y002087D01*
X001631Y002133D01*
X001629Y002180D01*
X001629Y031180D02*
X001631Y031227D01*
X001637Y031273D01*
X001647Y031319D01*
X001660Y031364D01*
X001678Y031407D01*
X001699Y031449D01*
X001723Y031489D01*
X001751Y031526D01*
X001782Y031561D01*
X001816Y031594D01*
X001852Y031623D01*
X001891Y031649D01*
X001932Y031672D01*
X001975Y031691D01*
X002019Y031707D01*
X002064Y031719D01*
X002110Y031727D01*
X002157Y031731D01*
X002203Y031731D01*
X002250Y031727D01*
X002296Y031719D01*
X002341Y031707D01*
X002385Y031691D01*
X002428Y031672D01*
X002469Y031649D01*
X002508Y031623D01*
X002544Y031594D01*
X002578Y031561D01*
X002609Y031526D01*
X002637Y031489D01*
X002661Y031449D01*
X002682Y031407D01*
X002700Y031364D01*
X002713Y031319D01*
X002723Y031273D01*
X002729Y031227D01*
X002731Y031180D01*
X002729Y031133D01*
X002723Y031087D01*
X002713Y031041D01*
X002700Y030996D01*
X002682Y030953D01*
X002661Y030911D01*
X002637Y030871D01*
X002609Y030834D01*
X002578Y030799D01*
X002544Y030766D01*
X002508Y030737D01*
X002469Y030711D01*
X002428Y030688D01*
X002385Y030669D01*
X002341Y030653D01*
X002296Y030641D01*
X002250Y030633D01*
X002203Y030629D01*
X002157Y030629D01*
X002110Y030633D01*
X002064Y030641D01*
X002019Y030653D01*
X001975Y030669D01*
X001932Y030688D01*
X001891Y030711D01*
X001852Y030737D01*
X001816Y030766D01*
X001782Y030799D01*
X001751Y030834D01*
X001723Y030871D01*
X001699Y030911D01*
X001678Y030953D01*
X001660Y030996D01*
X001647Y031041D01*
X001637Y031087D01*
X001631Y031133D01*
X001629Y031180D01*
X038629Y031180D02*
X038631Y031227D01*
X038637Y031273D01*
X038647Y031319D01*
X038660Y031364D01*
X038678Y031407D01*
X038699Y031449D01*
X038723Y031489D01*
X038751Y031526D01*
X038782Y031561D01*
X038816Y031594D01*
X038852Y031623D01*
X038891Y031649D01*
X038932Y031672D01*
X038975Y031691D01*
X039019Y031707D01*
X039064Y031719D01*
X039110Y031727D01*
X039157Y031731D01*
X039203Y031731D01*
X039250Y031727D01*
X039296Y031719D01*
X039341Y031707D01*
X039385Y031691D01*
X039428Y031672D01*
X039469Y031649D01*
X039508Y031623D01*
X039544Y031594D01*
X039578Y031561D01*
X039609Y031526D01*
X039637Y031489D01*
X039661Y031449D01*
X039682Y031407D01*
X039700Y031364D01*
X039713Y031319D01*
X039723Y031273D01*
X039729Y031227D01*
X039731Y031180D01*
X039729Y031133D01*
X039723Y031087D01*
X039713Y031041D01*
X039700Y030996D01*
X039682Y030953D01*
X039661Y030911D01*
X039637Y030871D01*
X039609Y030834D01*
X039578Y030799D01*
X039544Y030766D01*
X039508Y030737D01*
X039469Y030711D01*
X039428Y030688D01*
X039385Y030669D01*
X039341Y030653D01*
X039296Y030641D01*
X039250Y030633D01*
X039203Y030629D01*
X039157Y030629D01*
X039110Y030633D01*
X039064Y030641D01*
X039019Y030653D01*
X038975Y030669D01*
X038932Y030688D01*
X038891Y030711D01*
X038852Y030737D01*
X038816Y030766D01*
X038782Y030799D01*
X038751Y030834D01*
X038723Y030871D01*
X038699Y030911D01*
X038678Y030953D01*
X038660Y030996D01*
X038647Y031041D01*
X038637Y031087D01*
X038631Y031133D01*
X038629Y031180D01*
X038629Y002180D02*
X038631Y002227D01*
X038637Y002273D01*
X038647Y002319D01*
X038660Y002364D01*
X038678Y002407D01*
X038699Y002449D01*
X038723Y002489D01*
X038751Y002526D01*
X038782Y002561D01*
X038816Y002594D01*
X038852Y002623D01*
X038891Y002649D01*
X038932Y002672D01*
X038975Y002691D01*
X039019Y002707D01*
X039064Y002719D01*
X039110Y002727D01*
X039157Y002731D01*
X039203Y002731D01*
X039250Y002727D01*
X039296Y002719D01*
X039341Y002707D01*
X039385Y002691D01*
X039428Y002672D01*
X039469Y002649D01*
X039508Y002623D01*
X039544Y002594D01*
X039578Y002561D01*
X039609Y002526D01*
X039637Y002489D01*
X039661Y002449D01*
X039682Y002407D01*
X039700Y002364D01*
X039713Y002319D01*
X039723Y002273D01*
X039729Y002227D01*
X039731Y002180D01*
X039729Y002133D01*
X039723Y002087D01*
X039713Y002041D01*
X039700Y001996D01*
X039682Y001953D01*
X039661Y001911D01*
X039637Y001871D01*
X039609Y001834D01*
X039578Y001799D01*
X039544Y001766D01*
X039508Y001737D01*
X039469Y001711D01*
X039428Y001688D01*
X039385Y001669D01*
X039341Y001653D01*
X039296Y001641D01*
X039250Y001633D01*
X039203Y001629D01*
X039157Y001629D01*
X039110Y001633D01*
X039064Y001641D01*
X039019Y001653D01*
X038975Y001669D01*
X038932Y001688D01*
X038891Y001711D01*
X038852Y001737D01*
X038816Y001766D01*
X038782Y001799D01*
X038751Y001834D01*
X038723Y001871D01*
X038699Y001911D01*
X038678Y001953D01*
X038660Y001996D01*
X038647Y002041D01*
X038637Y002087D01*
X038631Y002133D01*
X038629Y002180D01*
M02*
